M48
;DRILL file {Pcbnew (2013-mar-13)-testing} date Sat 12 Oct 2013 01:53:17 PM CEST
;FORMAT={-:-/ absolute / metric / decimal}
FMAT,2
METRIC,TZ
T1C0.381
T2C1.016
%
G90
G05
M71
T1
X21.75Y-99.4
X28.384Y-35.496
X29.972Y-32.156
X31.178Y-39.814
X31.496Y-40.957
X32.956Y-30.543
X34.417Y-30.416
X34.861Y-43.18
X36.512Y-53.404
X37.211Y-28.067
X37.694Y-50.546
X40.513Y-61.468
X41.148Y-46.584
X41.656Y-29.019
X41.974Y-39.306
X42.52Y-34.544
X42.545Y-37.465
X43.243Y-32.829
X43.434Y-42.545
X45.263Y-37.287
X45.276Y-33.401
X45.529Y-46.863
X46.228Y-59.69
X46.838Y-40.284
X47.193Y-49.479
X47.752Y-52.261
X48.362Y-48.819
X49.784Y-57.15
X51.816Y-53.721
X55.499Y-41.212
X56.261Y-45.212
X59.675Y-75.765
X60.325Y-64.135
X63.739Y-94.688
X64.501Y-98.688
X68.184Y-86.179
X70.216Y-82.75
X71.638Y-91.081
X72.248Y-87.639
X72.807Y-90.421
X73.162Y-99.616
X73.772Y-80.21
X74.471Y-93.037
X74.724Y-106.499
X74.737Y-102.613
X76.566Y-97.355
X76.757Y-107.07
X77.455Y-102.435
X77.48Y-105.356
X78.026Y-100.593
X78.344Y-110.88
X78.852Y-93.316
X79.487Y-78.432
X82.306Y-89.354
X82.789Y-111.833
X83.487Y-86.496
X85.138Y-96.72
X85.583Y-109.483
X87.043Y-109.356
X88.504Y-98.942
X88.822Y-100.085
X90.028Y-107.744
X91.615Y-104.403
X98.25Y-40.5
T2
X51.918Y-42.926
X51.918Y-45.466
X51.918Y-48.006
X54.458Y-42.926
X54.458Y-45.466
X54.458Y-48.006
X65.542Y-91.894
X65.542Y-94.434
X65.542Y-96.974
X68.082Y-91.894
X68.082Y-94.434
X68.082Y-96.974
T0
M30
