G04 (created by PCBNEW (2013-mar-13)-testing) date Sat 12 Oct 2013 01:57:42 PM CEST*
%MOIN*%
G04 Gerber Fmt 3.4, Leading zero omitted, Abs format*
%FSLAX34Y34*%
G01*
G70*
G90*
G04 APERTURE LIST*
%ADD10C,0.005906*%
%ADD11R,0.031400X0.031400*%
%ADD12R,0.060000X0.060000*%
%ADD13C,0.060000*%
%ADD14C,0.035000*%
%ADD15C,0.020000*%
%ADD16C,0.008000*%
G04 APERTURE END LIST*
G54D10*
G54D11*
X30448Y-36633D03*
X29858Y-36633D03*
X29015Y-35039D03*
X28425Y-35039D03*
X27428Y-33377D03*
X26838Y-33377D03*
X28350Y-31988D03*
X27760Y-31988D03*
X30113Y-31165D03*
X29523Y-31165D03*
X32424Y-30877D03*
X31834Y-30877D03*
X33877Y-31507D03*
X33287Y-31507D03*
X33448Y-33476D03*
X32858Y-33476D03*
X33043Y-35720D03*
X32453Y-35720D03*
X34295Y-38622D03*
X33705Y-38622D03*
X35546Y-39944D03*
X34956Y-39944D03*
X36980Y-41637D03*
X36390Y-41637D03*
X35417Y-42968D03*
X34827Y-42968D03*
X33184Y-43484D03*
X32594Y-43484D03*
X31314Y-39053D03*
X30724Y-39053D03*
X31089Y-40928D03*
X30499Y-40928D03*
X30814Y-42703D03*
X30224Y-42703D03*
X32180Y-37551D03*
X31590Y-37551D03*
G54D12*
X25804Y-38178D03*
G54D13*
X26804Y-38178D03*
X25804Y-37178D03*
X26804Y-37178D03*
X25804Y-36178D03*
X26804Y-36178D03*
G54D12*
X21440Y-16900D03*
G54D13*
X20440Y-16900D03*
X21440Y-17900D03*
X20440Y-17900D03*
X21440Y-18900D03*
X20440Y-18900D03*
G54D11*
X15063Y-17527D03*
X15653Y-17527D03*
X16430Y-12375D03*
X17020Y-12375D03*
X16155Y-14150D03*
X16745Y-14150D03*
X15930Y-16025D03*
X16520Y-16025D03*
X14059Y-11594D03*
X14649Y-11594D03*
X11827Y-12110D03*
X12417Y-12110D03*
X10264Y-13440D03*
X10854Y-13440D03*
X11697Y-15133D03*
X12287Y-15133D03*
X12949Y-16456D03*
X13539Y-16456D03*
X14201Y-19358D03*
X14791Y-19358D03*
X13795Y-21602D03*
X14385Y-21602D03*
X13366Y-23570D03*
X13956Y-23570D03*
X14819Y-24200D03*
X15409Y-24200D03*
X17130Y-23913D03*
X17720Y-23913D03*
X18893Y-23090D03*
X19483Y-23090D03*
X19815Y-21700D03*
X20405Y-21700D03*
X18228Y-20039D03*
X18818Y-20039D03*
X16795Y-18444D03*
X17385Y-18444D03*
G54D14*
X28664Y-35598D03*
X18580Y-19480D03*
X30219Y-42153D03*
X34269Y-43053D03*
X35444Y-42418D03*
X27644Y-32578D03*
X19600Y-22500D03*
X11800Y-12660D03*
X12975Y-12025D03*
X17025Y-12925D03*
X32594Y-44028D03*
X33519Y-38078D03*
X28444Y-34503D03*
X31294Y-30878D03*
X15950Y-24200D03*
X18800Y-20575D03*
X13725Y-17000D03*
X14650Y-11050D03*
X30844Y-43653D03*
X16400Y-11425D03*
X28204Y-35858D03*
X19040Y-19220D03*
X36069Y-41103D03*
X30494Y-40328D03*
X32869Y-34053D03*
X30144Y-38328D03*
X30504Y-41478D03*
X29424Y-40398D03*
X28804Y-39218D03*
X18440Y-15860D03*
X17820Y-14680D03*
X16740Y-13600D03*
X17100Y-16750D03*
X14375Y-21025D03*
X16750Y-14750D03*
X11175Y-13975D03*
X30719Y-39603D03*
X34969Y-39403D03*
X26844Y-33928D03*
X20400Y-21150D03*
X12275Y-15675D03*
X16525Y-15475D03*
X33694Y-43103D03*
X13550Y-11975D03*
X23494Y-29828D03*
X23750Y-25250D03*
X34844Y-38953D03*
X12400Y-16125D03*
X29044Y-31578D03*
X29319Y-36628D03*
X31044Y-36738D03*
X32404Y-35178D03*
X29419Y-41928D03*
X17825Y-13150D03*
X14840Y-19900D03*
X16200Y-18340D03*
X17925Y-18450D03*
X18200Y-23500D03*
X8562Y-39133D03*
X25394Y-38853D03*
X25094Y-37278D03*
X22150Y-17800D03*
X21850Y-16225D03*
X38681Y-15944D03*
G54D15*
X30448Y-36472D02*
X30448Y-36633D01*
X29015Y-35039D02*
X30448Y-36472D01*
X28664Y-35598D02*
X29015Y-35247D01*
X29015Y-35247D02*
X29015Y-35039D01*
X18228Y-19831D02*
X18228Y-20039D01*
X18580Y-19480D02*
X18228Y-19831D01*
X18228Y-20039D02*
X16795Y-18606D01*
X16795Y-18606D02*
X16795Y-18444D01*
X30219Y-42153D02*
X30219Y-42698D01*
X30219Y-42698D02*
X30224Y-42703D01*
X34741Y-43053D02*
X34269Y-43053D01*
X34827Y-42968D02*
X34741Y-43053D01*
X35444Y-42418D02*
X35064Y-42418D01*
X35064Y-42418D02*
X34827Y-42655D01*
X34827Y-42655D02*
X34827Y-42968D01*
X27760Y-31988D02*
X27760Y-32462D01*
X27760Y-32462D02*
X27644Y-32578D01*
X19483Y-22616D02*
X19600Y-22500D01*
X19483Y-23090D02*
X19483Y-22616D01*
X12417Y-12422D02*
X12417Y-12110D01*
X12180Y-12660D02*
X12417Y-12422D01*
X11800Y-12660D02*
X12180Y-12660D01*
X12417Y-12110D02*
X12502Y-12025D01*
X12502Y-12025D02*
X12975Y-12025D01*
X17025Y-12380D02*
X17020Y-12375D01*
X17025Y-12925D02*
X17025Y-12380D01*
X32594Y-44028D02*
X32594Y-44028D01*
X33519Y-38078D02*
X33705Y-38264D01*
X33705Y-38264D02*
X33705Y-38622D01*
X32594Y-43484D02*
X32594Y-44028D01*
X28444Y-34503D02*
X28425Y-34522D01*
X28425Y-34522D02*
X28425Y-35039D01*
X31834Y-30878D02*
X31294Y-30878D01*
X31834Y-30877D02*
X31834Y-30878D01*
X15409Y-24200D02*
X15409Y-24200D01*
X15409Y-24200D02*
X15950Y-24200D01*
X18818Y-20556D02*
X18818Y-20039D01*
X18800Y-20575D02*
X18818Y-20556D01*
X14649Y-11594D02*
X14649Y-11050D01*
X13539Y-16814D02*
X13539Y-16456D01*
X13725Y-17000D02*
X13539Y-16814D01*
X14649Y-11050D02*
X14650Y-11050D01*
X30844Y-43653D02*
X30814Y-43623D01*
X30814Y-43623D02*
X30814Y-42703D01*
X32180Y-38187D02*
X31314Y-39053D01*
X32180Y-37551D02*
X32180Y-38187D01*
X31089Y-42428D02*
X30814Y-42703D01*
X31089Y-40928D02*
X31089Y-42428D01*
X31314Y-40703D02*
X31314Y-39053D01*
X31089Y-40928D02*
X31314Y-40703D01*
X16155Y-14150D02*
X15930Y-14375D01*
X15930Y-14375D02*
X15930Y-16025D01*
X16155Y-14150D02*
X16155Y-12650D01*
X16155Y-12650D02*
X16430Y-12375D01*
X15063Y-17527D02*
X15063Y-16891D01*
X15063Y-16891D02*
X15930Y-16025D01*
X16430Y-11455D02*
X16430Y-12375D01*
X16400Y-11425D02*
X16430Y-11455D01*
X32424Y-31197D02*
X32194Y-31428D01*
X32194Y-31428D02*
X30377Y-31428D01*
X30377Y-31428D02*
X30113Y-31165D01*
X32424Y-30877D02*
X32424Y-31197D01*
X30113Y-31383D02*
X29509Y-31988D01*
X29509Y-31988D02*
X28350Y-31988D01*
X30113Y-31165D02*
X30113Y-31383D01*
X28350Y-32456D02*
X27428Y-33377D01*
X28350Y-31988D02*
X28350Y-32456D01*
X27428Y-35083D02*
X28204Y-35858D01*
X27428Y-33377D02*
X27428Y-35083D01*
X19815Y-21700D02*
X19815Y-19995D01*
X19815Y-19995D02*
X19040Y-19220D01*
X18893Y-23090D02*
X18893Y-22622D01*
X18893Y-22622D02*
X19815Y-21700D01*
X17130Y-23913D02*
X17130Y-23694D01*
X17734Y-23090D02*
X18893Y-23090D01*
X17130Y-23694D02*
X17734Y-23090D01*
X14819Y-24200D02*
X14819Y-23880D01*
X16866Y-23650D02*
X17130Y-23913D01*
X15050Y-23650D02*
X16866Y-23650D01*
X14819Y-23880D02*
X15050Y-23650D01*
X36390Y-41424D02*
X36069Y-41103D01*
X30494Y-40328D02*
X30494Y-40923D01*
X30494Y-40923D02*
X30499Y-40928D01*
X36390Y-41637D02*
X36390Y-41424D01*
X32869Y-33486D02*
X32869Y-34053D01*
X30144Y-38328D02*
X30144Y-39978D01*
X30144Y-39978D02*
X30494Y-40328D01*
X32858Y-33476D02*
X32869Y-33486D01*
X30499Y-41473D02*
X30504Y-41478D01*
X29424Y-40398D02*
X29424Y-39838D01*
X29424Y-39838D02*
X28804Y-39218D01*
X30499Y-40928D02*
X30499Y-41473D01*
X16745Y-14150D02*
X16745Y-13605D01*
X17820Y-15240D02*
X18440Y-15860D01*
X17820Y-14680D02*
X17820Y-15240D01*
X16745Y-13605D02*
X16740Y-13600D01*
X14385Y-21602D02*
X14375Y-21591D01*
X17100Y-15100D02*
X16750Y-14750D01*
X17100Y-16750D02*
X17100Y-15100D01*
X14375Y-21591D02*
X14375Y-21025D01*
X10854Y-13440D02*
X10854Y-13654D01*
X16750Y-14155D02*
X16745Y-14150D01*
X16750Y-14750D02*
X16750Y-14155D01*
X10854Y-13654D02*
X11175Y-13975D01*
X30719Y-39603D02*
X30719Y-39058D01*
X30719Y-39058D02*
X30724Y-39053D01*
X34956Y-39415D02*
X34969Y-39403D01*
X34956Y-39944D02*
X34956Y-39415D01*
X33287Y-30772D02*
X32869Y-30353D01*
X32869Y-30353D02*
X30869Y-30353D01*
X30869Y-30353D02*
X30569Y-30653D01*
X30569Y-30653D02*
X29194Y-30653D01*
X29194Y-30653D02*
X28369Y-31478D01*
X28369Y-31478D02*
X27444Y-31478D01*
X27444Y-31478D02*
X27144Y-31778D01*
X27144Y-31778D02*
X27144Y-32728D01*
X27144Y-32728D02*
X26838Y-33033D01*
X26838Y-33033D02*
X26838Y-33377D01*
X33287Y-30838D02*
X33287Y-30772D01*
X33287Y-31507D02*
X33287Y-30838D01*
X26838Y-33923D02*
X26838Y-33377D01*
X26844Y-33928D02*
X26838Y-33923D01*
X33524Y-36958D02*
X35284Y-38718D01*
X33524Y-35798D02*
X33524Y-36958D01*
X33764Y-35558D02*
X33524Y-35798D01*
X33764Y-33978D02*
X33764Y-35558D01*
X34204Y-33538D02*
X33764Y-33978D01*
X34204Y-32178D02*
X34204Y-33538D01*
X34364Y-32018D02*
X34204Y-32178D01*
X34364Y-31098D02*
X34364Y-32018D01*
X34104Y-30838D02*
X34364Y-31098D01*
X33287Y-30838D02*
X34104Y-30838D01*
X35284Y-39088D02*
X35284Y-38718D01*
X34969Y-39403D02*
X35284Y-39088D01*
X12275Y-15675D02*
X11960Y-15990D01*
X11960Y-15990D02*
X11960Y-16360D01*
X13956Y-24240D02*
X13140Y-24240D01*
X13140Y-24240D02*
X12880Y-23980D01*
X12880Y-23980D02*
X12880Y-23060D01*
X12880Y-23060D02*
X13040Y-22900D01*
X13040Y-22900D02*
X13040Y-21540D01*
X13040Y-21540D02*
X13480Y-21100D01*
X13480Y-21100D02*
X13480Y-19520D01*
X13480Y-19520D02*
X13720Y-19280D01*
X13720Y-19280D02*
X13720Y-18120D01*
X13720Y-18120D02*
X11960Y-16360D01*
X20400Y-21150D02*
X20405Y-21155D01*
X20405Y-21155D02*
X20405Y-21700D01*
X13956Y-23570D02*
X13956Y-24240D01*
X13956Y-24240D02*
X13956Y-24306D01*
X20405Y-22044D02*
X20405Y-21700D01*
X20100Y-22350D02*
X20405Y-22044D01*
X20100Y-23300D02*
X20100Y-22350D01*
X19800Y-23600D02*
X20100Y-23300D01*
X18875Y-23600D02*
X19800Y-23600D01*
X18050Y-24425D02*
X18875Y-23600D01*
X16675Y-24425D02*
X18050Y-24425D01*
X16375Y-24725D02*
X16675Y-24425D01*
X14375Y-24725D02*
X16375Y-24725D01*
X13956Y-24306D02*
X14375Y-24725D01*
X12287Y-15133D02*
X12287Y-15662D01*
X12287Y-15662D02*
X12275Y-15675D01*
X16525Y-16020D02*
X16520Y-16025D01*
X16525Y-15475D02*
X16525Y-16020D01*
X35394Y-42991D02*
X35394Y-43328D01*
X35394Y-43328D02*
X35238Y-43484D01*
X35238Y-43484D02*
X33184Y-43484D01*
X35417Y-42968D02*
X35394Y-42991D01*
X36980Y-41842D02*
X35854Y-42968D01*
X35854Y-42968D02*
X35417Y-42968D01*
X36980Y-41637D02*
X36980Y-41842D01*
X36980Y-41377D02*
X36980Y-41637D01*
X35546Y-39944D02*
X36980Y-41377D01*
X33313Y-43484D02*
X33694Y-43103D01*
X33184Y-43484D02*
X33313Y-43484D01*
X14059Y-11594D02*
X13930Y-11594D01*
X13930Y-11594D02*
X13550Y-11975D01*
X11697Y-15133D02*
X10264Y-13700D01*
X10264Y-13700D02*
X10264Y-13440D01*
X10264Y-13440D02*
X10264Y-13235D01*
X11389Y-12110D02*
X11827Y-12110D01*
X10264Y-13235D02*
X11389Y-12110D01*
X11827Y-12110D02*
X11850Y-12087D01*
X12005Y-11594D02*
X14059Y-11594D01*
X11850Y-11750D02*
X12005Y-11594D01*
X11850Y-12087D02*
X11850Y-11750D01*
X23366Y-29192D02*
X23494Y-29320D01*
X8759Y-29192D02*
X8759Y-35688D01*
X8956Y-39330D02*
X8956Y-38838D01*
X8956Y-38838D02*
X8759Y-38641D01*
X8759Y-38641D02*
X8759Y-35688D01*
X8759Y-39527D02*
X8759Y-46318D01*
X38484Y-46318D02*
X38090Y-46318D01*
X38484Y-46220D02*
X38484Y-46318D01*
X38484Y-29192D02*
X26673Y-29192D01*
X23494Y-29320D02*
X23622Y-29192D01*
X23622Y-29192D02*
X26673Y-29192D01*
X23494Y-29828D02*
X23494Y-29320D01*
X38484Y-46220D02*
X38484Y-29192D01*
X8759Y-46318D02*
X38090Y-46318D01*
X8759Y-39527D02*
X8956Y-39330D01*
X8759Y-29192D02*
X23366Y-29192D01*
X38484Y-25885D02*
X23877Y-25885D01*
X38484Y-15551D02*
X38287Y-15748D01*
X38484Y-8759D02*
X9153Y-8759D01*
X8759Y-8858D02*
X8759Y-25885D01*
X23750Y-25250D02*
X23750Y-25757D01*
X23622Y-25885D02*
X20570Y-25885D01*
X23750Y-25757D02*
X23622Y-25885D01*
X8759Y-25885D02*
X20570Y-25885D01*
X8759Y-8858D02*
X8759Y-8759D01*
X8759Y-8759D02*
X9153Y-8759D01*
X38484Y-15551D02*
X38484Y-8759D01*
X38484Y-16437D02*
X38484Y-19389D01*
X38287Y-16240D02*
X38484Y-16437D01*
X38287Y-15748D02*
X38287Y-16240D01*
X38484Y-25885D02*
X38484Y-19389D01*
X23877Y-25885D02*
X23750Y-25757D01*
X33877Y-33047D02*
X33448Y-33476D01*
X33877Y-31507D02*
X33877Y-33047D01*
X33448Y-35314D02*
X33043Y-35720D01*
X33448Y-33476D02*
X33448Y-35314D01*
X33043Y-36977D02*
X34295Y-38229D01*
X34295Y-38229D02*
X34295Y-38622D01*
X33043Y-35720D02*
X33043Y-36977D01*
X34844Y-38953D02*
X34512Y-38622D01*
X34512Y-38622D02*
X34295Y-38622D01*
X12731Y-16456D02*
X12949Y-16456D01*
X12400Y-16125D02*
X12731Y-16456D01*
X14201Y-19358D02*
X14201Y-18101D01*
X12949Y-16849D02*
X12949Y-16456D01*
X14201Y-18101D02*
X12949Y-16849D01*
X13795Y-21602D02*
X13795Y-19763D01*
X13795Y-19763D02*
X14201Y-19358D01*
X13366Y-23570D02*
X13366Y-22031D01*
X13366Y-22031D02*
X13795Y-21602D01*
X30441Y-37551D02*
X29858Y-36968D01*
X29858Y-36968D02*
X29858Y-36633D01*
X31590Y-37551D02*
X30441Y-37551D01*
X29110Y-31578D02*
X29044Y-31578D01*
X29319Y-36628D02*
X29853Y-36628D01*
X29853Y-36628D02*
X29858Y-36633D01*
X29523Y-31165D02*
X29110Y-31578D01*
X29858Y-36633D02*
X29858Y-38039D01*
X31044Y-37004D02*
X31044Y-36738D01*
X32404Y-35178D02*
X32453Y-35227D01*
X32453Y-35227D02*
X32453Y-35720D01*
X31590Y-37551D02*
X31044Y-37004D01*
X29819Y-41528D02*
X29419Y-41928D01*
X29819Y-38628D02*
X29819Y-41528D01*
X29744Y-38553D02*
X29819Y-38628D01*
X29744Y-38153D02*
X29744Y-38553D01*
X29858Y-38039D02*
X29744Y-38153D01*
X17385Y-17039D02*
X17500Y-16925D01*
X17500Y-16925D02*
X17500Y-16524D01*
X17500Y-16524D02*
X17425Y-16449D01*
X17425Y-16449D02*
X17425Y-13550D01*
X17425Y-13550D02*
X17825Y-13150D01*
X15653Y-17527D02*
X16200Y-18074D01*
X14791Y-19851D02*
X14791Y-19358D01*
X14840Y-19900D02*
X14791Y-19851D01*
X16200Y-18074D02*
X16200Y-18340D01*
X17385Y-18444D02*
X17385Y-17039D01*
X17720Y-23913D02*
X18133Y-23500D01*
X17390Y-18450D02*
X17385Y-18444D01*
X17925Y-18450D02*
X17390Y-18450D01*
X18133Y-23500D02*
X18200Y-23500D01*
X15653Y-17527D02*
X16802Y-17527D01*
X17385Y-18110D02*
X17385Y-18444D01*
X16802Y-17527D02*
X17385Y-18110D01*
X8366Y-39330D02*
X8366Y-46712D01*
X8562Y-39133D02*
X8366Y-39330D01*
X38877Y-46712D02*
X8366Y-46712D01*
X38877Y-46712D02*
X38877Y-28799D01*
X8366Y-28799D02*
X38877Y-28799D01*
X8366Y-39330D02*
X8366Y-28799D01*
X25169Y-38628D02*
X25169Y-37878D01*
X25394Y-38853D02*
X25169Y-38628D01*
X25169Y-37878D02*
X25169Y-37353D01*
X25169Y-37353D02*
X25094Y-37278D01*
X22075Y-17725D02*
X22150Y-17800D01*
X22075Y-17200D02*
X22075Y-17725D01*
X21850Y-16225D02*
X22075Y-16450D01*
X22075Y-16450D02*
X22075Y-17200D01*
X38877Y-15748D02*
X38877Y-26279D01*
X38877Y-26279D02*
X8366Y-26279D01*
X8366Y-8366D02*
X8366Y-26279D01*
X8366Y-8366D02*
X38877Y-8366D01*
X38681Y-15944D02*
X38877Y-15748D01*
X38877Y-15748D02*
X38877Y-8366D01*
G54D10*
G36*
X38244Y-25645D02*
X23990Y-25645D01*
X23990Y-25455D01*
X24016Y-25428D01*
X24064Y-25312D01*
X24065Y-25187D01*
X24017Y-25071D01*
X23928Y-24983D01*
X23812Y-24935D01*
X23687Y-24934D01*
X23571Y-24982D01*
X23483Y-25071D01*
X23435Y-25187D01*
X23434Y-25312D01*
X23482Y-25428D01*
X23510Y-25455D01*
X23510Y-25645D01*
X22465Y-25645D01*
X22465Y-17737D01*
X22417Y-17621D01*
X22328Y-17533D01*
X22315Y-17527D01*
X22315Y-17200D01*
X22315Y-16450D01*
X22296Y-16358D01*
X22244Y-16280D01*
X22165Y-16200D01*
X22165Y-16162D01*
X22117Y-16046D01*
X22028Y-15958D01*
X21912Y-15910D01*
X21787Y-15909D01*
X21671Y-15957D01*
X21583Y-16046D01*
X21535Y-16162D01*
X21534Y-16287D01*
X21582Y-16403D01*
X21639Y-16460D01*
X21112Y-16460D01*
X21060Y-16481D01*
X21021Y-16520D01*
X21000Y-16572D01*
X21000Y-16627D01*
X21000Y-17227D01*
X21021Y-17279D01*
X21060Y-17318D01*
X21112Y-17340D01*
X21167Y-17340D01*
X21767Y-17340D01*
X21819Y-17318D01*
X21835Y-17302D01*
X21835Y-17703D01*
X21813Y-17651D01*
X21689Y-17527D01*
X21527Y-17460D01*
X21352Y-17459D01*
X21191Y-17526D01*
X21067Y-17650D01*
X21000Y-17812D01*
X20999Y-17987D01*
X21066Y-18148D01*
X21190Y-18272D01*
X21352Y-18339D01*
X21527Y-18340D01*
X21688Y-18273D01*
X21812Y-18149D01*
X21879Y-17987D01*
X21879Y-17971D01*
X21882Y-17978D01*
X21971Y-18066D01*
X22087Y-18114D01*
X22212Y-18115D01*
X22328Y-18067D01*
X22416Y-17978D01*
X22464Y-17862D01*
X22465Y-17737D01*
X22465Y-25645D01*
X21880Y-25645D01*
X21880Y-18812D01*
X21813Y-18651D01*
X21689Y-18527D01*
X21527Y-18460D01*
X21352Y-18459D01*
X21191Y-18526D01*
X21067Y-18650D01*
X21000Y-18812D01*
X20999Y-18987D01*
X21066Y-19148D01*
X21190Y-19272D01*
X21352Y-19339D01*
X21527Y-19340D01*
X21688Y-19273D01*
X21812Y-19149D01*
X21879Y-18987D01*
X21880Y-18812D01*
X21880Y-25645D01*
X20886Y-25645D01*
X20886Y-18945D01*
X20880Y-18879D01*
X20880Y-17812D01*
X20880Y-16812D01*
X20813Y-16651D01*
X20689Y-16527D01*
X20527Y-16460D01*
X20352Y-16459D01*
X20191Y-16526D01*
X20067Y-16650D01*
X20000Y-16812D01*
X19999Y-16987D01*
X20066Y-17148D01*
X20190Y-17272D01*
X20352Y-17339D01*
X20527Y-17340D01*
X20688Y-17273D01*
X20812Y-17149D01*
X20879Y-16987D01*
X20880Y-16812D01*
X20880Y-17812D01*
X20813Y-17651D01*
X20689Y-17527D01*
X20527Y-17460D01*
X20352Y-17459D01*
X20191Y-17526D01*
X20067Y-17650D01*
X20000Y-17812D01*
X19999Y-17987D01*
X20066Y-18148D01*
X20190Y-18272D01*
X20352Y-18339D01*
X20527Y-18340D01*
X20688Y-18273D01*
X20812Y-18149D01*
X20879Y-17987D01*
X20880Y-17812D01*
X20880Y-18879D01*
X20869Y-18771D01*
X20834Y-18687D01*
X20771Y-18653D01*
X20686Y-18737D01*
X20686Y-18568D01*
X20652Y-18505D01*
X20485Y-18453D01*
X20311Y-18470D01*
X20227Y-18505D01*
X20193Y-18568D01*
X20440Y-18815D01*
X20686Y-18568D01*
X20686Y-18737D01*
X20524Y-18900D01*
X20771Y-19146D01*
X20834Y-19112D01*
X20886Y-18945D01*
X20886Y-25645D01*
X20715Y-25645D01*
X20715Y-21087D01*
X20686Y-21019D01*
X20686Y-19231D01*
X20440Y-18984D01*
X20355Y-19069D01*
X20355Y-18900D01*
X20108Y-18653D01*
X20045Y-18687D01*
X19993Y-18854D01*
X20010Y-19028D01*
X20045Y-19112D01*
X20108Y-19146D01*
X20355Y-18900D01*
X20355Y-19069D01*
X20193Y-19231D01*
X20227Y-19294D01*
X20394Y-19346D01*
X20568Y-19329D01*
X20652Y-19294D01*
X20686Y-19231D01*
X20686Y-21019D01*
X20667Y-20971D01*
X20578Y-20883D01*
X20462Y-20835D01*
X20337Y-20834D01*
X20221Y-20882D01*
X20133Y-20971D01*
X20085Y-21087D01*
X20084Y-21212D01*
X20132Y-21328D01*
X20165Y-21360D01*
X20165Y-21428D01*
X20129Y-21464D01*
X20110Y-21511D01*
X20090Y-21464D01*
X20055Y-21428D01*
X20055Y-19995D01*
X20036Y-19903D01*
X19984Y-19825D01*
X19355Y-19195D01*
X19355Y-19157D01*
X19307Y-19041D01*
X19218Y-18953D01*
X19102Y-18905D01*
X18977Y-18904D01*
X18861Y-18952D01*
X18773Y-19041D01*
X18725Y-19157D01*
X18725Y-19199D01*
X18642Y-19165D01*
X18517Y-19164D01*
X18401Y-19212D01*
X18313Y-19301D01*
X18265Y-19417D01*
X18265Y-19455D01*
X18124Y-19595D01*
X17270Y-18741D01*
X17570Y-18741D01*
X17621Y-18720D01*
X17652Y-18690D01*
X17719Y-18690D01*
X17746Y-18716D01*
X17862Y-18764D01*
X17987Y-18765D01*
X18103Y-18717D01*
X18191Y-18628D01*
X18239Y-18512D01*
X18240Y-18387D01*
X18192Y-18271D01*
X18103Y-18183D01*
X17987Y-18135D01*
X17862Y-18134D01*
X17746Y-18182D01*
X17719Y-18210D01*
X17661Y-18210D01*
X17661Y-18208D01*
X17625Y-18172D01*
X17625Y-18110D01*
X17625Y-17138D01*
X17669Y-17094D01*
X17721Y-17016D01*
X17740Y-16925D01*
X17740Y-16524D01*
X17721Y-16433D01*
X17721Y-16433D01*
X17700Y-16401D01*
X17669Y-16355D01*
X17665Y-16350D01*
X17665Y-15424D01*
X18124Y-15884D01*
X18124Y-15922D01*
X18172Y-16038D01*
X18261Y-16126D01*
X18377Y-16174D01*
X18502Y-16175D01*
X18618Y-16127D01*
X18706Y-16038D01*
X18754Y-15922D01*
X18755Y-15797D01*
X18707Y-15681D01*
X18618Y-15593D01*
X18502Y-15545D01*
X18464Y-15545D01*
X18060Y-15140D01*
X18060Y-14885D01*
X18086Y-14858D01*
X18134Y-14742D01*
X18135Y-14617D01*
X18087Y-14501D01*
X17998Y-14413D01*
X17882Y-14365D01*
X17757Y-14364D01*
X17665Y-14403D01*
X17665Y-13649D01*
X17849Y-13465D01*
X17887Y-13465D01*
X18003Y-13417D01*
X18091Y-13328D01*
X18139Y-13212D01*
X18140Y-13087D01*
X18092Y-12971D01*
X18003Y-12883D01*
X17887Y-12835D01*
X17762Y-12834D01*
X17646Y-12882D01*
X17558Y-12971D01*
X17510Y-13087D01*
X17510Y-13125D01*
X17255Y-13380D01*
X17203Y-13458D01*
X17185Y-13550D01*
X17185Y-14845D01*
X17065Y-14725D01*
X17065Y-14687D01*
X17017Y-14571D01*
X16990Y-14544D01*
X16990Y-14416D01*
X17020Y-14386D01*
X17042Y-14334D01*
X17042Y-14279D01*
X17042Y-13965D01*
X17020Y-13913D01*
X16985Y-13878D01*
X16985Y-13800D01*
X17006Y-13778D01*
X17054Y-13662D01*
X17055Y-13537D01*
X17007Y-13421D01*
X16918Y-13333D01*
X16802Y-13285D01*
X16677Y-13284D01*
X16561Y-13332D01*
X16473Y-13421D01*
X16425Y-13537D01*
X16424Y-13662D01*
X16472Y-13778D01*
X16505Y-13810D01*
X16505Y-13878D01*
X16469Y-13913D01*
X16450Y-13960D01*
X16430Y-13913D01*
X16395Y-13878D01*
X16395Y-12749D01*
X16472Y-12672D01*
X16614Y-12672D01*
X16666Y-12650D01*
X16705Y-12611D01*
X16725Y-12564D01*
X16744Y-12611D01*
X16783Y-12650D01*
X16785Y-12651D01*
X16785Y-12719D01*
X16758Y-12746D01*
X16710Y-12862D01*
X16709Y-12987D01*
X16757Y-13103D01*
X16846Y-13191D01*
X16962Y-13239D01*
X17087Y-13240D01*
X17203Y-13192D01*
X17291Y-13103D01*
X17339Y-12987D01*
X17340Y-12862D01*
X17292Y-12746D01*
X17265Y-12719D01*
X17265Y-12641D01*
X17295Y-12611D01*
X17317Y-12559D01*
X17317Y-12504D01*
X17317Y-12190D01*
X17295Y-12138D01*
X17256Y-12099D01*
X17204Y-12078D01*
X17149Y-12078D01*
X16835Y-12078D01*
X16783Y-12099D01*
X16744Y-12138D01*
X16725Y-12185D01*
X16705Y-12138D01*
X16670Y-12103D01*
X16670Y-11596D01*
X16714Y-11487D01*
X16715Y-11362D01*
X16667Y-11246D01*
X16578Y-11158D01*
X16462Y-11110D01*
X16337Y-11109D01*
X16221Y-11157D01*
X16133Y-11246D01*
X16085Y-11362D01*
X16084Y-11487D01*
X16132Y-11603D01*
X16190Y-11660D01*
X16190Y-12103D01*
X16154Y-12138D01*
X16133Y-12190D01*
X16133Y-12245D01*
X16133Y-12332D01*
X15985Y-12480D01*
X15933Y-12558D01*
X15915Y-12650D01*
X15915Y-13878D01*
X15879Y-13913D01*
X15858Y-13965D01*
X15858Y-14020D01*
X15858Y-14107D01*
X15760Y-14205D01*
X15708Y-14283D01*
X15690Y-14375D01*
X15690Y-15753D01*
X15654Y-15788D01*
X15633Y-15840D01*
X15633Y-15895D01*
X15633Y-15982D01*
X14893Y-16722D01*
X14841Y-16799D01*
X14823Y-16891D01*
X14823Y-17255D01*
X14787Y-17291D01*
X14766Y-17342D01*
X14766Y-17398D01*
X14766Y-17712D01*
X14787Y-17763D01*
X14826Y-17803D01*
X14878Y-17824D01*
X14934Y-17824D01*
X15248Y-17824D01*
X15299Y-17803D01*
X15338Y-17763D01*
X15358Y-17717D01*
X15377Y-17763D01*
X15416Y-17803D01*
X15468Y-17824D01*
X15524Y-17824D01*
X15610Y-17824D01*
X15940Y-18154D01*
X15933Y-18161D01*
X15885Y-18277D01*
X15884Y-18402D01*
X15932Y-18518D01*
X16021Y-18606D01*
X16137Y-18654D01*
X16262Y-18655D01*
X16378Y-18607D01*
X16466Y-18518D01*
X16498Y-18442D01*
X16498Y-18629D01*
X16519Y-18681D01*
X16559Y-18720D01*
X16600Y-18737D01*
X16625Y-18776D01*
X17931Y-20081D01*
X17931Y-20224D01*
X17952Y-20275D01*
X17992Y-20315D01*
X18043Y-20336D01*
X18099Y-20336D01*
X18413Y-20336D01*
X18464Y-20315D01*
X18504Y-20275D01*
X18523Y-20229D01*
X18542Y-20275D01*
X18578Y-20311D01*
X18578Y-20350D01*
X18533Y-20396D01*
X18485Y-20512D01*
X18484Y-20637D01*
X18532Y-20753D01*
X18621Y-20841D01*
X18737Y-20889D01*
X18862Y-20890D01*
X18978Y-20842D01*
X19066Y-20753D01*
X19114Y-20637D01*
X19115Y-20512D01*
X19067Y-20396D01*
X19058Y-20388D01*
X19058Y-20311D01*
X19094Y-20275D01*
X19115Y-20224D01*
X19115Y-20168D01*
X19115Y-19854D01*
X19094Y-19803D01*
X19054Y-19763D01*
X19003Y-19742D01*
X18947Y-19742D01*
X18763Y-19742D01*
X18846Y-19658D01*
X18894Y-19542D01*
X18894Y-19500D01*
X18977Y-19534D01*
X19015Y-19534D01*
X19575Y-20094D01*
X19575Y-21428D01*
X19539Y-21464D01*
X19518Y-21515D01*
X19518Y-21571D01*
X19518Y-21658D01*
X18724Y-22452D01*
X18672Y-22530D01*
X18653Y-22622D01*
X18653Y-22818D01*
X18621Y-22850D01*
X17734Y-22850D01*
X17642Y-22868D01*
X17564Y-22920D01*
X17017Y-23467D01*
X16958Y-23428D01*
X16866Y-23410D01*
X15050Y-23410D01*
X14958Y-23428D01*
X14880Y-23480D01*
X14649Y-23711D01*
X14597Y-23788D01*
X14579Y-23880D01*
X14579Y-23928D01*
X14543Y-23964D01*
X14522Y-24015D01*
X14522Y-24071D01*
X14522Y-24385D01*
X14543Y-24437D01*
X14582Y-24476D01*
X14603Y-24485D01*
X14474Y-24485D01*
X14196Y-24207D01*
X14196Y-23842D01*
X14232Y-23807D01*
X14253Y-23755D01*
X14253Y-23700D01*
X14253Y-23386D01*
X14232Y-23334D01*
X14192Y-23295D01*
X14141Y-23273D01*
X14085Y-23273D01*
X13771Y-23273D01*
X13720Y-23295D01*
X13680Y-23334D01*
X13661Y-23381D01*
X13642Y-23334D01*
X13606Y-23298D01*
X13606Y-22130D01*
X13837Y-21899D01*
X13980Y-21899D01*
X14031Y-21878D01*
X14071Y-21838D01*
X14090Y-21792D01*
X14109Y-21838D01*
X14149Y-21878D01*
X14200Y-21899D01*
X14256Y-21899D01*
X14570Y-21899D01*
X14621Y-21878D01*
X14661Y-21838D01*
X14682Y-21787D01*
X14682Y-21731D01*
X14682Y-21417D01*
X14661Y-21366D01*
X14621Y-21326D01*
X14615Y-21323D01*
X14615Y-21230D01*
X14641Y-21203D01*
X14689Y-21087D01*
X14690Y-20962D01*
X14642Y-20846D01*
X14553Y-20758D01*
X14437Y-20710D01*
X14312Y-20709D01*
X14196Y-20757D01*
X14108Y-20846D01*
X14060Y-20962D01*
X14059Y-21087D01*
X14107Y-21203D01*
X14135Y-21230D01*
X14135Y-21340D01*
X14109Y-21366D01*
X14090Y-21412D01*
X14071Y-21366D01*
X14035Y-21330D01*
X14035Y-19863D01*
X14243Y-19655D01*
X14385Y-19655D01*
X14437Y-19633D01*
X14476Y-19594D01*
X14496Y-19547D01*
X14515Y-19594D01*
X14551Y-19630D01*
X14551Y-19774D01*
X14525Y-19837D01*
X14524Y-19962D01*
X14572Y-20078D01*
X14661Y-20166D01*
X14777Y-20214D01*
X14902Y-20215D01*
X15018Y-20167D01*
X15106Y-20078D01*
X15154Y-19962D01*
X15155Y-19837D01*
X15107Y-19721D01*
X15031Y-19645D01*
X15031Y-19630D01*
X15066Y-19594D01*
X15088Y-19543D01*
X15088Y-19487D01*
X15088Y-19173D01*
X15066Y-19121D01*
X15027Y-19082D01*
X14975Y-19061D01*
X14920Y-19061D01*
X14606Y-19061D01*
X14554Y-19082D01*
X14515Y-19121D01*
X14496Y-19168D01*
X14476Y-19121D01*
X14441Y-19086D01*
X14441Y-18101D01*
X14422Y-18009D01*
X14370Y-17931D01*
X13754Y-17315D01*
X13787Y-17315D01*
X13903Y-17267D01*
X13991Y-17178D01*
X14039Y-17062D01*
X14040Y-16937D01*
X13992Y-16821D01*
X13903Y-16733D01*
X13812Y-16695D01*
X13814Y-16692D01*
X13836Y-16641D01*
X13836Y-16585D01*
X13836Y-16271D01*
X13814Y-16220D01*
X13775Y-16181D01*
X13723Y-16159D01*
X13668Y-16159D01*
X13354Y-16159D01*
X13302Y-16181D01*
X13263Y-16220D01*
X13244Y-16267D01*
X13224Y-16220D01*
X13185Y-16181D01*
X13133Y-16159D01*
X13078Y-16159D01*
X12774Y-16159D01*
X12715Y-16100D01*
X12715Y-16062D01*
X12667Y-15946D01*
X12578Y-15858D01*
X12545Y-15844D01*
X12589Y-15737D01*
X12590Y-15612D01*
X12542Y-15496D01*
X12527Y-15481D01*
X12527Y-15405D01*
X12562Y-15370D01*
X12584Y-15318D01*
X12584Y-15263D01*
X12584Y-14949D01*
X12562Y-14897D01*
X12523Y-14858D01*
X12471Y-14836D01*
X12416Y-14836D01*
X12102Y-14836D01*
X12050Y-14858D01*
X12011Y-14897D01*
X11992Y-14944D01*
X11972Y-14897D01*
X11933Y-14858D01*
X11881Y-14836D01*
X11826Y-14836D01*
X11739Y-14836D01*
X11192Y-14290D01*
X11237Y-14290D01*
X11353Y-14242D01*
X11441Y-14153D01*
X11489Y-14037D01*
X11490Y-13912D01*
X11442Y-13796D01*
X11353Y-13708D01*
X11237Y-13660D01*
X11199Y-13660D01*
X11151Y-13611D01*
X11151Y-13570D01*
X11151Y-13256D01*
X11129Y-13204D01*
X11090Y-13165D01*
X11038Y-13143D01*
X10983Y-13143D01*
X10695Y-13143D01*
X11489Y-12350D01*
X11555Y-12350D01*
X11590Y-12385D01*
X11617Y-12397D01*
X11533Y-12481D01*
X11485Y-12597D01*
X11484Y-12722D01*
X11532Y-12838D01*
X11621Y-12926D01*
X11737Y-12974D01*
X11862Y-12975D01*
X11978Y-12927D01*
X12005Y-12900D01*
X12180Y-12900D01*
X12271Y-12881D01*
X12349Y-12829D01*
X12586Y-12592D01*
X12638Y-12514D01*
X12657Y-12422D01*
X12657Y-12382D01*
X12692Y-12346D01*
X12714Y-12295D01*
X12714Y-12265D01*
X12769Y-12265D01*
X12796Y-12291D01*
X12912Y-12339D01*
X13037Y-12340D01*
X13153Y-12292D01*
X13241Y-12203D01*
X13272Y-12129D01*
X13282Y-12153D01*
X13371Y-12241D01*
X13487Y-12289D01*
X13612Y-12290D01*
X13728Y-12242D01*
X13816Y-12153D01*
X13864Y-12037D01*
X13864Y-11999D01*
X13972Y-11891D01*
X14244Y-11891D01*
X14295Y-11870D01*
X14335Y-11830D01*
X14354Y-11784D01*
X14373Y-11830D01*
X14413Y-11870D01*
X14464Y-11891D01*
X14520Y-11891D01*
X14834Y-11891D01*
X14885Y-11870D01*
X14925Y-11830D01*
X14946Y-11779D01*
X14946Y-11723D01*
X14946Y-11409D01*
X14925Y-11358D01*
X14889Y-11322D01*
X14889Y-11256D01*
X14916Y-11228D01*
X14964Y-11112D01*
X14965Y-10987D01*
X14917Y-10871D01*
X14828Y-10783D01*
X14712Y-10735D01*
X14587Y-10734D01*
X14471Y-10782D01*
X14383Y-10871D01*
X14335Y-10987D01*
X14334Y-11112D01*
X14382Y-11228D01*
X14409Y-11254D01*
X14409Y-11322D01*
X14373Y-11358D01*
X14354Y-11404D01*
X14335Y-11358D01*
X14295Y-11318D01*
X14244Y-11297D01*
X14188Y-11297D01*
X13874Y-11297D01*
X13823Y-11318D01*
X13787Y-11354D01*
X12005Y-11354D01*
X11913Y-11372D01*
X11835Y-11424D01*
X11680Y-11580D01*
X11628Y-11658D01*
X11610Y-11750D01*
X11610Y-11826D01*
X11590Y-11834D01*
X11555Y-11870D01*
X11389Y-11870D01*
X11297Y-11888D01*
X11220Y-11940D01*
X10094Y-13066D01*
X10042Y-13144D01*
X10039Y-13160D01*
X10027Y-13165D01*
X9988Y-13204D01*
X9967Y-13256D01*
X9967Y-13311D01*
X9967Y-13625D01*
X9988Y-13677D01*
X10027Y-13715D01*
X10042Y-13792D01*
X10094Y-13870D01*
X11400Y-15176D01*
X11400Y-15318D01*
X11421Y-15370D01*
X11460Y-15409D01*
X11512Y-15430D01*
X11567Y-15430D01*
X11881Y-15430D01*
X11933Y-15409D01*
X11972Y-15370D01*
X11992Y-15323D01*
X12011Y-15370D01*
X12047Y-15405D01*
X12047Y-15457D01*
X12008Y-15496D01*
X11960Y-15612D01*
X11960Y-15650D01*
X11790Y-15820D01*
X11738Y-15898D01*
X11720Y-15990D01*
X11720Y-16360D01*
X11738Y-16451D01*
X11790Y-16529D01*
X13480Y-18219D01*
X13480Y-19180D01*
X13310Y-19350D01*
X13258Y-19428D01*
X13240Y-19520D01*
X13240Y-21000D01*
X12870Y-21370D01*
X12818Y-21448D01*
X12800Y-21540D01*
X12800Y-22800D01*
X12710Y-22890D01*
X12658Y-22968D01*
X12640Y-23060D01*
X12640Y-23980D01*
X12658Y-24071D01*
X12710Y-24149D01*
X12970Y-24409D01*
X13016Y-24440D01*
X13048Y-24461D01*
X13048Y-24461D01*
X13140Y-24480D01*
X13790Y-24480D01*
X14205Y-24894D01*
X14283Y-24946D01*
X14375Y-24965D01*
X16375Y-24965D01*
X16466Y-24946D01*
X16544Y-24894D01*
X16774Y-24665D01*
X18050Y-24665D01*
X18141Y-24646D01*
X18219Y-24594D01*
X18974Y-23840D01*
X19800Y-23840D01*
X19891Y-23821D01*
X19969Y-23769D01*
X20269Y-23469D01*
X20321Y-23391D01*
X20340Y-23300D01*
X20340Y-22449D01*
X20574Y-22214D01*
X20626Y-22136D01*
X20645Y-22044D01*
X20645Y-21972D01*
X20680Y-21937D01*
X20702Y-21885D01*
X20702Y-21829D01*
X20702Y-21515D01*
X20680Y-21464D01*
X20645Y-21428D01*
X20645Y-21350D01*
X20666Y-21328D01*
X20714Y-21212D01*
X20715Y-21087D01*
X20715Y-25645D01*
X20570Y-25645D01*
X8999Y-25645D01*
X8999Y-8999D01*
X9153Y-8999D01*
X38244Y-8999D01*
X38244Y-15451D01*
X38117Y-15578D01*
X38065Y-15656D01*
X38047Y-15748D01*
X38047Y-16240D01*
X38065Y-16332D01*
X38117Y-16409D01*
X38244Y-16536D01*
X38244Y-19389D01*
X38244Y-25645D01*
X38244Y-25645D01*
G37*
G54D16*
X38244Y-25645D02*
X23990Y-25645D01*
X23990Y-25455D01*
X24016Y-25428D01*
X24064Y-25312D01*
X24065Y-25187D01*
X24017Y-25071D01*
X23928Y-24983D01*
X23812Y-24935D01*
X23687Y-24934D01*
X23571Y-24982D01*
X23483Y-25071D01*
X23435Y-25187D01*
X23434Y-25312D01*
X23482Y-25428D01*
X23510Y-25455D01*
X23510Y-25645D01*
X22465Y-25645D01*
X22465Y-17737D01*
X22417Y-17621D01*
X22328Y-17533D01*
X22315Y-17527D01*
X22315Y-17200D01*
X22315Y-16450D01*
X22296Y-16358D01*
X22244Y-16280D01*
X22165Y-16200D01*
X22165Y-16162D01*
X22117Y-16046D01*
X22028Y-15958D01*
X21912Y-15910D01*
X21787Y-15909D01*
X21671Y-15957D01*
X21583Y-16046D01*
X21535Y-16162D01*
X21534Y-16287D01*
X21582Y-16403D01*
X21639Y-16460D01*
X21112Y-16460D01*
X21060Y-16481D01*
X21021Y-16520D01*
X21000Y-16572D01*
X21000Y-16627D01*
X21000Y-17227D01*
X21021Y-17279D01*
X21060Y-17318D01*
X21112Y-17340D01*
X21167Y-17340D01*
X21767Y-17340D01*
X21819Y-17318D01*
X21835Y-17302D01*
X21835Y-17703D01*
X21813Y-17651D01*
X21689Y-17527D01*
X21527Y-17460D01*
X21352Y-17459D01*
X21191Y-17526D01*
X21067Y-17650D01*
X21000Y-17812D01*
X20999Y-17987D01*
X21066Y-18148D01*
X21190Y-18272D01*
X21352Y-18339D01*
X21527Y-18340D01*
X21688Y-18273D01*
X21812Y-18149D01*
X21879Y-17987D01*
X21879Y-17971D01*
X21882Y-17978D01*
X21971Y-18066D01*
X22087Y-18114D01*
X22212Y-18115D01*
X22328Y-18067D01*
X22416Y-17978D01*
X22464Y-17862D01*
X22465Y-17737D01*
X22465Y-25645D01*
X21880Y-25645D01*
X21880Y-18812D01*
X21813Y-18651D01*
X21689Y-18527D01*
X21527Y-18460D01*
X21352Y-18459D01*
X21191Y-18526D01*
X21067Y-18650D01*
X21000Y-18812D01*
X20999Y-18987D01*
X21066Y-19148D01*
X21190Y-19272D01*
X21352Y-19339D01*
X21527Y-19340D01*
X21688Y-19273D01*
X21812Y-19149D01*
X21879Y-18987D01*
X21880Y-18812D01*
X21880Y-25645D01*
X20886Y-25645D01*
X20886Y-18945D01*
X20880Y-18879D01*
X20880Y-17812D01*
X20880Y-16812D01*
X20813Y-16651D01*
X20689Y-16527D01*
X20527Y-16460D01*
X20352Y-16459D01*
X20191Y-16526D01*
X20067Y-16650D01*
X20000Y-16812D01*
X19999Y-16987D01*
X20066Y-17148D01*
X20190Y-17272D01*
X20352Y-17339D01*
X20527Y-17340D01*
X20688Y-17273D01*
X20812Y-17149D01*
X20879Y-16987D01*
X20880Y-16812D01*
X20880Y-17812D01*
X20813Y-17651D01*
X20689Y-17527D01*
X20527Y-17460D01*
X20352Y-17459D01*
X20191Y-17526D01*
X20067Y-17650D01*
X20000Y-17812D01*
X19999Y-17987D01*
X20066Y-18148D01*
X20190Y-18272D01*
X20352Y-18339D01*
X20527Y-18340D01*
X20688Y-18273D01*
X20812Y-18149D01*
X20879Y-17987D01*
X20880Y-17812D01*
X20880Y-18879D01*
X20869Y-18771D01*
X20834Y-18687D01*
X20771Y-18653D01*
X20686Y-18737D01*
X20686Y-18568D01*
X20652Y-18505D01*
X20485Y-18453D01*
X20311Y-18470D01*
X20227Y-18505D01*
X20193Y-18568D01*
X20440Y-18815D01*
X20686Y-18568D01*
X20686Y-18737D01*
X20524Y-18900D01*
X20771Y-19146D01*
X20834Y-19112D01*
X20886Y-18945D01*
X20886Y-25645D01*
X20715Y-25645D01*
X20715Y-21087D01*
X20686Y-21019D01*
X20686Y-19231D01*
X20440Y-18984D01*
X20355Y-19069D01*
X20355Y-18900D01*
X20108Y-18653D01*
X20045Y-18687D01*
X19993Y-18854D01*
X20010Y-19028D01*
X20045Y-19112D01*
X20108Y-19146D01*
X20355Y-18900D01*
X20355Y-19069D01*
X20193Y-19231D01*
X20227Y-19294D01*
X20394Y-19346D01*
X20568Y-19329D01*
X20652Y-19294D01*
X20686Y-19231D01*
X20686Y-21019D01*
X20667Y-20971D01*
X20578Y-20883D01*
X20462Y-20835D01*
X20337Y-20834D01*
X20221Y-20882D01*
X20133Y-20971D01*
X20085Y-21087D01*
X20084Y-21212D01*
X20132Y-21328D01*
X20165Y-21360D01*
X20165Y-21428D01*
X20129Y-21464D01*
X20110Y-21511D01*
X20090Y-21464D01*
X20055Y-21428D01*
X20055Y-19995D01*
X20036Y-19903D01*
X19984Y-19825D01*
X19355Y-19195D01*
X19355Y-19157D01*
X19307Y-19041D01*
X19218Y-18953D01*
X19102Y-18905D01*
X18977Y-18904D01*
X18861Y-18952D01*
X18773Y-19041D01*
X18725Y-19157D01*
X18725Y-19199D01*
X18642Y-19165D01*
X18517Y-19164D01*
X18401Y-19212D01*
X18313Y-19301D01*
X18265Y-19417D01*
X18265Y-19455D01*
X18124Y-19595D01*
X17270Y-18741D01*
X17570Y-18741D01*
X17621Y-18720D01*
X17652Y-18690D01*
X17719Y-18690D01*
X17746Y-18716D01*
X17862Y-18764D01*
X17987Y-18765D01*
X18103Y-18717D01*
X18191Y-18628D01*
X18239Y-18512D01*
X18240Y-18387D01*
X18192Y-18271D01*
X18103Y-18183D01*
X17987Y-18135D01*
X17862Y-18134D01*
X17746Y-18182D01*
X17719Y-18210D01*
X17661Y-18210D01*
X17661Y-18208D01*
X17625Y-18172D01*
X17625Y-18110D01*
X17625Y-17138D01*
X17669Y-17094D01*
X17721Y-17016D01*
X17740Y-16925D01*
X17740Y-16524D01*
X17721Y-16433D01*
X17721Y-16433D01*
X17700Y-16401D01*
X17669Y-16355D01*
X17665Y-16350D01*
X17665Y-15424D01*
X18124Y-15884D01*
X18124Y-15922D01*
X18172Y-16038D01*
X18261Y-16126D01*
X18377Y-16174D01*
X18502Y-16175D01*
X18618Y-16127D01*
X18706Y-16038D01*
X18754Y-15922D01*
X18755Y-15797D01*
X18707Y-15681D01*
X18618Y-15593D01*
X18502Y-15545D01*
X18464Y-15545D01*
X18060Y-15140D01*
X18060Y-14885D01*
X18086Y-14858D01*
X18134Y-14742D01*
X18135Y-14617D01*
X18087Y-14501D01*
X17998Y-14413D01*
X17882Y-14365D01*
X17757Y-14364D01*
X17665Y-14403D01*
X17665Y-13649D01*
X17849Y-13465D01*
X17887Y-13465D01*
X18003Y-13417D01*
X18091Y-13328D01*
X18139Y-13212D01*
X18140Y-13087D01*
X18092Y-12971D01*
X18003Y-12883D01*
X17887Y-12835D01*
X17762Y-12834D01*
X17646Y-12882D01*
X17558Y-12971D01*
X17510Y-13087D01*
X17510Y-13125D01*
X17255Y-13380D01*
X17203Y-13458D01*
X17185Y-13550D01*
X17185Y-14845D01*
X17065Y-14725D01*
X17065Y-14687D01*
X17017Y-14571D01*
X16990Y-14544D01*
X16990Y-14416D01*
X17020Y-14386D01*
X17042Y-14334D01*
X17042Y-14279D01*
X17042Y-13965D01*
X17020Y-13913D01*
X16985Y-13878D01*
X16985Y-13800D01*
X17006Y-13778D01*
X17054Y-13662D01*
X17055Y-13537D01*
X17007Y-13421D01*
X16918Y-13333D01*
X16802Y-13285D01*
X16677Y-13284D01*
X16561Y-13332D01*
X16473Y-13421D01*
X16425Y-13537D01*
X16424Y-13662D01*
X16472Y-13778D01*
X16505Y-13810D01*
X16505Y-13878D01*
X16469Y-13913D01*
X16450Y-13960D01*
X16430Y-13913D01*
X16395Y-13878D01*
X16395Y-12749D01*
X16472Y-12672D01*
X16614Y-12672D01*
X16666Y-12650D01*
X16705Y-12611D01*
X16725Y-12564D01*
X16744Y-12611D01*
X16783Y-12650D01*
X16785Y-12651D01*
X16785Y-12719D01*
X16758Y-12746D01*
X16710Y-12862D01*
X16709Y-12987D01*
X16757Y-13103D01*
X16846Y-13191D01*
X16962Y-13239D01*
X17087Y-13240D01*
X17203Y-13192D01*
X17291Y-13103D01*
X17339Y-12987D01*
X17340Y-12862D01*
X17292Y-12746D01*
X17265Y-12719D01*
X17265Y-12641D01*
X17295Y-12611D01*
X17317Y-12559D01*
X17317Y-12504D01*
X17317Y-12190D01*
X17295Y-12138D01*
X17256Y-12099D01*
X17204Y-12078D01*
X17149Y-12078D01*
X16835Y-12078D01*
X16783Y-12099D01*
X16744Y-12138D01*
X16725Y-12185D01*
X16705Y-12138D01*
X16670Y-12103D01*
X16670Y-11596D01*
X16714Y-11487D01*
X16715Y-11362D01*
X16667Y-11246D01*
X16578Y-11158D01*
X16462Y-11110D01*
X16337Y-11109D01*
X16221Y-11157D01*
X16133Y-11246D01*
X16085Y-11362D01*
X16084Y-11487D01*
X16132Y-11603D01*
X16190Y-11660D01*
X16190Y-12103D01*
X16154Y-12138D01*
X16133Y-12190D01*
X16133Y-12245D01*
X16133Y-12332D01*
X15985Y-12480D01*
X15933Y-12558D01*
X15915Y-12650D01*
X15915Y-13878D01*
X15879Y-13913D01*
X15858Y-13965D01*
X15858Y-14020D01*
X15858Y-14107D01*
X15760Y-14205D01*
X15708Y-14283D01*
X15690Y-14375D01*
X15690Y-15753D01*
X15654Y-15788D01*
X15633Y-15840D01*
X15633Y-15895D01*
X15633Y-15982D01*
X14893Y-16722D01*
X14841Y-16799D01*
X14823Y-16891D01*
X14823Y-17255D01*
X14787Y-17291D01*
X14766Y-17342D01*
X14766Y-17398D01*
X14766Y-17712D01*
X14787Y-17763D01*
X14826Y-17803D01*
X14878Y-17824D01*
X14934Y-17824D01*
X15248Y-17824D01*
X15299Y-17803D01*
X15338Y-17763D01*
X15358Y-17717D01*
X15377Y-17763D01*
X15416Y-17803D01*
X15468Y-17824D01*
X15524Y-17824D01*
X15610Y-17824D01*
X15940Y-18154D01*
X15933Y-18161D01*
X15885Y-18277D01*
X15884Y-18402D01*
X15932Y-18518D01*
X16021Y-18606D01*
X16137Y-18654D01*
X16262Y-18655D01*
X16378Y-18607D01*
X16466Y-18518D01*
X16498Y-18442D01*
X16498Y-18629D01*
X16519Y-18681D01*
X16559Y-18720D01*
X16600Y-18737D01*
X16625Y-18776D01*
X17931Y-20081D01*
X17931Y-20224D01*
X17952Y-20275D01*
X17992Y-20315D01*
X18043Y-20336D01*
X18099Y-20336D01*
X18413Y-20336D01*
X18464Y-20315D01*
X18504Y-20275D01*
X18523Y-20229D01*
X18542Y-20275D01*
X18578Y-20311D01*
X18578Y-20350D01*
X18533Y-20396D01*
X18485Y-20512D01*
X18484Y-20637D01*
X18532Y-20753D01*
X18621Y-20841D01*
X18737Y-20889D01*
X18862Y-20890D01*
X18978Y-20842D01*
X19066Y-20753D01*
X19114Y-20637D01*
X19115Y-20512D01*
X19067Y-20396D01*
X19058Y-20388D01*
X19058Y-20311D01*
X19094Y-20275D01*
X19115Y-20224D01*
X19115Y-20168D01*
X19115Y-19854D01*
X19094Y-19803D01*
X19054Y-19763D01*
X19003Y-19742D01*
X18947Y-19742D01*
X18763Y-19742D01*
X18846Y-19658D01*
X18894Y-19542D01*
X18894Y-19500D01*
X18977Y-19534D01*
X19015Y-19534D01*
X19575Y-20094D01*
X19575Y-21428D01*
X19539Y-21464D01*
X19518Y-21515D01*
X19518Y-21571D01*
X19518Y-21658D01*
X18724Y-22452D01*
X18672Y-22530D01*
X18653Y-22622D01*
X18653Y-22818D01*
X18621Y-22850D01*
X17734Y-22850D01*
X17642Y-22868D01*
X17564Y-22920D01*
X17017Y-23467D01*
X16958Y-23428D01*
X16866Y-23410D01*
X15050Y-23410D01*
X14958Y-23428D01*
X14880Y-23480D01*
X14649Y-23711D01*
X14597Y-23788D01*
X14579Y-23880D01*
X14579Y-23928D01*
X14543Y-23964D01*
X14522Y-24015D01*
X14522Y-24071D01*
X14522Y-24385D01*
X14543Y-24437D01*
X14582Y-24476D01*
X14603Y-24485D01*
X14474Y-24485D01*
X14196Y-24207D01*
X14196Y-23842D01*
X14232Y-23807D01*
X14253Y-23755D01*
X14253Y-23700D01*
X14253Y-23386D01*
X14232Y-23334D01*
X14192Y-23295D01*
X14141Y-23273D01*
X14085Y-23273D01*
X13771Y-23273D01*
X13720Y-23295D01*
X13680Y-23334D01*
X13661Y-23381D01*
X13642Y-23334D01*
X13606Y-23298D01*
X13606Y-22130D01*
X13837Y-21899D01*
X13980Y-21899D01*
X14031Y-21878D01*
X14071Y-21838D01*
X14090Y-21792D01*
X14109Y-21838D01*
X14149Y-21878D01*
X14200Y-21899D01*
X14256Y-21899D01*
X14570Y-21899D01*
X14621Y-21878D01*
X14661Y-21838D01*
X14682Y-21787D01*
X14682Y-21731D01*
X14682Y-21417D01*
X14661Y-21366D01*
X14621Y-21326D01*
X14615Y-21323D01*
X14615Y-21230D01*
X14641Y-21203D01*
X14689Y-21087D01*
X14690Y-20962D01*
X14642Y-20846D01*
X14553Y-20758D01*
X14437Y-20710D01*
X14312Y-20709D01*
X14196Y-20757D01*
X14108Y-20846D01*
X14060Y-20962D01*
X14059Y-21087D01*
X14107Y-21203D01*
X14135Y-21230D01*
X14135Y-21340D01*
X14109Y-21366D01*
X14090Y-21412D01*
X14071Y-21366D01*
X14035Y-21330D01*
X14035Y-19863D01*
X14243Y-19655D01*
X14385Y-19655D01*
X14437Y-19633D01*
X14476Y-19594D01*
X14496Y-19547D01*
X14515Y-19594D01*
X14551Y-19630D01*
X14551Y-19774D01*
X14525Y-19837D01*
X14524Y-19962D01*
X14572Y-20078D01*
X14661Y-20166D01*
X14777Y-20214D01*
X14902Y-20215D01*
X15018Y-20167D01*
X15106Y-20078D01*
X15154Y-19962D01*
X15155Y-19837D01*
X15107Y-19721D01*
X15031Y-19645D01*
X15031Y-19630D01*
X15066Y-19594D01*
X15088Y-19543D01*
X15088Y-19487D01*
X15088Y-19173D01*
X15066Y-19121D01*
X15027Y-19082D01*
X14975Y-19061D01*
X14920Y-19061D01*
X14606Y-19061D01*
X14554Y-19082D01*
X14515Y-19121D01*
X14496Y-19168D01*
X14476Y-19121D01*
X14441Y-19086D01*
X14441Y-18101D01*
X14422Y-18009D01*
X14370Y-17931D01*
X13754Y-17315D01*
X13787Y-17315D01*
X13903Y-17267D01*
X13991Y-17178D01*
X14039Y-17062D01*
X14040Y-16937D01*
X13992Y-16821D01*
X13903Y-16733D01*
X13812Y-16695D01*
X13814Y-16692D01*
X13836Y-16641D01*
X13836Y-16585D01*
X13836Y-16271D01*
X13814Y-16220D01*
X13775Y-16181D01*
X13723Y-16159D01*
X13668Y-16159D01*
X13354Y-16159D01*
X13302Y-16181D01*
X13263Y-16220D01*
X13244Y-16267D01*
X13224Y-16220D01*
X13185Y-16181D01*
X13133Y-16159D01*
X13078Y-16159D01*
X12774Y-16159D01*
X12715Y-16100D01*
X12715Y-16062D01*
X12667Y-15946D01*
X12578Y-15858D01*
X12545Y-15844D01*
X12589Y-15737D01*
X12590Y-15612D01*
X12542Y-15496D01*
X12527Y-15481D01*
X12527Y-15405D01*
X12562Y-15370D01*
X12584Y-15318D01*
X12584Y-15263D01*
X12584Y-14949D01*
X12562Y-14897D01*
X12523Y-14858D01*
X12471Y-14836D01*
X12416Y-14836D01*
X12102Y-14836D01*
X12050Y-14858D01*
X12011Y-14897D01*
X11992Y-14944D01*
X11972Y-14897D01*
X11933Y-14858D01*
X11881Y-14836D01*
X11826Y-14836D01*
X11739Y-14836D01*
X11192Y-14290D01*
X11237Y-14290D01*
X11353Y-14242D01*
X11441Y-14153D01*
X11489Y-14037D01*
X11490Y-13912D01*
X11442Y-13796D01*
X11353Y-13708D01*
X11237Y-13660D01*
X11199Y-13660D01*
X11151Y-13611D01*
X11151Y-13570D01*
X11151Y-13256D01*
X11129Y-13204D01*
X11090Y-13165D01*
X11038Y-13143D01*
X10983Y-13143D01*
X10695Y-13143D01*
X11489Y-12350D01*
X11555Y-12350D01*
X11590Y-12385D01*
X11617Y-12397D01*
X11533Y-12481D01*
X11485Y-12597D01*
X11484Y-12722D01*
X11532Y-12838D01*
X11621Y-12926D01*
X11737Y-12974D01*
X11862Y-12975D01*
X11978Y-12927D01*
X12005Y-12900D01*
X12180Y-12900D01*
X12271Y-12881D01*
X12349Y-12829D01*
X12586Y-12592D01*
X12638Y-12514D01*
X12657Y-12422D01*
X12657Y-12382D01*
X12692Y-12346D01*
X12714Y-12295D01*
X12714Y-12265D01*
X12769Y-12265D01*
X12796Y-12291D01*
X12912Y-12339D01*
X13037Y-12340D01*
X13153Y-12292D01*
X13241Y-12203D01*
X13272Y-12129D01*
X13282Y-12153D01*
X13371Y-12241D01*
X13487Y-12289D01*
X13612Y-12290D01*
X13728Y-12242D01*
X13816Y-12153D01*
X13864Y-12037D01*
X13864Y-11999D01*
X13972Y-11891D01*
X14244Y-11891D01*
X14295Y-11870D01*
X14335Y-11830D01*
X14354Y-11784D01*
X14373Y-11830D01*
X14413Y-11870D01*
X14464Y-11891D01*
X14520Y-11891D01*
X14834Y-11891D01*
X14885Y-11870D01*
X14925Y-11830D01*
X14946Y-11779D01*
X14946Y-11723D01*
X14946Y-11409D01*
X14925Y-11358D01*
X14889Y-11322D01*
X14889Y-11256D01*
X14916Y-11228D01*
X14964Y-11112D01*
X14965Y-10987D01*
X14917Y-10871D01*
X14828Y-10783D01*
X14712Y-10735D01*
X14587Y-10734D01*
X14471Y-10782D01*
X14383Y-10871D01*
X14335Y-10987D01*
X14334Y-11112D01*
X14382Y-11228D01*
X14409Y-11254D01*
X14409Y-11322D01*
X14373Y-11358D01*
X14354Y-11404D01*
X14335Y-11358D01*
X14295Y-11318D01*
X14244Y-11297D01*
X14188Y-11297D01*
X13874Y-11297D01*
X13823Y-11318D01*
X13787Y-11354D01*
X12005Y-11354D01*
X11913Y-11372D01*
X11835Y-11424D01*
X11680Y-11580D01*
X11628Y-11658D01*
X11610Y-11750D01*
X11610Y-11826D01*
X11590Y-11834D01*
X11555Y-11870D01*
X11389Y-11870D01*
X11297Y-11888D01*
X11220Y-11940D01*
X10094Y-13066D01*
X10042Y-13144D01*
X10039Y-13160D01*
X10027Y-13165D01*
X9988Y-13204D01*
X9967Y-13256D01*
X9967Y-13311D01*
X9967Y-13625D01*
X9988Y-13677D01*
X10027Y-13715D01*
X10042Y-13792D01*
X10094Y-13870D01*
X11400Y-15176D01*
X11400Y-15318D01*
X11421Y-15370D01*
X11460Y-15409D01*
X11512Y-15430D01*
X11567Y-15430D01*
X11881Y-15430D01*
X11933Y-15409D01*
X11972Y-15370D01*
X11992Y-15323D01*
X12011Y-15370D01*
X12047Y-15405D01*
X12047Y-15457D01*
X12008Y-15496D01*
X11960Y-15612D01*
X11960Y-15650D01*
X11790Y-15820D01*
X11738Y-15898D01*
X11720Y-15990D01*
X11720Y-16360D01*
X11738Y-16451D01*
X11790Y-16529D01*
X13480Y-18219D01*
X13480Y-19180D01*
X13310Y-19350D01*
X13258Y-19428D01*
X13240Y-19520D01*
X13240Y-21000D01*
X12870Y-21370D01*
X12818Y-21448D01*
X12800Y-21540D01*
X12800Y-22800D01*
X12710Y-22890D01*
X12658Y-22968D01*
X12640Y-23060D01*
X12640Y-23980D01*
X12658Y-24071D01*
X12710Y-24149D01*
X12970Y-24409D01*
X13016Y-24440D01*
X13048Y-24461D01*
X13048Y-24461D01*
X13140Y-24480D01*
X13790Y-24480D01*
X14205Y-24894D01*
X14283Y-24946D01*
X14375Y-24965D01*
X16375Y-24965D01*
X16466Y-24946D01*
X16544Y-24894D01*
X16774Y-24665D01*
X18050Y-24665D01*
X18141Y-24646D01*
X18219Y-24594D01*
X18974Y-23840D01*
X19800Y-23840D01*
X19891Y-23821D01*
X19969Y-23769D01*
X20269Y-23469D01*
X20321Y-23391D01*
X20340Y-23300D01*
X20340Y-22449D01*
X20574Y-22214D01*
X20626Y-22136D01*
X20645Y-22044D01*
X20645Y-21972D01*
X20680Y-21937D01*
X20702Y-21885D01*
X20702Y-21829D01*
X20702Y-21515D01*
X20680Y-21464D01*
X20645Y-21428D01*
X20645Y-21350D01*
X20666Y-21328D01*
X20714Y-21212D01*
X20715Y-21087D01*
X20715Y-25645D01*
X20570Y-25645D01*
X8999Y-25645D01*
X8999Y-8999D01*
X9153Y-8999D01*
X38244Y-8999D01*
X38244Y-15451D01*
X38117Y-15578D01*
X38065Y-15656D01*
X38047Y-15748D01*
X38047Y-16240D01*
X38065Y-16332D01*
X38117Y-16409D01*
X38244Y-16536D01*
X38244Y-19389D01*
X38244Y-25645D01*
G54D10*
G36*
X8999Y-29432D02*
X23254Y-29432D01*
X23254Y-29623D01*
X23227Y-29650D01*
X23179Y-29765D01*
X23179Y-29891D01*
X23226Y-30006D01*
X23315Y-30095D01*
X23431Y-30143D01*
X23556Y-30143D01*
X23672Y-30095D01*
X23760Y-30007D01*
X23809Y-29891D01*
X23809Y-29766D01*
X23761Y-29650D01*
X23734Y-29623D01*
X23734Y-29432D01*
X24779Y-29432D01*
X24779Y-37341D01*
X24826Y-37456D01*
X24915Y-37545D01*
X24929Y-37551D01*
X24929Y-37878D01*
X24929Y-38628D01*
X24947Y-38720D01*
X24999Y-38798D01*
X25079Y-38878D01*
X25079Y-38916D01*
X25126Y-39031D01*
X25215Y-39120D01*
X25331Y-39168D01*
X25456Y-39168D01*
X25572Y-39120D01*
X25660Y-39032D01*
X25709Y-38916D01*
X25709Y-38791D01*
X25661Y-38675D01*
X25604Y-38618D01*
X26131Y-38618D01*
X26183Y-38597D01*
X26222Y-38558D01*
X26244Y-38506D01*
X26244Y-38450D01*
X26244Y-37850D01*
X26222Y-37799D01*
X26183Y-37760D01*
X26131Y-37738D01*
X26076Y-37738D01*
X25476Y-37738D01*
X25424Y-37760D01*
X25409Y-37775D01*
X25409Y-37374D01*
X25430Y-37427D01*
X25554Y-37551D01*
X25716Y-37618D01*
X25891Y-37618D01*
X26053Y-37551D01*
X26176Y-37428D01*
X26244Y-37266D01*
X26244Y-37091D01*
X26177Y-36929D01*
X26053Y-36805D01*
X25892Y-36738D01*
X25716Y-36738D01*
X25555Y-36805D01*
X25431Y-36929D01*
X25364Y-37090D01*
X25364Y-37107D01*
X25361Y-37100D01*
X25272Y-37011D01*
X25157Y-36963D01*
X25031Y-36963D01*
X24915Y-37011D01*
X24827Y-37100D01*
X24779Y-37215D01*
X24779Y-37341D01*
X24779Y-29432D01*
X25364Y-29432D01*
X25364Y-36265D01*
X25430Y-36427D01*
X25554Y-36551D01*
X25716Y-36618D01*
X25891Y-36618D01*
X26053Y-36551D01*
X26176Y-36428D01*
X26244Y-36266D01*
X26244Y-36091D01*
X26177Y-35929D01*
X26053Y-35805D01*
X25892Y-35738D01*
X25716Y-35738D01*
X25555Y-35805D01*
X25431Y-35929D01*
X25364Y-36090D01*
X25364Y-36265D01*
X25364Y-29432D01*
X26357Y-29432D01*
X26357Y-36133D01*
X26364Y-36198D01*
X26364Y-37265D01*
X26364Y-38265D01*
X26430Y-38427D01*
X26554Y-38551D01*
X26716Y-38618D01*
X26891Y-38618D01*
X27053Y-38551D01*
X27176Y-38428D01*
X27244Y-38266D01*
X27244Y-38091D01*
X27177Y-37929D01*
X27053Y-37805D01*
X26892Y-37738D01*
X26716Y-37738D01*
X26555Y-37805D01*
X26431Y-37929D01*
X26364Y-38090D01*
X26364Y-38265D01*
X26364Y-37265D01*
X26430Y-37427D01*
X26554Y-37551D01*
X26716Y-37618D01*
X26891Y-37618D01*
X27053Y-37551D01*
X27176Y-37428D01*
X27244Y-37266D01*
X27244Y-37091D01*
X27177Y-36929D01*
X27053Y-36805D01*
X26892Y-36738D01*
X26716Y-36738D01*
X26555Y-36805D01*
X26431Y-36929D01*
X26364Y-37090D01*
X26364Y-37265D01*
X26364Y-36198D01*
X26374Y-36307D01*
X26409Y-36391D01*
X26472Y-36425D01*
X26557Y-36340D01*
X26557Y-36510D01*
X26591Y-36573D01*
X26758Y-36625D01*
X26932Y-36608D01*
X27016Y-36573D01*
X27051Y-36510D01*
X26804Y-36263D01*
X26557Y-36510D01*
X26557Y-36340D01*
X26719Y-36178D01*
X26472Y-35931D01*
X26409Y-35965D01*
X26357Y-36133D01*
X26357Y-29432D01*
X26529Y-29432D01*
X26529Y-33991D01*
X26557Y-34059D01*
X26557Y-35846D01*
X26804Y-36093D01*
X26888Y-36009D01*
X26888Y-36178D01*
X27135Y-36425D01*
X27199Y-36391D01*
X27250Y-36224D01*
X27233Y-36049D01*
X27199Y-35965D01*
X27135Y-35931D01*
X26888Y-36178D01*
X26888Y-36009D01*
X27051Y-35846D01*
X27016Y-35783D01*
X26849Y-35732D01*
X26675Y-35749D01*
X26591Y-35783D01*
X26557Y-35846D01*
X26557Y-34059D01*
X26576Y-34106D01*
X26665Y-34195D01*
X26781Y-34243D01*
X26906Y-34243D01*
X27022Y-34195D01*
X27110Y-34107D01*
X27159Y-33991D01*
X27159Y-33866D01*
X27111Y-33750D01*
X27078Y-33718D01*
X27078Y-33649D01*
X27114Y-33614D01*
X27133Y-33567D01*
X27153Y-33614D01*
X27188Y-33649D01*
X27188Y-35083D01*
X27207Y-35175D01*
X27259Y-35253D01*
X27889Y-35883D01*
X27889Y-35921D01*
X27936Y-36036D01*
X28025Y-36125D01*
X28141Y-36173D01*
X28266Y-36173D01*
X28382Y-36125D01*
X28470Y-36037D01*
X28519Y-35921D01*
X28519Y-35879D01*
X28601Y-35913D01*
X28726Y-35913D01*
X28842Y-35865D01*
X28930Y-35777D01*
X28979Y-35661D01*
X28979Y-35623D01*
X29119Y-35482D01*
X29973Y-36336D01*
X29673Y-36336D01*
X29622Y-36358D01*
X29591Y-36388D01*
X29524Y-36388D01*
X29497Y-36361D01*
X29382Y-36313D01*
X29256Y-36313D01*
X29140Y-36361D01*
X29052Y-36450D01*
X29004Y-36565D01*
X29004Y-36691D01*
X29051Y-36806D01*
X29140Y-36895D01*
X29256Y-36943D01*
X29381Y-36943D01*
X29497Y-36895D01*
X29524Y-36868D01*
X29582Y-36868D01*
X29582Y-36870D01*
X29618Y-36905D01*
X29618Y-36968D01*
X29618Y-37939D01*
X29574Y-37984D01*
X29522Y-38061D01*
X29504Y-38153D01*
X29504Y-38553D01*
X29522Y-38645D01*
X29522Y-38645D01*
X29543Y-38676D01*
X29574Y-38723D01*
X29579Y-38728D01*
X29579Y-39654D01*
X29119Y-39194D01*
X29119Y-39156D01*
X29071Y-39040D01*
X28982Y-38951D01*
X28867Y-38903D01*
X28741Y-38903D01*
X28625Y-38951D01*
X28537Y-39040D01*
X28489Y-39155D01*
X28489Y-39281D01*
X28536Y-39396D01*
X28625Y-39485D01*
X28741Y-39533D01*
X28779Y-39533D01*
X29184Y-39938D01*
X29184Y-40193D01*
X29157Y-40220D01*
X29109Y-40335D01*
X29109Y-40461D01*
X29156Y-40576D01*
X29245Y-40665D01*
X29361Y-40713D01*
X29486Y-40713D01*
X29579Y-40675D01*
X29579Y-41429D01*
X29394Y-41613D01*
X29356Y-41613D01*
X29240Y-41661D01*
X29152Y-41750D01*
X29104Y-41865D01*
X29104Y-41991D01*
X29151Y-42106D01*
X29240Y-42195D01*
X29356Y-42243D01*
X29481Y-42243D01*
X29597Y-42195D01*
X29685Y-42107D01*
X29734Y-41991D01*
X29734Y-41953D01*
X29988Y-41698D01*
X30040Y-41620D01*
X30059Y-41528D01*
X30059Y-40233D01*
X30179Y-40353D01*
X30179Y-40391D01*
X30226Y-40506D01*
X30254Y-40534D01*
X30254Y-40661D01*
X30223Y-40692D01*
X30202Y-40743D01*
X30202Y-40799D01*
X30202Y-41113D01*
X30223Y-41165D01*
X30259Y-41200D01*
X30259Y-41278D01*
X30237Y-41300D01*
X30189Y-41415D01*
X30189Y-41541D01*
X30236Y-41656D01*
X30325Y-41745D01*
X30441Y-41793D01*
X30566Y-41793D01*
X30682Y-41745D01*
X30770Y-41657D01*
X30819Y-41541D01*
X30819Y-41416D01*
X30771Y-41300D01*
X30739Y-41268D01*
X30739Y-41200D01*
X30774Y-41165D01*
X30794Y-41118D01*
X30813Y-41165D01*
X30849Y-41200D01*
X30849Y-42329D01*
X30771Y-42406D01*
X30629Y-42406D01*
X30577Y-42428D01*
X30538Y-42467D01*
X30519Y-42514D01*
X30499Y-42467D01*
X30460Y-42428D01*
X30459Y-42427D01*
X30459Y-42359D01*
X30485Y-42332D01*
X30534Y-42216D01*
X30534Y-42091D01*
X30486Y-41975D01*
X30397Y-41886D01*
X30282Y-41838D01*
X30156Y-41838D01*
X30040Y-41886D01*
X29952Y-41975D01*
X29904Y-42090D01*
X29904Y-42216D01*
X29951Y-42331D01*
X29979Y-42359D01*
X29979Y-42436D01*
X29948Y-42467D01*
X29927Y-42518D01*
X29927Y-42574D01*
X29927Y-42888D01*
X29948Y-42940D01*
X29987Y-42979D01*
X30039Y-43000D01*
X30094Y-43000D01*
X30408Y-43000D01*
X30460Y-42979D01*
X30499Y-42940D01*
X30519Y-42893D01*
X30538Y-42940D01*
X30574Y-42975D01*
X30574Y-43482D01*
X30529Y-43590D01*
X30529Y-43716D01*
X30576Y-43831D01*
X30665Y-43920D01*
X30781Y-43968D01*
X30906Y-43968D01*
X31022Y-43920D01*
X31110Y-43832D01*
X31159Y-43716D01*
X31159Y-43591D01*
X31111Y-43475D01*
X31054Y-43418D01*
X31054Y-42975D01*
X31089Y-42940D01*
X31111Y-42888D01*
X31111Y-42832D01*
X31111Y-42746D01*
X31258Y-42598D01*
X31310Y-42520D01*
X31329Y-42428D01*
X31329Y-41200D01*
X31364Y-41165D01*
X31386Y-41113D01*
X31386Y-41057D01*
X31386Y-40971D01*
X31483Y-40873D01*
X31535Y-40795D01*
X31554Y-40703D01*
X31554Y-39325D01*
X31589Y-39290D01*
X31611Y-39238D01*
X31611Y-39182D01*
X31611Y-39096D01*
X32350Y-38356D01*
X32402Y-38278D01*
X32420Y-38187D01*
X32420Y-37823D01*
X32456Y-37787D01*
X32477Y-37736D01*
X32477Y-37680D01*
X32477Y-37366D01*
X32456Y-37314D01*
X32417Y-37275D01*
X32365Y-37254D01*
X32309Y-37254D01*
X31995Y-37254D01*
X31944Y-37275D01*
X31905Y-37314D01*
X31885Y-37361D01*
X31866Y-37314D01*
X31827Y-37275D01*
X31775Y-37254D01*
X31719Y-37254D01*
X31633Y-37254D01*
X31303Y-36924D01*
X31310Y-36917D01*
X31359Y-36801D01*
X31359Y-36676D01*
X31311Y-36560D01*
X31222Y-36471D01*
X31107Y-36423D01*
X30981Y-36423D01*
X30865Y-36471D01*
X30777Y-36560D01*
X30745Y-36636D01*
X30745Y-36449D01*
X30724Y-36397D01*
X30684Y-36358D01*
X30643Y-36341D01*
X30618Y-36302D01*
X29312Y-34996D01*
X29312Y-34854D01*
X29291Y-34803D01*
X29251Y-34763D01*
X29200Y-34742D01*
X29144Y-34742D01*
X28830Y-34742D01*
X28779Y-34763D01*
X28739Y-34803D01*
X28720Y-34849D01*
X28701Y-34803D01*
X28665Y-34767D01*
X28665Y-34727D01*
X28710Y-34682D01*
X28759Y-34566D01*
X28759Y-34441D01*
X28711Y-34325D01*
X28622Y-34236D01*
X28507Y-34188D01*
X28381Y-34188D01*
X28265Y-34236D01*
X28177Y-34325D01*
X28129Y-34440D01*
X28129Y-34566D01*
X28176Y-34681D01*
X28185Y-34690D01*
X28185Y-34767D01*
X28149Y-34803D01*
X28128Y-34854D01*
X28128Y-34910D01*
X28128Y-35224D01*
X28149Y-35275D01*
X28189Y-35315D01*
X28240Y-35336D01*
X28296Y-35336D01*
X28481Y-35336D01*
X28397Y-35420D01*
X28349Y-35535D01*
X28349Y-35577D01*
X28267Y-35543D01*
X28228Y-35543D01*
X27668Y-34984D01*
X27668Y-33649D01*
X27704Y-33614D01*
X27725Y-33562D01*
X27725Y-33507D01*
X27725Y-33420D01*
X28519Y-32626D01*
X28571Y-32548D01*
X28590Y-32456D01*
X28590Y-32260D01*
X28622Y-32228D01*
X29509Y-32228D01*
X29601Y-32209D01*
X29679Y-32157D01*
X30226Y-31610D01*
X30285Y-31650D01*
X30377Y-31668D01*
X32194Y-31668D01*
X32285Y-31650D01*
X32363Y-31598D01*
X32594Y-31367D01*
X32646Y-31289D01*
X32664Y-31197D01*
X32664Y-31149D01*
X32700Y-31114D01*
X32721Y-31062D01*
X32721Y-31007D01*
X32721Y-30693D01*
X32700Y-30641D01*
X32661Y-30602D01*
X32640Y-30593D01*
X32769Y-30593D01*
X33047Y-30871D01*
X33047Y-31235D01*
X33011Y-31271D01*
X32990Y-31323D01*
X32990Y-31378D01*
X32990Y-31692D01*
X33011Y-31744D01*
X33051Y-31783D01*
X33102Y-31804D01*
X33158Y-31804D01*
X33472Y-31804D01*
X33523Y-31783D01*
X33563Y-31744D01*
X33582Y-31697D01*
X33601Y-31744D01*
X33637Y-31779D01*
X33637Y-32947D01*
X33406Y-33179D01*
X33263Y-33179D01*
X33212Y-33200D01*
X33172Y-33240D01*
X33153Y-33286D01*
X33134Y-33240D01*
X33094Y-33200D01*
X33043Y-33179D01*
X32987Y-33179D01*
X32673Y-33179D01*
X32622Y-33200D01*
X32582Y-33240D01*
X32561Y-33291D01*
X32561Y-33347D01*
X32561Y-33661D01*
X32582Y-33712D01*
X32622Y-33752D01*
X32629Y-33754D01*
X32629Y-33848D01*
X32602Y-33875D01*
X32554Y-33990D01*
X32554Y-34116D01*
X32601Y-34231D01*
X32690Y-34320D01*
X32806Y-34368D01*
X32931Y-34368D01*
X33047Y-34320D01*
X33135Y-34232D01*
X33184Y-34116D01*
X33184Y-33991D01*
X33136Y-33875D01*
X33109Y-33848D01*
X33109Y-33737D01*
X33134Y-33712D01*
X33153Y-33666D01*
X33172Y-33712D01*
X33208Y-33748D01*
X33208Y-35215D01*
X33000Y-35423D01*
X32858Y-35423D01*
X32806Y-35444D01*
X32767Y-35484D01*
X32748Y-35530D01*
X32728Y-35484D01*
X32693Y-35448D01*
X32693Y-35304D01*
X32719Y-35241D01*
X32719Y-35116D01*
X32671Y-35000D01*
X32582Y-34911D01*
X32467Y-34863D01*
X32341Y-34863D01*
X32225Y-34911D01*
X32137Y-35000D01*
X32089Y-35115D01*
X32089Y-35241D01*
X32136Y-35356D01*
X32213Y-35433D01*
X32213Y-35448D01*
X32177Y-35484D01*
X32156Y-35535D01*
X32156Y-35591D01*
X32156Y-35905D01*
X32177Y-35956D01*
X32216Y-35996D01*
X32268Y-36017D01*
X32323Y-36017D01*
X32637Y-36017D01*
X32689Y-35996D01*
X32728Y-35956D01*
X32748Y-35910D01*
X32767Y-35956D01*
X32803Y-35992D01*
X32803Y-36977D01*
X32821Y-37069D01*
X32873Y-37147D01*
X33489Y-37763D01*
X33456Y-37763D01*
X33340Y-37811D01*
X33252Y-37900D01*
X33204Y-38015D01*
X33204Y-38141D01*
X33251Y-38256D01*
X33340Y-38345D01*
X33431Y-38383D01*
X33429Y-38385D01*
X33408Y-38437D01*
X33408Y-38492D01*
X33408Y-38806D01*
X33429Y-38858D01*
X33468Y-38897D01*
X33520Y-38919D01*
X33575Y-38919D01*
X33889Y-38919D01*
X33941Y-38897D01*
X33980Y-38858D01*
X34000Y-38811D01*
X34019Y-38858D01*
X34058Y-38897D01*
X34110Y-38919D01*
X34165Y-38919D01*
X34469Y-38919D01*
X34529Y-38978D01*
X34529Y-39016D01*
X34576Y-39131D01*
X34665Y-39220D01*
X34698Y-39234D01*
X34654Y-39340D01*
X34654Y-39466D01*
X34701Y-39581D01*
X34716Y-39597D01*
X34716Y-39672D01*
X34681Y-39708D01*
X34659Y-39760D01*
X34659Y-39815D01*
X34659Y-40129D01*
X34681Y-40181D01*
X34720Y-40220D01*
X34772Y-40241D01*
X34827Y-40241D01*
X35141Y-40241D01*
X35193Y-40220D01*
X35232Y-40181D01*
X35251Y-40134D01*
X35271Y-40181D01*
X35310Y-40220D01*
X35362Y-40241D01*
X35417Y-40241D01*
X35504Y-40241D01*
X36051Y-40788D01*
X36006Y-40788D01*
X35890Y-40836D01*
X35802Y-40925D01*
X35754Y-41040D01*
X35754Y-41166D01*
X35801Y-41281D01*
X35890Y-41370D01*
X36006Y-41418D01*
X36044Y-41418D01*
X36093Y-41467D01*
X36093Y-41508D01*
X36093Y-41822D01*
X36114Y-41874D01*
X36153Y-41913D01*
X36205Y-41934D01*
X36260Y-41934D01*
X36548Y-41934D01*
X35754Y-42728D01*
X35689Y-42728D01*
X35653Y-42692D01*
X35626Y-42681D01*
X35710Y-42597D01*
X35759Y-42481D01*
X35759Y-42356D01*
X35711Y-42240D01*
X35622Y-42151D01*
X35507Y-42103D01*
X35381Y-42103D01*
X35265Y-42151D01*
X35238Y-42178D01*
X35064Y-42178D01*
X34972Y-42197D01*
X34894Y-42249D01*
X34657Y-42486D01*
X34605Y-42563D01*
X34587Y-42655D01*
X34587Y-42696D01*
X34551Y-42732D01*
X34530Y-42783D01*
X34530Y-42813D01*
X34474Y-42813D01*
X34447Y-42786D01*
X34332Y-42738D01*
X34206Y-42738D01*
X34090Y-42786D01*
X34002Y-42875D01*
X33971Y-42949D01*
X33961Y-42925D01*
X33872Y-42836D01*
X33757Y-42788D01*
X33631Y-42788D01*
X33515Y-42836D01*
X33427Y-42925D01*
X33379Y-43040D01*
X33379Y-43079D01*
X33271Y-43187D01*
X32999Y-43187D01*
X32948Y-43208D01*
X32909Y-43247D01*
X32889Y-43294D01*
X32870Y-43247D01*
X32831Y-43208D01*
X32779Y-43187D01*
X32723Y-43187D01*
X32409Y-43187D01*
X32358Y-43208D01*
X32319Y-43247D01*
X32297Y-43299D01*
X32297Y-43355D01*
X32297Y-43669D01*
X32319Y-43720D01*
X32354Y-43756D01*
X32354Y-43822D01*
X32327Y-43850D01*
X32279Y-43965D01*
X32279Y-44091D01*
X32326Y-44206D01*
X32415Y-44295D01*
X32531Y-44343D01*
X32656Y-44343D01*
X32772Y-44295D01*
X32860Y-44207D01*
X32909Y-44091D01*
X32909Y-43966D01*
X32861Y-43850D01*
X32834Y-43823D01*
X32834Y-43756D01*
X32870Y-43720D01*
X32889Y-43673D01*
X32909Y-43720D01*
X32948Y-43759D01*
X32999Y-43781D01*
X33055Y-43781D01*
X33369Y-43781D01*
X33421Y-43759D01*
X33456Y-43724D01*
X35238Y-43724D01*
X35330Y-43705D01*
X35408Y-43653D01*
X35563Y-43498D01*
X35615Y-43420D01*
X35634Y-43328D01*
X35634Y-43252D01*
X35653Y-43244D01*
X35689Y-43208D01*
X35854Y-43208D01*
X35946Y-43190D01*
X36024Y-43138D01*
X37149Y-42012D01*
X37201Y-41934D01*
X37205Y-41918D01*
X37216Y-41913D01*
X37255Y-41874D01*
X37277Y-41822D01*
X37277Y-41766D01*
X37277Y-41452D01*
X37255Y-41401D01*
X37217Y-41362D01*
X37201Y-41286D01*
X37149Y-41208D01*
X35843Y-39902D01*
X35843Y-39760D01*
X35822Y-39708D01*
X35783Y-39669D01*
X35731Y-39647D01*
X35676Y-39647D01*
X35362Y-39647D01*
X35310Y-39669D01*
X35271Y-39708D01*
X35251Y-39755D01*
X35232Y-39708D01*
X35196Y-39672D01*
X35196Y-39621D01*
X35235Y-39582D01*
X35284Y-39466D01*
X35284Y-39428D01*
X35453Y-39258D01*
X35505Y-39180D01*
X35524Y-39088D01*
X35524Y-38718D01*
X35505Y-38626D01*
X35453Y-38549D01*
X33764Y-36859D01*
X33764Y-35898D01*
X33933Y-35728D01*
X33985Y-35650D01*
X34004Y-35558D01*
X34004Y-34078D01*
X34373Y-33708D01*
X34425Y-33630D01*
X34444Y-33538D01*
X34444Y-32278D01*
X34533Y-32188D01*
X34585Y-32110D01*
X34604Y-32018D01*
X34604Y-31098D01*
X34585Y-31006D01*
X34533Y-30929D01*
X34273Y-30669D01*
X34227Y-30637D01*
X34195Y-30617D01*
X34195Y-30617D01*
X34104Y-30598D01*
X33453Y-30598D01*
X33038Y-30184D01*
X32960Y-30132D01*
X32869Y-30113D01*
X30869Y-30113D01*
X30777Y-30132D01*
X30699Y-30184D01*
X30469Y-30413D01*
X29194Y-30413D01*
X29102Y-30432D01*
X29024Y-30484D01*
X28269Y-31238D01*
X27444Y-31238D01*
X27352Y-31257D01*
X27274Y-31309D01*
X26974Y-31609D01*
X26922Y-31686D01*
X26904Y-31778D01*
X26904Y-32629D01*
X26669Y-32864D01*
X26617Y-32942D01*
X26598Y-33033D01*
X26598Y-33105D01*
X26563Y-33141D01*
X26541Y-33193D01*
X26541Y-33248D01*
X26541Y-33562D01*
X26563Y-33614D01*
X26598Y-33649D01*
X26598Y-33728D01*
X26577Y-33750D01*
X26529Y-33865D01*
X26529Y-33991D01*
X26529Y-29432D01*
X26673Y-29432D01*
X38244Y-29432D01*
X38244Y-46078D01*
X38090Y-46078D01*
X8999Y-46078D01*
X8999Y-39626D01*
X9126Y-39500D01*
X9178Y-39422D01*
X9196Y-39330D01*
X9196Y-38838D01*
X9178Y-38746D01*
X9126Y-38668D01*
X8999Y-38542D01*
X8999Y-35688D01*
X8999Y-29432D01*
X8999Y-29432D01*
G37*
G54D16*
X8999Y-29432D02*
X23254Y-29432D01*
X23254Y-29623D01*
X23227Y-29650D01*
X23179Y-29765D01*
X23179Y-29891D01*
X23226Y-30006D01*
X23315Y-30095D01*
X23431Y-30143D01*
X23556Y-30143D01*
X23672Y-30095D01*
X23760Y-30007D01*
X23809Y-29891D01*
X23809Y-29766D01*
X23761Y-29650D01*
X23734Y-29623D01*
X23734Y-29432D01*
X24779Y-29432D01*
X24779Y-37341D01*
X24826Y-37456D01*
X24915Y-37545D01*
X24929Y-37551D01*
X24929Y-37878D01*
X24929Y-38628D01*
X24947Y-38720D01*
X24999Y-38798D01*
X25079Y-38878D01*
X25079Y-38916D01*
X25126Y-39031D01*
X25215Y-39120D01*
X25331Y-39168D01*
X25456Y-39168D01*
X25572Y-39120D01*
X25660Y-39032D01*
X25709Y-38916D01*
X25709Y-38791D01*
X25661Y-38675D01*
X25604Y-38618D01*
X26131Y-38618D01*
X26183Y-38597D01*
X26222Y-38558D01*
X26244Y-38506D01*
X26244Y-38450D01*
X26244Y-37850D01*
X26222Y-37799D01*
X26183Y-37760D01*
X26131Y-37738D01*
X26076Y-37738D01*
X25476Y-37738D01*
X25424Y-37760D01*
X25409Y-37775D01*
X25409Y-37374D01*
X25430Y-37427D01*
X25554Y-37551D01*
X25716Y-37618D01*
X25891Y-37618D01*
X26053Y-37551D01*
X26176Y-37428D01*
X26244Y-37266D01*
X26244Y-37091D01*
X26177Y-36929D01*
X26053Y-36805D01*
X25892Y-36738D01*
X25716Y-36738D01*
X25555Y-36805D01*
X25431Y-36929D01*
X25364Y-37090D01*
X25364Y-37107D01*
X25361Y-37100D01*
X25272Y-37011D01*
X25157Y-36963D01*
X25031Y-36963D01*
X24915Y-37011D01*
X24827Y-37100D01*
X24779Y-37215D01*
X24779Y-37341D01*
X24779Y-29432D01*
X25364Y-29432D01*
X25364Y-36265D01*
X25430Y-36427D01*
X25554Y-36551D01*
X25716Y-36618D01*
X25891Y-36618D01*
X26053Y-36551D01*
X26176Y-36428D01*
X26244Y-36266D01*
X26244Y-36091D01*
X26177Y-35929D01*
X26053Y-35805D01*
X25892Y-35738D01*
X25716Y-35738D01*
X25555Y-35805D01*
X25431Y-35929D01*
X25364Y-36090D01*
X25364Y-36265D01*
X25364Y-29432D01*
X26357Y-29432D01*
X26357Y-36133D01*
X26364Y-36198D01*
X26364Y-37265D01*
X26364Y-38265D01*
X26430Y-38427D01*
X26554Y-38551D01*
X26716Y-38618D01*
X26891Y-38618D01*
X27053Y-38551D01*
X27176Y-38428D01*
X27244Y-38266D01*
X27244Y-38091D01*
X27177Y-37929D01*
X27053Y-37805D01*
X26892Y-37738D01*
X26716Y-37738D01*
X26555Y-37805D01*
X26431Y-37929D01*
X26364Y-38090D01*
X26364Y-38265D01*
X26364Y-37265D01*
X26430Y-37427D01*
X26554Y-37551D01*
X26716Y-37618D01*
X26891Y-37618D01*
X27053Y-37551D01*
X27176Y-37428D01*
X27244Y-37266D01*
X27244Y-37091D01*
X27177Y-36929D01*
X27053Y-36805D01*
X26892Y-36738D01*
X26716Y-36738D01*
X26555Y-36805D01*
X26431Y-36929D01*
X26364Y-37090D01*
X26364Y-37265D01*
X26364Y-36198D01*
X26374Y-36307D01*
X26409Y-36391D01*
X26472Y-36425D01*
X26557Y-36340D01*
X26557Y-36510D01*
X26591Y-36573D01*
X26758Y-36625D01*
X26932Y-36608D01*
X27016Y-36573D01*
X27051Y-36510D01*
X26804Y-36263D01*
X26557Y-36510D01*
X26557Y-36340D01*
X26719Y-36178D01*
X26472Y-35931D01*
X26409Y-35965D01*
X26357Y-36133D01*
X26357Y-29432D01*
X26529Y-29432D01*
X26529Y-33991D01*
X26557Y-34059D01*
X26557Y-35846D01*
X26804Y-36093D01*
X26888Y-36009D01*
X26888Y-36178D01*
X27135Y-36425D01*
X27199Y-36391D01*
X27250Y-36224D01*
X27233Y-36049D01*
X27199Y-35965D01*
X27135Y-35931D01*
X26888Y-36178D01*
X26888Y-36009D01*
X27051Y-35846D01*
X27016Y-35783D01*
X26849Y-35732D01*
X26675Y-35749D01*
X26591Y-35783D01*
X26557Y-35846D01*
X26557Y-34059D01*
X26576Y-34106D01*
X26665Y-34195D01*
X26781Y-34243D01*
X26906Y-34243D01*
X27022Y-34195D01*
X27110Y-34107D01*
X27159Y-33991D01*
X27159Y-33866D01*
X27111Y-33750D01*
X27078Y-33718D01*
X27078Y-33649D01*
X27114Y-33614D01*
X27133Y-33567D01*
X27153Y-33614D01*
X27188Y-33649D01*
X27188Y-35083D01*
X27207Y-35175D01*
X27259Y-35253D01*
X27889Y-35883D01*
X27889Y-35921D01*
X27936Y-36036D01*
X28025Y-36125D01*
X28141Y-36173D01*
X28266Y-36173D01*
X28382Y-36125D01*
X28470Y-36037D01*
X28519Y-35921D01*
X28519Y-35879D01*
X28601Y-35913D01*
X28726Y-35913D01*
X28842Y-35865D01*
X28930Y-35777D01*
X28979Y-35661D01*
X28979Y-35623D01*
X29119Y-35482D01*
X29973Y-36336D01*
X29673Y-36336D01*
X29622Y-36358D01*
X29591Y-36388D01*
X29524Y-36388D01*
X29497Y-36361D01*
X29382Y-36313D01*
X29256Y-36313D01*
X29140Y-36361D01*
X29052Y-36450D01*
X29004Y-36565D01*
X29004Y-36691D01*
X29051Y-36806D01*
X29140Y-36895D01*
X29256Y-36943D01*
X29381Y-36943D01*
X29497Y-36895D01*
X29524Y-36868D01*
X29582Y-36868D01*
X29582Y-36870D01*
X29618Y-36905D01*
X29618Y-36968D01*
X29618Y-37939D01*
X29574Y-37984D01*
X29522Y-38061D01*
X29504Y-38153D01*
X29504Y-38553D01*
X29522Y-38645D01*
X29522Y-38645D01*
X29543Y-38676D01*
X29574Y-38723D01*
X29579Y-38728D01*
X29579Y-39654D01*
X29119Y-39194D01*
X29119Y-39156D01*
X29071Y-39040D01*
X28982Y-38951D01*
X28867Y-38903D01*
X28741Y-38903D01*
X28625Y-38951D01*
X28537Y-39040D01*
X28489Y-39155D01*
X28489Y-39281D01*
X28536Y-39396D01*
X28625Y-39485D01*
X28741Y-39533D01*
X28779Y-39533D01*
X29184Y-39938D01*
X29184Y-40193D01*
X29157Y-40220D01*
X29109Y-40335D01*
X29109Y-40461D01*
X29156Y-40576D01*
X29245Y-40665D01*
X29361Y-40713D01*
X29486Y-40713D01*
X29579Y-40675D01*
X29579Y-41429D01*
X29394Y-41613D01*
X29356Y-41613D01*
X29240Y-41661D01*
X29152Y-41750D01*
X29104Y-41865D01*
X29104Y-41991D01*
X29151Y-42106D01*
X29240Y-42195D01*
X29356Y-42243D01*
X29481Y-42243D01*
X29597Y-42195D01*
X29685Y-42107D01*
X29734Y-41991D01*
X29734Y-41953D01*
X29988Y-41698D01*
X30040Y-41620D01*
X30059Y-41528D01*
X30059Y-40233D01*
X30179Y-40353D01*
X30179Y-40391D01*
X30226Y-40506D01*
X30254Y-40534D01*
X30254Y-40661D01*
X30223Y-40692D01*
X30202Y-40743D01*
X30202Y-40799D01*
X30202Y-41113D01*
X30223Y-41165D01*
X30259Y-41200D01*
X30259Y-41278D01*
X30237Y-41300D01*
X30189Y-41415D01*
X30189Y-41541D01*
X30236Y-41656D01*
X30325Y-41745D01*
X30441Y-41793D01*
X30566Y-41793D01*
X30682Y-41745D01*
X30770Y-41657D01*
X30819Y-41541D01*
X30819Y-41416D01*
X30771Y-41300D01*
X30739Y-41268D01*
X30739Y-41200D01*
X30774Y-41165D01*
X30794Y-41118D01*
X30813Y-41165D01*
X30849Y-41200D01*
X30849Y-42329D01*
X30771Y-42406D01*
X30629Y-42406D01*
X30577Y-42428D01*
X30538Y-42467D01*
X30519Y-42514D01*
X30499Y-42467D01*
X30460Y-42428D01*
X30459Y-42427D01*
X30459Y-42359D01*
X30485Y-42332D01*
X30534Y-42216D01*
X30534Y-42091D01*
X30486Y-41975D01*
X30397Y-41886D01*
X30282Y-41838D01*
X30156Y-41838D01*
X30040Y-41886D01*
X29952Y-41975D01*
X29904Y-42090D01*
X29904Y-42216D01*
X29951Y-42331D01*
X29979Y-42359D01*
X29979Y-42436D01*
X29948Y-42467D01*
X29927Y-42518D01*
X29927Y-42574D01*
X29927Y-42888D01*
X29948Y-42940D01*
X29987Y-42979D01*
X30039Y-43000D01*
X30094Y-43000D01*
X30408Y-43000D01*
X30460Y-42979D01*
X30499Y-42940D01*
X30519Y-42893D01*
X30538Y-42940D01*
X30574Y-42975D01*
X30574Y-43482D01*
X30529Y-43590D01*
X30529Y-43716D01*
X30576Y-43831D01*
X30665Y-43920D01*
X30781Y-43968D01*
X30906Y-43968D01*
X31022Y-43920D01*
X31110Y-43832D01*
X31159Y-43716D01*
X31159Y-43591D01*
X31111Y-43475D01*
X31054Y-43418D01*
X31054Y-42975D01*
X31089Y-42940D01*
X31111Y-42888D01*
X31111Y-42832D01*
X31111Y-42746D01*
X31258Y-42598D01*
X31310Y-42520D01*
X31329Y-42428D01*
X31329Y-41200D01*
X31364Y-41165D01*
X31386Y-41113D01*
X31386Y-41057D01*
X31386Y-40971D01*
X31483Y-40873D01*
X31535Y-40795D01*
X31554Y-40703D01*
X31554Y-39325D01*
X31589Y-39290D01*
X31611Y-39238D01*
X31611Y-39182D01*
X31611Y-39096D01*
X32350Y-38356D01*
X32402Y-38278D01*
X32420Y-38187D01*
X32420Y-37823D01*
X32456Y-37787D01*
X32477Y-37736D01*
X32477Y-37680D01*
X32477Y-37366D01*
X32456Y-37314D01*
X32417Y-37275D01*
X32365Y-37254D01*
X32309Y-37254D01*
X31995Y-37254D01*
X31944Y-37275D01*
X31905Y-37314D01*
X31885Y-37361D01*
X31866Y-37314D01*
X31827Y-37275D01*
X31775Y-37254D01*
X31719Y-37254D01*
X31633Y-37254D01*
X31303Y-36924D01*
X31310Y-36917D01*
X31359Y-36801D01*
X31359Y-36676D01*
X31311Y-36560D01*
X31222Y-36471D01*
X31107Y-36423D01*
X30981Y-36423D01*
X30865Y-36471D01*
X30777Y-36560D01*
X30745Y-36636D01*
X30745Y-36449D01*
X30724Y-36397D01*
X30684Y-36358D01*
X30643Y-36341D01*
X30618Y-36302D01*
X29312Y-34996D01*
X29312Y-34854D01*
X29291Y-34803D01*
X29251Y-34763D01*
X29200Y-34742D01*
X29144Y-34742D01*
X28830Y-34742D01*
X28779Y-34763D01*
X28739Y-34803D01*
X28720Y-34849D01*
X28701Y-34803D01*
X28665Y-34767D01*
X28665Y-34727D01*
X28710Y-34682D01*
X28759Y-34566D01*
X28759Y-34441D01*
X28711Y-34325D01*
X28622Y-34236D01*
X28507Y-34188D01*
X28381Y-34188D01*
X28265Y-34236D01*
X28177Y-34325D01*
X28129Y-34440D01*
X28129Y-34566D01*
X28176Y-34681D01*
X28185Y-34690D01*
X28185Y-34767D01*
X28149Y-34803D01*
X28128Y-34854D01*
X28128Y-34910D01*
X28128Y-35224D01*
X28149Y-35275D01*
X28189Y-35315D01*
X28240Y-35336D01*
X28296Y-35336D01*
X28481Y-35336D01*
X28397Y-35420D01*
X28349Y-35535D01*
X28349Y-35577D01*
X28267Y-35543D01*
X28228Y-35543D01*
X27668Y-34984D01*
X27668Y-33649D01*
X27704Y-33614D01*
X27725Y-33562D01*
X27725Y-33507D01*
X27725Y-33420D01*
X28519Y-32626D01*
X28571Y-32548D01*
X28590Y-32456D01*
X28590Y-32260D01*
X28622Y-32228D01*
X29509Y-32228D01*
X29601Y-32209D01*
X29679Y-32157D01*
X30226Y-31610D01*
X30285Y-31650D01*
X30377Y-31668D01*
X32194Y-31668D01*
X32285Y-31650D01*
X32363Y-31598D01*
X32594Y-31367D01*
X32646Y-31289D01*
X32664Y-31197D01*
X32664Y-31149D01*
X32700Y-31114D01*
X32721Y-31062D01*
X32721Y-31007D01*
X32721Y-30693D01*
X32700Y-30641D01*
X32661Y-30602D01*
X32640Y-30593D01*
X32769Y-30593D01*
X33047Y-30871D01*
X33047Y-31235D01*
X33011Y-31271D01*
X32990Y-31323D01*
X32990Y-31378D01*
X32990Y-31692D01*
X33011Y-31744D01*
X33051Y-31783D01*
X33102Y-31804D01*
X33158Y-31804D01*
X33472Y-31804D01*
X33523Y-31783D01*
X33563Y-31744D01*
X33582Y-31697D01*
X33601Y-31744D01*
X33637Y-31779D01*
X33637Y-32947D01*
X33406Y-33179D01*
X33263Y-33179D01*
X33212Y-33200D01*
X33172Y-33240D01*
X33153Y-33286D01*
X33134Y-33240D01*
X33094Y-33200D01*
X33043Y-33179D01*
X32987Y-33179D01*
X32673Y-33179D01*
X32622Y-33200D01*
X32582Y-33240D01*
X32561Y-33291D01*
X32561Y-33347D01*
X32561Y-33661D01*
X32582Y-33712D01*
X32622Y-33752D01*
X32629Y-33754D01*
X32629Y-33848D01*
X32602Y-33875D01*
X32554Y-33990D01*
X32554Y-34116D01*
X32601Y-34231D01*
X32690Y-34320D01*
X32806Y-34368D01*
X32931Y-34368D01*
X33047Y-34320D01*
X33135Y-34232D01*
X33184Y-34116D01*
X33184Y-33991D01*
X33136Y-33875D01*
X33109Y-33848D01*
X33109Y-33737D01*
X33134Y-33712D01*
X33153Y-33666D01*
X33172Y-33712D01*
X33208Y-33748D01*
X33208Y-35215D01*
X33000Y-35423D01*
X32858Y-35423D01*
X32806Y-35444D01*
X32767Y-35484D01*
X32748Y-35530D01*
X32728Y-35484D01*
X32693Y-35448D01*
X32693Y-35304D01*
X32719Y-35241D01*
X32719Y-35116D01*
X32671Y-35000D01*
X32582Y-34911D01*
X32467Y-34863D01*
X32341Y-34863D01*
X32225Y-34911D01*
X32137Y-35000D01*
X32089Y-35115D01*
X32089Y-35241D01*
X32136Y-35356D01*
X32213Y-35433D01*
X32213Y-35448D01*
X32177Y-35484D01*
X32156Y-35535D01*
X32156Y-35591D01*
X32156Y-35905D01*
X32177Y-35956D01*
X32216Y-35996D01*
X32268Y-36017D01*
X32323Y-36017D01*
X32637Y-36017D01*
X32689Y-35996D01*
X32728Y-35956D01*
X32748Y-35910D01*
X32767Y-35956D01*
X32803Y-35992D01*
X32803Y-36977D01*
X32821Y-37069D01*
X32873Y-37147D01*
X33489Y-37763D01*
X33456Y-37763D01*
X33340Y-37811D01*
X33252Y-37900D01*
X33204Y-38015D01*
X33204Y-38141D01*
X33251Y-38256D01*
X33340Y-38345D01*
X33431Y-38383D01*
X33429Y-38385D01*
X33408Y-38437D01*
X33408Y-38492D01*
X33408Y-38806D01*
X33429Y-38858D01*
X33468Y-38897D01*
X33520Y-38919D01*
X33575Y-38919D01*
X33889Y-38919D01*
X33941Y-38897D01*
X33980Y-38858D01*
X34000Y-38811D01*
X34019Y-38858D01*
X34058Y-38897D01*
X34110Y-38919D01*
X34165Y-38919D01*
X34469Y-38919D01*
X34529Y-38978D01*
X34529Y-39016D01*
X34576Y-39131D01*
X34665Y-39220D01*
X34698Y-39234D01*
X34654Y-39340D01*
X34654Y-39466D01*
X34701Y-39581D01*
X34716Y-39597D01*
X34716Y-39672D01*
X34681Y-39708D01*
X34659Y-39760D01*
X34659Y-39815D01*
X34659Y-40129D01*
X34681Y-40181D01*
X34720Y-40220D01*
X34772Y-40241D01*
X34827Y-40241D01*
X35141Y-40241D01*
X35193Y-40220D01*
X35232Y-40181D01*
X35251Y-40134D01*
X35271Y-40181D01*
X35310Y-40220D01*
X35362Y-40241D01*
X35417Y-40241D01*
X35504Y-40241D01*
X36051Y-40788D01*
X36006Y-40788D01*
X35890Y-40836D01*
X35802Y-40925D01*
X35754Y-41040D01*
X35754Y-41166D01*
X35801Y-41281D01*
X35890Y-41370D01*
X36006Y-41418D01*
X36044Y-41418D01*
X36093Y-41467D01*
X36093Y-41508D01*
X36093Y-41822D01*
X36114Y-41874D01*
X36153Y-41913D01*
X36205Y-41934D01*
X36260Y-41934D01*
X36548Y-41934D01*
X35754Y-42728D01*
X35689Y-42728D01*
X35653Y-42692D01*
X35626Y-42681D01*
X35710Y-42597D01*
X35759Y-42481D01*
X35759Y-42356D01*
X35711Y-42240D01*
X35622Y-42151D01*
X35507Y-42103D01*
X35381Y-42103D01*
X35265Y-42151D01*
X35238Y-42178D01*
X35064Y-42178D01*
X34972Y-42197D01*
X34894Y-42249D01*
X34657Y-42486D01*
X34605Y-42563D01*
X34587Y-42655D01*
X34587Y-42696D01*
X34551Y-42732D01*
X34530Y-42783D01*
X34530Y-42813D01*
X34474Y-42813D01*
X34447Y-42786D01*
X34332Y-42738D01*
X34206Y-42738D01*
X34090Y-42786D01*
X34002Y-42875D01*
X33971Y-42949D01*
X33961Y-42925D01*
X33872Y-42836D01*
X33757Y-42788D01*
X33631Y-42788D01*
X33515Y-42836D01*
X33427Y-42925D01*
X33379Y-43040D01*
X33379Y-43079D01*
X33271Y-43187D01*
X32999Y-43187D01*
X32948Y-43208D01*
X32909Y-43247D01*
X32889Y-43294D01*
X32870Y-43247D01*
X32831Y-43208D01*
X32779Y-43187D01*
X32723Y-43187D01*
X32409Y-43187D01*
X32358Y-43208D01*
X32319Y-43247D01*
X32297Y-43299D01*
X32297Y-43355D01*
X32297Y-43669D01*
X32319Y-43720D01*
X32354Y-43756D01*
X32354Y-43822D01*
X32327Y-43850D01*
X32279Y-43965D01*
X32279Y-44091D01*
X32326Y-44206D01*
X32415Y-44295D01*
X32531Y-44343D01*
X32656Y-44343D01*
X32772Y-44295D01*
X32860Y-44207D01*
X32909Y-44091D01*
X32909Y-43966D01*
X32861Y-43850D01*
X32834Y-43823D01*
X32834Y-43756D01*
X32870Y-43720D01*
X32889Y-43673D01*
X32909Y-43720D01*
X32948Y-43759D01*
X32999Y-43781D01*
X33055Y-43781D01*
X33369Y-43781D01*
X33421Y-43759D01*
X33456Y-43724D01*
X35238Y-43724D01*
X35330Y-43705D01*
X35408Y-43653D01*
X35563Y-43498D01*
X35615Y-43420D01*
X35634Y-43328D01*
X35634Y-43252D01*
X35653Y-43244D01*
X35689Y-43208D01*
X35854Y-43208D01*
X35946Y-43190D01*
X36024Y-43138D01*
X37149Y-42012D01*
X37201Y-41934D01*
X37205Y-41918D01*
X37216Y-41913D01*
X37255Y-41874D01*
X37277Y-41822D01*
X37277Y-41766D01*
X37277Y-41452D01*
X37255Y-41401D01*
X37217Y-41362D01*
X37201Y-41286D01*
X37149Y-41208D01*
X35843Y-39902D01*
X35843Y-39760D01*
X35822Y-39708D01*
X35783Y-39669D01*
X35731Y-39647D01*
X35676Y-39647D01*
X35362Y-39647D01*
X35310Y-39669D01*
X35271Y-39708D01*
X35251Y-39755D01*
X35232Y-39708D01*
X35196Y-39672D01*
X35196Y-39621D01*
X35235Y-39582D01*
X35284Y-39466D01*
X35284Y-39428D01*
X35453Y-39258D01*
X35505Y-39180D01*
X35524Y-39088D01*
X35524Y-38718D01*
X35505Y-38626D01*
X35453Y-38549D01*
X33764Y-36859D01*
X33764Y-35898D01*
X33933Y-35728D01*
X33985Y-35650D01*
X34004Y-35558D01*
X34004Y-34078D01*
X34373Y-33708D01*
X34425Y-33630D01*
X34444Y-33538D01*
X34444Y-32278D01*
X34533Y-32188D01*
X34585Y-32110D01*
X34604Y-32018D01*
X34604Y-31098D01*
X34585Y-31006D01*
X34533Y-30929D01*
X34273Y-30669D01*
X34227Y-30637D01*
X34195Y-30617D01*
X34195Y-30617D01*
X34104Y-30598D01*
X33453Y-30598D01*
X33038Y-30184D01*
X32960Y-30132D01*
X32869Y-30113D01*
X30869Y-30113D01*
X30777Y-30132D01*
X30699Y-30184D01*
X30469Y-30413D01*
X29194Y-30413D01*
X29102Y-30432D01*
X29024Y-30484D01*
X28269Y-31238D01*
X27444Y-31238D01*
X27352Y-31257D01*
X27274Y-31309D01*
X26974Y-31609D01*
X26922Y-31686D01*
X26904Y-31778D01*
X26904Y-32629D01*
X26669Y-32864D01*
X26617Y-32942D01*
X26598Y-33033D01*
X26598Y-33105D01*
X26563Y-33141D01*
X26541Y-33193D01*
X26541Y-33248D01*
X26541Y-33562D01*
X26563Y-33614D01*
X26598Y-33649D01*
X26598Y-33728D01*
X26577Y-33750D01*
X26529Y-33865D01*
X26529Y-33991D01*
X26529Y-29432D01*
X26673Y-29432D01*
X38244Y-29432D01*
X38244Y-46078D01*
X38090Y-46078D01*
X8999Y-46078D01*
X8999Y-39626D01*
X9126Y-39500D01*
X9178Y-39422D01*
X9196Y-39330D01*
X9196Y-38838D01*
X9178Y-38746D01*
X9126Y-38668D01*
X8999Y-38542D01*
X8999Y-35688D01*
X8999Y-29432D01*
M02*
