G04 (created by PCBNEW (2013-mar-13)-testing) date Sat 12 Oct 2013 01:57:42 PM CEST*
%MOIN*%
G04 Gerber Fmt 3.4, Leading zero omitted, Abs format*
%FSLAX34Y34*%
G01*
G70*
G90*
G04 APERTURE LIST*
%ADD10C,0.005906*%
%ADD11C,0.011811*%
%ADD12C,0.000100*%
%ADD13C,0.005000*%
%ADD14C,0.004700*%
%ADD15C,0.008000*%
%ADD16C,0.003900*%
G04 APERTURE END LIST*
G54D10*
G54D11*
X21062Y-42314D02*
X21119Y-42286D01*
X21147Y-42258D01*
X21175Y-42201D01*
X21175Y-42033D01*
X21147Y-41976D01*
X21119Y-41948D01*
X21062Y-41920D01*
X20978Y-41920D01*
X20922Y-41948D01*
X20894Y-41976D01*
X20866Y-42033D01*
X20866Y-42201D01*
X20894Y-42258D01*
X20922Y-42286D01*
X20978Y-42314D01*
X21062Y-42314D01*
X20613Y-41920D02*
X20613Y-42511D01*
X20613Y-41948D02*
X20556Y-41920D01*
X20444Y-41920D01*
X20388Y-41948D01*
X20359Y-41976D01*
X20331Y-42033D01*
X20331Y-42201D01*
X20359Y-42258D01*
X20388Y-42286D01*
X20444Y-42314D01*
X20556Y-42314D01*
X20613Y-42286D01*
X19853Y-42286D02*
X19910Y-42314D01*
X20022Y-42314D01*
X20078Y-42286D01*
X20106Y-42230D01*
X20106Y-42005D01*
X20078Y-41948D01*
X20022Y-41920D01*
X19910Y-41920D01*
X19853Y-41948D01*
X19825Y-42005D01*
X19825Y-42061D01*
X20106Y-42117D01*
X19572Y-41920D02*
X19572Y-42314D01*
X19572Y-41976D02*
X19544Y-41948D01*
X19488Y-41920D01*
X19403Y-41920D01*
X19347Y-41948D01*
X19319Y-42005D01*
X19319Y-42314D01*
X18588Y-42314D02*
X18588Y-41723D01*
X18335Y-42314D02*
X18335Y-42005D01*
X18363Y-41948D01*
X18419Y-41920D01*
X18503Y-41920D01*
X18560Y-41948D01*
X18588Y-41976D01*
X17800Y-42314D02*
X17800Y-42005D01*
X17829Y-41948D01*
X17885Y-41920D01*
X17997Y-41920D01*
X18053Y-41948D01*
X17800Y-42286D02*
X17857Y-42314D01*
X17997Y-42314D01*
X18053Y-42286D01*
X18082Y-42230D01*
X18082Y-42173D01*
X18053Y-42117D01*
X17997Y-42089D01*
X17857Y-42089D01*
X17800Y-42061D01*
X17519Y-42314D02*
X17519Y-41920D01*
X17519Y-42033D02*
X17491Y-41976D01*
X17463Y-41948D01*
X17407Y-41920D01*
X17350Y-41920D01*
X16901Y-42314D02*
X16901Y-41723D01*
X16901Y-42286D02*
X16957Y-42314D01*
X17069Y-42314D01*
X17125Y-42286D01*
X17154Y-42258D01*
X17182Y-42201D01*
X17182Y-42033D01*
X17154Y-41976D01*
X17125Y-41948D01*
X17069Y-41920D01*
X16957Y-41920D01*
X16901Y-41948D01*
X16676Y-41920D02*
X16563Y-42314D01*
X16451Y-42033D01*
X16338Y-42314D01*
X16226Y-41920D01*
X15748Y-42314D02*
X15748Y-42005D01*
X15776Y-41948D01*
X15832Y-41920D01*
X15944Y-41920D01*
X16001Y-41948D01*
X15748Y-42286D02*
X15804Y-42314D01*
X15944Y-42314D01*
X16001Y-42286D01*
X16029Y-42230D01*
X16029Y-42173D01*
X16001Y-42117D01*
X15944Y-42089D01*
X15804Y-42089D01*
X15748Y-42061D01*
X15466Y-42314D02*
X15466Y-41920D01*
X15466Y-42033D02*
X15438Y-41976D01*
X15410Y-41948D01*
X15354Y-41920D01*
X15298Y-41920D01*
X14876Y-42286D02*
X14932Y-42314D01*
X15044Y-42314D01*
X15101Y-42286D01*
X15129Y-42230D01*
X15129Y-42005D01*
X15101Y-41948D01*
X15044Y-41920D01*
X14932Y-41920D01*
X14876Y-41948D01*
X14848Y-42005D01*
X14848Y-42061D01*
X15129Y-42117D01*
X20978Y-43242D02*
X21006Y-43270D01*
X21091Y-43298D01*
X21147Y-43298D01*
X21231Y-43270D01*
X21287Y-43214D01*
X21316Y-43158D01*
X21344Y-43045D01*
X21344Y-42961D01*
X21316Y-42848D01*
X21287Y-42792D01*
X21231Y-42736D01*
X21147Y-42708D01*
X21091Y-42708D01*
X21006Y-42736D01*
X20978Y-42764D01*
X20725Y-42989D02*
X20528Y-42989D01*
X20444Y-43298D02*
X20725Y-43298D01*
X20725Y-42708D01*
X20444Y-42708D01*
X19853Y-43298D02*
X20050Y-43017D01*
X20191Y-43298D02*
X20191Y-42708D01*
X19966Y-42708D01*
X19910Y-42736D01*
X19881Y-42764D01*
X19853Y-42820D01*
X19853Y-42904D01*
X19881Y-42961D01*
X19910Y-42989D01*
X19966Y-43017D01*
X20191Y-43017D01*
X19600Y-43298D02*
X19600Y-42708D01*
X19263Y-43298D01*
X19263Y-42708D01*
X18419Y-42708D02*
X18307Y-42708D01*
X18250Y-42736D01*
X18194Y-42792D01*
X18166Y-42904D01*
X18166Y-43101D01*
X18194Y-43214D01*
X18250Y-43270D01*
X18307Y-43298D01*
X18419Y-43298D01*
X18475Y-43270D01*
X18532Y-43214D01*
X18560Y-43101D01*
X18560Y-42904D01*
X18532Y-42792D01*
X18475Y-42736D01*
X18419Y-42708D01*
X17913Y-43298D02*
X17913Y-42708D01*
X17913Y-42989D02*
X17575Y-42989D01*
X17575Y-43298D02*
X17575Y-42708D01*
X17013Y-43298D02*
X17294Y-43298D01*
X17294Y-42708D01*
X16422Y-42904D02*
X16282Y-43298D01*
X16141Y-42904D01*
X15916Y-43242D02*
X15888Y-43270D01*
X15916Y-43298D01*
X15944Y-43270D01*
X15916Y-43242D01*
X15916Y-43298D01*
X15326Y-43298D02*
X15663Y-43298D01*
X15494Y-43298D02*
X15494Y-42708D01*
X15551Y-42792D01*
X15607Y-42848D01*
X15663Y-42876D01*
X15073Y-43242D02*
X15044Y-43270D01*
X15073Y-43298D01*
X15101Y-43270D01*
X15073Y-43242D01*
X15073Y-43298D01*
X14482Y-43298D02*
X14820Y-43298D01*
X14651Y-43298D02*
X14651Y-42708D01*
X14707Y-42792D01*
X14763Y-42848D01*
X14820Y-42876D01*
X19887Y-45109D02*
X19887Y-44519D01*
X19634Y-45109D02*
X19634Y-44800D01*
X19662Y-44744D01*
X19718Y-44715D01*
X19803Y-44715D01*
X19859Y-44744D01*
X19887Y-44772D01*
X19437Y-44715D02*
X19212Y-44715D01*
X19353Y-44519D02*
X19353Y-45025D01*
X19325Y-45081D01*
X19268Y-45109D01*
X19212Y-45109D01*
X19100Y-44715D02*
X18875Y-44715D01*
X19015Y-44519D02*
X19015Y-45025D01*
X18987Y-45081D01*
X18931Y-45109D01*
X18875Y-45109D01*
X18678Y-44715D02*
X18678Y-45306D01*
X18678Y-44744D02*
X18622Y-44715D01*
X18509Y-44715D01*
X18453Y-44744D01*
X18425Y-44772D01*
X18397Y-44828D01*
X18397Y-44997D01*
X18425Y-45053D01*
X18453Y-45081D01*
X18509Y-45109D01*
X18622Y-45109D01*
X18678Y-45081D01*
X18143Y-45053D02*
X18115Y-45081D01*
X18143Y-45109D01*
X18172Y-45081D01*
X18143Y-45053D01*
X18143Y-45109D01*
X18143Y-44744D02*
X18115Y-44772D01*
X18143Y-44800D01*
X18172Y-44772D01*
X18143Y-44744D01*
X18143Y-44800D01*
X17440Y-44491D02*
X17947Y-45250D01*
X16822Y-44491D02*
X17328Y-45250D01*
X16681Y-44715D02*
X16569Y-45109D01*
X16456Y-44828D01*
X16344Y-45109D01*
X16231Y-44715D01*
X15781Y-45081D02*
X15838Y-45109D01*
X15950Y-45109D01*
X16006Y-45081D01*
X16034Y-45025D01*
X16034Y-44800D01*
X16006Y-44744D01*
X15950Y-44715D01*
X15838Y-44715D01*
X15781Y-44744D01*
X15753Y-44800D01*
X15753Y-44856D01*
X16034Y-44912D01*
X15500Y-45109D02*
X15500Y-44715D01*
X15500Y-44772D02*
X15472Y-44744D01*
X15416Y-44715D01*
X15331Y-44715D01*
X15275Y-44744D01*
X15247Y-44800D01*
X15247Y-45109D01*
X15247Y-44800D02*
X15219Y-44744D01*
X15163Y-44715D01*
X15078Y-44715D01*
X15022Y-44744D01*
X14994Y-44800D01*
X14994Y-45109D01*
X14460Y-45109D02*
X14460Y-44800D01*
X14488Y-44744D01*
X14544Y-44715D01*
X14656Y-44715D01*
X14713Y-44744D01*
X14460Y-45081D02*
X14516Y-45109D01*
X14656Y-45109D01*
X14713Y-45081D01*
X14741Y-45025D01*
X14741Y-44969D01*
X14713Y-44912D01*
X14656Y-44884D01*
X14516Y-44884D01*
X14460Y-44856D01*
X14178Y-45109D02*
X14178Y-44519D01*
X14122Y-44884D02*
X13953Y-45109D01*
X13953Y-44715D02*
X14178Y-44940D01*
X13475Y-45081D02*
X13532Y-45109D01*
X13644Y-45109D01*
X13700Y-45081D01*
X13728Y-45025D01*
X13728Y-44800D01*
X13700Y-44744D01*
X13644Y-44715D01*
X13532Y-44715D01*
X13475Y-44744D01*
X13447Y-44800D01*
X13447Y-44856D01*
X13728Y-44912D01*
X13278Y-44715D02*
X13053Y-44715D01*
X13194Y-44519D02*
X13194Y-45025D01*
X13166Y-45081D01*
X13110Y-45109D01*
X13053Y-45109D01*
X12857Y-45109D02*
X12857Y-44519D01*
X12604Y-45109D02*
X12604Y-44800D01*
X12632Y-44744D01*
X12688Y-44715D01*
X12772Y-44715D01*
X12829Y-44744D01*
X12857Y-44772D01*
X12322Y-45109D02*
X12322Y-44715D01*
X12322Y-44519D02*
X12350Y-44547D01*
X12322Y-44575D01*
X12294Y-44547D01*
X12322Y-44519D01*
X12322Y-44575D01*
X12041Y-44715D02*
X12041Y-45109D01*
X12041Y-44772D02*
X12013Y-44744D01*
X11957Y-44715D01*
X11872Y-44715D01*
X11816Y-44744D01*
X11788Y-44800D01*
X11788Y-45109D01*
X11254Y-44715D02*
X11254Y-45194D01*
X11282Y-45250D01*
X11310Y-45278D01*
X11366Y-45306D01*
X11451Y-45306D01*
X11507Y-45278D01*
X11254Y-45081D02*
X11310Y-45109D01*
X11422Y-45109D01*
X11479Y-45081D01*
X11507Y-45053D01*
X11535Y-44997D01*
X11535Y-44828D01*
X11507Y-44772D01*
X11479Y-44744D01*
X11422Y-44715D01*
X11310Y-44715D01*
X11254Y-44744D01*
X11001Y-45081D02*
X10944Y-45109D01*
X10832Y-45109D01*
X10776Y-45081D01*
X10748Y-45025D01*
X10748Y-44997D01*
X10776Y-44940D01*
X10832Y-44912D01*
X10916Y-44912D01*
X10973Y-44884D01*
X11001Y-44828D01*
X11001Y-44800D01*
X10973Y-44744D01*
X10916Y-44715D01*
X10832Y-44715D01*
X10776Y-44744D01*
X10494Y-45053D02*
X10466Y-45081D01*
X10494Y-45109D01*
X10523Y-45081D01*
X10494Y-45053D01*
X10494Y-45109D01*
X10213Y-44715D02*
X10213Y-45109D01*
X10213Y-44772D02*
X10185Y-44744D01*
X10129Y-44715D01*
X10044Y-44715D01*
X9988Y-44744D01*
X9960Y-44800D01*
X9960Y-45109D01*
X9454Y-45081D02*
X9510Y-45109D01*
X9623Y-45109D01*
X9679Y-45081D01*
X9707Y-45025D01*
X9707Y-44800D01*
X9679Y-44744D01*
X9623Y-44715D01*
X9510Y-44715D01*
X9454Y-44744D01*
X9426Y-44800D01*
X9426Y-44856D01*
X9707Y-44912D01*
X9257Y-44715D02*
X9032Y-44715D01*
X9173Y-44519D02*
X9173Y-45025D01*
X9145Y-45081D01*
X9088Y-45109D01*
X9032Y-45109D01*
X25286Y-46054D02*
X25286Y-45464D01*
X25033Y-46054D02*
X25033Y-45745D01*
X25061Y-45688D01*
X25118Y-45660D01*
X25202Y-45660D01*
X25258Y-45688D01*
X25286Y-45717D01*
X24836Y-45660D02*
X24611Y-45660D01*
X24752Y-45464D02*
X24752Y-45970D01*
X24724Y-46026D01*
X24668Y-46054D01*
X24611Y-46054D01*
X24499Y-45660D02*
X24274Y-45660D01*
X24415Y-45464D02*
X24415Y-45970D01*
X24386Y-46026D01*
X24330Y-46054D01*
X24274Y-46054D01*
X24077Y-45660D02*
X24077Y-46251D01*
X24077Y-45688D02*
X24021Y-45660D01*
X23908Y-45660D01*
X23852Y-45688D01*
X23824Y-45717D01*
X23796Y-45773D01*
X23796Y-45942D01*
X23824Y-45998D01*
X23852Y-46026D01*
X23908Y-46054D01*
X24021Y-46054D01*
X24077Y-46026D01*
X23571Y-46026D02*
X23515Y-46054D01*
X23402Y-46054D01*
X23346Y-46026D01*
X23318Y-45970D01*
X23318Y-45942D01*
X23346Y-45885D01*
X23402Y-45857D01*
X23487Y-45857D01*
X23543Y-45829D01*
X23571Y-45773D01*
X23571Y-45745D01*
X23543Y-45688D01*
X23487Y-45660D01*
X23402Y-45660D01*
X23346Y-45688D01*
X23065Y-45998D02*
X23037Y-46026D01*
X23065Y-46054D01*
X23093Y-46026D01*
X23065Y-45998D01*
X23065Y-46054D01*
X23065Y-45688D02*
X23037Y-45717D01*
X23065Y-45745D01*
X23093Y-45717D01*
X23065Y-45688D01*
X23065Y-45745D01*
X22362Y-45435D02*
X22868Y-46195D01*
X21743Y-45435D02*
X22249Y-46195D01*
X21293Y-45660D02*
X21293Y-46138D01*
X21321Y-46195D01*
X21349Y-46223D01*
X21406Y-46251D01*
X21490Y-46251D01*
X21546Y-46223D01*
X21293Y-46026D02*
X21349Y-46054D01*
X21462Y-46054D01*
X21518Y-46026D01*
X21546Y-45998D01*
X21574Y-45942D01*
X21574Y-45773D01*
X21546Y-45717D01*
X21518Y-45688D01*
X21462Y-45660D01*
X21349Y-45660D01*
X21293Y-45688D01*
X21012Y-46054D02*
X21012Y-45660D01*
X21012Y-45464D02*
X21040Y-45492D01*
X21012Y-45520D01*
X20984Y-45492D01*
X21012Y-45464D01*
X21012Y-45520D01*
X20815Y-45660D02*
X20590Y-45660D01*
X20731Y-45464D02*
X20731Y-45970D01*
X20703Y-46026D01*
X20646Y-46054D01*
X20590Y-46054D01*
X20393Y-46054D02*
X20393Y-45464D01*
X20140Y-46054D02*
X20140Y-45745D01*
X20168Y-45688D01*
X20224Y-45660D01*
X20309Y-45660D01*
X20365Y-45688D01*
X20393Y-45717D01*
X19606Y-45660D02*
X19606Y-46054D01*
X19859Y-45660D02*
X19859Y-45970D01*
X19831Y-46026D01*
X19775Y-46054D01*
X19690Y-46054D01*
X19634Y-46026D01*
X19606Y-45998D01*
X19325Y-46054D02*
X19325Y-45464D01*
X19325Y-45688D02*
X19268Y-45660D01*
X19156Y-45660D01*
X19100Y-45688D01*
X19071Y-45717D01*
X19043Y-45773D01*
X19043Y-45942D01*
X19071Y-45998D01*
X19100Y-46026D01*
X19156Y-46054D01*
X19268Y-46054D01*
X19325Y-46026D01*
X18790Y-45998D02*
X18762Y-46026D01*
X18790Y-46054D01*
X18818Y-46026D01*
X18790Y-45998D01*
X18790Y-46054D01*
X18256Y-46026D02*
X18312Y-46054D01*
X18425Y-46054D01*
X18481Y-46026D01*
X18509Y-45998D01*
X18537Y-45942D01*
X18537Y-45773D01*
X18509Y-45717D01*
X18481Y-45688D01*
X18425Y-45660D01*
X18312Y-45660D01*
X18256Y-45688D01*
X17919Y-46054D02*
X17975Y-46026D01*
X18003Y-45998D01*
X18031Y-45942D01*
X18031Y-45773D01*
X18003Y-45717D01*
X17975Y-45688D01*
X17919Y-45660D01*
X17834Y-45660D01*
X17778Y-45688D01*
X17750Y-45717D01*
X17722Y-45773D01*
X17722Y-45942D01*
X17750Y-45998D01*
X17778Y-46026D01*
X17834Y-46054D01*
X17919Y-46054D01*
X17469Y-46054D02*
X17469Y-45660D01*
X17469Y-45717D02*
X17440Y-45688D01*
X17384Y-45660D01*
X17300Y-45660D01*
X17244Y-45688D01*
X17215Y-45745D01*
X17215Y-46054D01*
X17215Y-45745D02*
X17187Y-45688D01*
X17131Y-45660D01*
X17047Y-45660D01*
X16991Y-45688D01*
X16962Y-45745D01*
X16962Y-46054D01*
X16259Y-45435D02*
X16766Y-46195D01*
X16062Y-46054D02*
X16062Y-45464D01*
X15866Y-45885D01*
X15669Y-45464D01*
X15669Y-46054D01*
X15388Y-46054D02*
X15388Y-45660D01*
X15388Y-45464D02*
X15416Y-45492D01*
X15388Y-45520D01*
X15359Y-45492D01*
X15388Y-45464D01*
X15388Y-45520D01*
X14853Y-46026D02*
X14910Y-46054D01*
X15022Y-46054D01*
X15078Y-46026D01*
X15106Y-45998D01*
X15134Y-45942D01*
X15134Y-45773D01*
X15106Y-45717D01*
X15078Y-45688D01*
X15022Y-45660D01*
X14910Y-45660D01*
X14853Y-45688D01*
X14375Y-46026D02*
X14431Y-46054D01*
X14544Y-46054D01*
X14600Y-46026D01*
X14628Y-45970D01*
X14628Y-45745D01*
X14600Y-45688D01*
X14544Y-45660D01*
X14431Y-45660D01*
X14375Y-45688D01*
X14347Y-45745D01*
X14347Y-45801D01*
X14628Y-45857D01*
X13841Y-45660D02*
X13841Y-46054D01*
X14094Y-45660D02*
X14094Y-45970D01*
X14066Y-46026D01*
X14010Y-46054D01*
X13925Y-46054D01*
X13869Y-46026D01*
X13841Y-45998D01*
X13616Y-45660D02*
X13307Y-45660D01*
X13616Y-46054D01*
X13307Y-46054D01*
X12660Y-45435D02*
X13166Y-46195D01*
X12182Y-46054D02*
X12463Y-46054D01*
X12463Y-45464D01*
X11985Y-45745D02*
X11788Y-45745D01*
X11704Y-46054D02*
X11985Y-46054D01*
X11985Y-45464D01*
X11704Y-45464D01*
X11451Y-46054D02*
X11451Y-45464D01*
X11310Y-45464D01*
X11226Y-45492D01*
X11169Y-45548D01*
X11141Y-45604D01*
X11113Y-45717D01*
X11113Y-45801D01*
X11141Y-45913D01*
X11169Y-45970D01*
X11226Y-46026D01*
X11310Y-46054D01*
X11451Y-46054D01*
X10523Y-45998D02*
X10551Y-46026D01*
X10635Y-46054D01*
X10691Y-46054D01*
X10776Y-46026D01*
X10832Y-45970D01*
X10860Y-45913D01*
X10888Y-45801D01*
X10888Y-45717D01*
X10860Y-45604D01*
X10832Y-45548D01*
X10776Y-45492D01*
X10691Y-45464D01*
X10635Y-45464D01*
X10551Y-45492D01*
X10523Y-45520D01*
X10016Y-46054D02*
X10016Y-45745D01*
X10044Y-45688D01*
X10101Y-45660D01*
X10213Y-45660D01*
X10269Y-45688D01*
X10016Y-46026D02*
X10073Y-46054D01*
X10213Y-46054D01*
X10269Y-46026D01*
X10298Y-45970D01*
X10298Y-45913D01*
X10269Y-45857D01*
X10213Y-45829D01*
X10073Y-45829D01*
X10016Y-45801D01*
X9735Y-46054D02*
X9735Y-45660D01*
X9735Y-45773D02*
X9707Y-45717D01*
X9679Y-45688D01*
X9623Y-45660D01*
X9566Y-45660D01*
X9116Y-46054D02*
X9116Y-45464D01*
X9116Y-46026D02*
X9173Y-46054D01*
X9285Y-46054D01*
X9341Y-46026D01*
X9370Y-45998D01*
X9398Y-45942D01*
X9398Y-45773D01*
X9370Y-45717D01*
X9341Y-45688D01*
X9285Y-45660D01*
X9173Y-45660D01*
X9116Y-45688D01*
X25970Y-11698D02*
X25942Y-11670D01*
X25857Y-11642D01*
X25801Y-11642D01*
X25717Y-11670D01*
X25660Y-11726D01*
X25632Y-11782D01*
X25604Y-11895D01*
X25604Y-11979D01*
X25632Y-12092D01*
X25660Y-12148D01*
X25717Y-12204D01*
X25801Y-12232D01*
X25857Y-12232D01*
X25942Y-12204D01*
X25970Y-12176D01*
X26223Y-11951D02*
X26420Y-11951D01*
X26504Y-11642D02*
X26223Y-11642D01*
X26223Y-12232D01*
X26504Y-12232D01*
X27095Y-11642D02*
X26898Y-11923D01*
X26757Y-11642D02*
X26757Y-12232D01*
X26982Y-12232D01*
X27038Y-12204D01*
X27066Y-12176D01*
X27095Y-12120D01*
X27095Y-12035D01*
X27066Y-11979D01*
X27038Y-11951D01*
X26982Y-11923D01*
X26757Y-11923D01*
X27348Y-11642D02*
X27348Y-12232D01*
X27685Y-11642D01*
X27685Y-12232D01*
X28529Y-12232D02*
X28641Y-12232D01*
X28697Y-12204D01*
X28754Y-12148D01*
X28782Y-12035D01*
X28782Y-11839D01*
X28754Y-11726D01*
X28697Y-11670D01*
X28641Y-11642D01*
X28529Y-11642D01*
X28473Y-11670D01*
X28416Y-11726D01*
X28388Y-11839D01*
X28388Y-12035D01*
X28416Y-12148D01*
X28473Y-12204D01*
X28529Y-12232D01*
X29035Y-11642D02*
X29035Y-12232D01*
X29035Y-11951D02*
X29372Y-11951D01*
X29372Y-11642D02*
X29372Y-12232D01*
X29935Y-11642D02*
X29654Y-11642D01*
X29654Y-12232D01*
X30525Y-12035D02*
X30666Y-11642D01*
X30807Y-12035D01*
X31032Y-11698D02*
X31060Y-11670D01*
X31032Y-11642D01*
X31003Y-11670D01*
X31032Y-11698D01*
X31032Y-11642D01*
X31622Y-11642D02*
X31285Y-11642D01*
X31453Y-11642D02*
X31453Y-12232D01*
X31397Y-12148D01*
X31341Y-12092D01*
X31285Y-12064D01*
X31875Y-11698D02*
X31903Y-11670D01*
X31875Y-11642D01*
X31847Y-11670D01*
X31875Y-11698D01*
X31875Y-11642D01*
X32466Y-11642D02*
X32128Y-11642D01*
X32297Y-11642D02*
X32297Y-12232D01*
X32241Y-12148D01*
X32185Y-12092D01*
X32128Y-12064D01*
X25885Y-12626D02*
X25829Y-12654D01*
X25801Y-12682D01*
X25773Y-12739D01*
X25773Y-12907D01*
X25801Y-12964D01*
X25829Y-12992D01*
X25885Y-13020D01*
X25970Y-13020D01*
X26026Y-12992D01*
X26054Y-12964D01*
X26082Y-12907D01*
X26082Y-12739D01*
X26054Y-12682D01*
X26026Y-12654D01*
X25970Y-12626D01*
X25885Y-12626D01*
X26335Y-13020D02*
X26335Y-12429D01*
X26335Y-12992D02*
X26392Y-13020D01*
X26504Y-13020D01*
X26560Y-12992D01*
X26588Y-12964D01*
X26616Y-12907D01*
X26616Y-12739D01*
X26588Y-12682D01*
X26560Y-12654D01*
X26504Y-12626D01*
X26392Y-12626D01*
X26335Y-12654D01*
X27095Y-12654D02*
X27038Y-12626D01*
X26926Y-12626D01*
X26870Y-12654D01*
X26841Y-12710D01*
X26841Y-12935D01*
X26870Y-12992D01*
X26926Y-13020D01*
X27038Y-13020D01*
X27095Y-12992D01*
X27123Y-12935D01*
X27123Y-12879D01*
X26841Y-12823D01*
X27376Y-13020D02*
X27376Y-12626D01*
X27376Y-12964D02*
X27404Y-12992D01*
X27460Y-13020D01*
X27544Y-13020D01*
X27601Y-12992D01*
X27629Y-12935D01*
X27629Y-12626D01*
X28360Y-12626D02*
X28360Y-13217D01*
X28613Y-12626D02*
X28613Y-12935D01*
X28585Y-12992D01*
X28529Y-13020D01*
X28444Y-13020D01*
X28388Y-12992D01*
X28360Y-12964D01*
X29147Y-12626D02*
X29147Y-12935D01*
X29119Y-12992D01*
X29063Y-13020D01*
X28951Y-13020D01*
X28894Y-12992D01*
X29147Y-12654D02*
X29091Y-12626D01*
X28951Y-12626D01*
X28894Y-12654D01*
X28866Y-12710D01*
X28866Y-12767D01*
X28894Y-12823D01*
X28951Y-12851D01*
X29091Y-12851D01*
X29147Y-12879D01*
X29429Y-12626D02*
X29429Y-13020D01*
X29429Y-12907D02*
X29457Y-12964D01*
X29485Y-12992D01*
X29541Y-13020D01*
X29597Y-13020D01*
X30047Y-12626D02*
X30047Y-13217D01*
X30047Y-12654D02*
X29991Y-12626D01*
X29879Y-12626D01*
X29822Y-12654D01*
X29794Y-12682D01*
X29766Y-12739D01*
X29766Y-12907D01*
X29794Y-12964D01*
X29822Y-12992D01*
X29879Y-13020D01*
X29991Y-13020D01*
X30047Y-12992D01*
X30272Y-13020D02*
X30385Y-12626D01*
X30497Y-12907D01*
X30610Y-12626D01*
X30722Y-13020D01*
X31200Y-12626D02*
X31200Y-12935D01*
X31172Y-12992D01*
X31116Y-13020D01*
X31003Y-13020D01*
X30947Y-12992D01*
X31200Y-12654D02*
X31144Y-12626D01*
X31003Y-12626D01*
X30947Y-12654D01*
X30919Y-12710D01*
X30919Y-12767D01*
X30947Y-12823D01*
X31003Y-12851D01*
X31144Y-12851D01*
X31200Y-12879D01*
X31482Y-12626D02*
X31482Y-13020D01*
X31482Y-12907D02*
X31510Y-12964D01*
X31538Y-12992D01*
X31594Y-13020D01*
X31650Y-13020D01*
X32072Y-12654D02*
X32016Y-12626D01*
X31903Y-12626D01*
X31847Y-12654D01*
X31819Y-12710D01*
X31819Y-12935D01*
X31847Y-12992D01*
X31903Y-13020D01*
X32016Y-13020D01*
X32072Y-12992D01*
X32100Y-12935D01*
X32100Y-12879D01*
X31819Y-12823D01*
X27376Y-9969D02*
X27376Y-10559D01*
X27629Y-9969D02*
X27629Y-10278D01*
X27601Y-10334D01*
X27544Y-10362D01*
X27460Y-10362D01*
X27404Y-10334D01*
X27376Y-10306D01*
X27826Y-10362D02*
X28051Y-10362D01*
X27910Y-10559D02*
X27910Y-10053D01*
X27938Y-9997D01*
X27994Y-9969D01*
X28051Y-9969D01*
X28163Y-10362D02*
X28388Y-10362D01*
X28248Y-10559D02*
X28248Y-10053D01*
X28276Y-9997D01*
X28332Y-9969D01*
X28388Y-9969D01*
X28585Y-10362D02*
X28585Y-9772D01*
X28585Y-10334D02*
X28641Y-10362D01*
X28754Y-10362D01*
X28810Y-10334D01*
X28838Y-10306D01*
X28866Y-10250D01*
X28866Y-10081D01*
X28838Y-10025D01*
X28810Y-9997D01*
X28754Y-9969D01*
X28641Y-9969D01*
X28585Y-9997D01*
X29119Y-10025D02*
X29147Y-9997D01*
X29119Y-9969D01*
X29091Y-9997D01*
X29119Y-10025D01*
X29119Y-9969D01*
X29119Y-10334D02*
X29147Y-10306D01*
X29119Y-10278D01*
X29091Y-10306D01*
X29119Y-10334D01*
X29119Y-10278D01*
X29822Y-10587D02*
X29316Y-9828D01*
X30441Y-10587D02*
X29935Y-9828D01*
X30582Y-10362D02*
X30694Y-9969D01*
X30807Y-10250D01*
X30919Y-9969D01*
X31032Y-10362D01*
X31482Y-9997D02*
X31425Y-9969D01*
X31313Y-9969D01*
X31257Y-9997D01*
X31228Y-10053D01*
X31228Y-10278D01*
X31257Y-10334D01*
X31313Y-10362D01*
X31425Y-10362D01*
X31482Y-10334D01*
X31510Y-10278D01*
X31510Y-10222D01*
X31228Y-10165D01*
X31763Y-9969D02*
X31763Y-10362D01*
X31763Y-10306D02*
X31791Y-10334D01*
X31847Y-10362D01*
X31931Y-10362D01*
X31988Y-10334D01*
X32016Y-10278D01*
X32016Y-9969D01*
X32016Y-10278D02*
X32044Y-10334D01*
X32100Y-10362D01*
X32185Y-10362D01*
X32241Y-10334D01*
X32269Y-10278D01*
X32269Y-9969D01*
X32803Y-9969D02*
X32803Y-10278D01*
X32775Y-10334D01*
X32719Y-10362D01*
X32606Y-10362D01*
X32550Y-10334D01*
X32803Y-9997D02*
X32747Y-9969D01*
X32606Y-9969D01*
X32550Y-9997D01*
X32522Y-10053D01*
X32522Y-10109D01*
X32550Y-10165D01*
X32606Y-10194D01*
X32747Y-10194D01*
X32803Y-10222D01*
X33084Y-9969D02*
X33084Y-10559D01*
X33141Y-10194D02*
X33309Y-9969D01*
X33309Y-10362D02*
X33084Y-10137D01*
X33787Y-9997D02*
X33731Y-9969D01*
X33619Y-9969D01*
X33562Y-9997D01*
X33534Y-10053D01*
X33534Y-10278D01*
X33562Y-10334D01*
X33619Y-10362D01*
X33731Y-10362D01*
X33787Y-10334D01*
X33816Y-10278D01*
X33816Y-10222D01*
X33534Y-10165D01*
X33984Y-10362D02*
X34209Y-10362D01*
X34069Y-10559D02*
X34069Y-10053D01*
X34097Y-9997D01*
X34153Y-9969D01*
X34209Y-9969D01*
X34406Y-9969D02*
X34406Y-10559D01*
X34659Y-9969D02*
X34659Y-10278D01*
X34631Y-10334D01*
X34575Y-10362D01*
X34491Y-10362D01*
X34434Y-10334D01*
X34406Y-10306D01*
X34940Y-9969D02*
X34940Y-10362D01*
X34940Y-10559D02*
X34912Y-10531D01*
X34940Y-10503D01*
X34969Y-10531D01*
X34940Y-10559D01*
X34940Y-10503D01*
X35222Y-10362D02*
X35222Y-9969D01*
X35222Y-10306D02*
X35250Y-10334D01*
X35306Y-10362D01*
X35390Y-10362D01*
X35447Y-10334D01*
X35475Y-10278D01*
X35475Y-9969D01*
X36009Y-10362D02*
X36009Y-9884D01*
X35981Y-9828D01*
X35953Y-9800D01*
X35897Y-9772D01*
X35812Y-9772D01*
X35756Y-9800D01*
X36009Y-9997D02*
X35953Y-9969D01*
X35840Y-9969D01*
X35784Y-9997D01*
X35756Y-10025D01*
X35728Y-10081D01*
X35728Y-10250D01*
X35756Y-10306D01*
X35784Y-10334D01*
X35840Y-10362D01*
X35953Y-10362D01*
X36009Y-10334D01*
X36262Y-9997D02*
X36318Y-9969D01*
X36431Y-9969D01*
X36487Y-9997D01*
X36515Y-10053D01*
X36515Y-10081D01*
X36487Y-10137D01*
X36431Y-10165D01*
X36347Y-10165D01*
X36290Y-10194D01*
X36262Y-10250D01*
X36262Y-10278D01*
X36290Y-10334D01*
X36347Y-10362D01*
X36431Y-10362D01*
X36487Y-10334D01*
X36768Y-10025D02*
X36796Y-9997D01*
X36768Y-9969D01*
X36740Y-9997D01*
X36768Y-10025D01*
X36768Y-9969D01*
X37050Y-10362D02*
X37050Y-9969D01*
X37050Y-10306D02*
X37078Y-10334D01*
X37134Y-10362D01*
X37218Y-10362D01*
X37275Y-10334D01*
X37303Y-10278D01*
X37303Y-9969D01*
X37809Y-9997D02*
X37753Y-9969D01*
X37640Y-9969D01*
X37584Y-9997D01*
X37556Y-10053D01*
X37556Y-10278D01*
X37584Y-10334D01*
X37640Y-10362D01*
X37753Y-10362D01*
X37809Y-10334D01*
X37837Y-10278D01*
X37837Y-10222D01*
X37556Y-10165D01*
X38006Y-10362D02*
X38231Y-10362D01*
X38090Y-10559D02*
X38090Y-10053D01*
X38118Y-9997D01*
X38174Y-9969D01*
X38231Y-9969D01*
X21976Y-9024D02*
X21976Y-9614D01*
X22230Y-9024D02*
X22230Y-9333D01*
X22201Y-9389D01*
X22145Y-9417D01*
X22061Y-9417D01*
X22005Y-9389D01*
X21976Y-9361D01*
X22426Y-9417D02*
X22651Y-9417D01*
X22511Y-9614D02*
X22511Y-9108D01*
X22539Y-9052D01*
X22595Y-9024D01*
X22651Y-9024D01*
X22764Y-9417D02*
X22989Y-9417D01*
X22848Y-9614D02*
X22848Y-9108D01*
X22876Y-9052D01*
X22933Y-9024D01*
X22989Y-9024D01*
X23186Y-9417D02*
X23186Y-8827D01*
X23186Y-9389D02*
X23242Y-9417D01*
X23354Y-9417D01*
X23411Y-9389D01*
X23439Y-9361D01*
X23467Y-9305D01*
X23467Y-9136D01*
X23439Y-9080D01*
X23411Y-9052D01*
X23354Y-9024D01*
X23242Y-9024D01*
X23186Y-9052D01*
X23692Y-9052D02*
X23748Y-9024D01*
X23861Y-9024D01*
X23917Y-9052D01*
X23945Y-9108D01*
X23945Y-9136D01*
X23917Y-9192D01*
X23861Y-9221D01*
X23776Y-9221D01*
X23720Y-9249D01*
X23692Y-9305D01*
X23692Y-9333D01*
X23720Y-9389D01*
X23776Y-9417D01*
X23861Y-9417D01*
X23917Y-9389D01*
X24198Y-9080D02*
X24226Y-9052D01*
X24198Y-9024D01*
X24170Y-9052D01*
X24198Y-9080D01*
X24198Y-9024D01*
X24198Y-9389D02*
X24226Y-9361D01*
X24198Y-9333D01*
X24170Y-9361D01*
X24198Y-9389D01*
X24198Y-9333D01*
X24901Y-9642D02*
X24395Y-8883D01*
X25520Y-9642D02*
X25014Y-8883D01*
X25970Y-9417D02*
X25970Y-8939D01*
X25942Y-8883D01*
X25913Y-8855D01*
X25857Y-8827D01*
X25773Y-8827D01*
X25717Y-8855D01*
X25970Y-9052D02*
X25913Y-9024D01*
X25801Y-9024D01*
X25745Y-9052D01*
X25717Y-9080D01*
X25688Y-9136D01*
X25688Y-9305D01*
X25717Y-9361D01*
X25745Y-9389D01*
X25801Y-9417D01*
X25913Y-9417D01*
X25970Y-9389D01*
X26251Y-9024D02*
X26251Y-9417D01*
X26251Y-9614D02*
X26223Y-9586D01*
X26251Y-9558D01*
X26279Y-9586D01*
X26251Y-9614D01*
X26251Y-9558D01*
X26448Y-9417D02*
X26673Y-9417D01*
X26532Y-9614D02*
X26532Y-9108D01*
X26560Y-9052D01*
X26616Y-9024D01*
X26673Y-9024D01*
X26870Y-9024D02*
X26870Y-9614D01*
X27123Y-9024D02*
X27123Y-9333D01*
X27095Y-9389D01*
X27038Y-9417D01*
X26954Y-9417D01*
X26898Y-9389D01*
X26870Y-9361D01*
X27657Y-9417D02*
X27657Y-9024D01*
X27404Y-9417D02*
X27404Y-9108D01*
X27432Y-9052D01*
X27488Y-9024D01*
X27573Y-9024D01*
X27629Y-9052D01*
X27657Y-9080D01*
X27938Y-9024D02*
X27938Y-9614D01*
X27938Y-9389D02*
X27994Y-9417D01*
X28107Y-9417D01*
X28163Y-9389D01*
X28191Y-9361D01*
X28219Y-9305D01*
X28219Y-9136D01*
X28191Y-9080D01*
X28163Y-9052D01*
X28107Y-9024D01*
X27994Y-9024D01*
X27938Y-9052D01*
X28473Y-9080D02*
X28501Y-9052D01*
X28473Y-9024D01*
X28444Y-9052D01*
X28473Y-9080D01*
X28473Y-9024D01*
X29007Y-9052D02*
X28951Y-9024D01*
X28838Y-9024D01*
X28782Y-9052D01*
X28754Y-9080D01*
X28726Y-9136D01*
X28726Y-9305D01*
X28754Y-9361D01*
X28782Y-9389D01*
X28838Y-9417D01*
X28951Y-9417D01*
X29007Y-9389D01*
X29344Y-9024D02*
X29288Y-9052D01*
X29260Y-9080D01*
X29232Y-9136D01*
X29232Y-9305D01*
X29260Y-9361D01*
X29288Y-9389D01*
X29344Y-9417D01*
X29429Y-9417D01*
X29485Y-9389D01*
X29513Y-9361D01*
X29541Y-9305D01*
X29541Y-9136D01*
X29513Y-9080D01*
X29485Y-9052D01*
X29429Y-9024D01*
X29344Y-9024D01*
X29794Y-9024D02*
X29794Y-9417D01*
X29794Y-9361D02*
X29822Y-9389D01*
X29879Y-9417D01*
X29963Y-9417D01*
X30019Y-9389D01*
X30047Y-9333D01*
X30047Y-9024D01*
X30047Y-9333D02*
X30075Y-9389D01*
X30132Y-9417D01*
X30216Y-9417D01*
X30272Y-9389D01*
X30300Y-9333D01*
X30300Y-9024D01*
X31003Y-9642D02*
X30497Y-8883D01*
X31200Y-9024D02*
X31200Y-9614D01*
X31397Y-9192D01*
X31594Y-9614D01*
X31594Y-9024D01*
X31875Y-9024D02*
X31875Y-9417D01*
X31875Y-9614D02*
X31847Y-9586D01*
X31875Y-9558D01*
X31903Y-9586D01*
X31875Y-9614D01*
X31875Y-9558D01*
X32410Y-9052D02*
X32353Y-9024D01*
X32241Y-9024D01*
X32185Y-9052D01*
X32156Y-9080D01*
X32128Y-9136D01*
X32128Y-9305D01*
X32156Y-9361D01*
X32185Y-9389D01*
X32241Y-9417D01*
X32353Y-9417D01*
X32410Y-9389D01*
X32888Y-9052D02*
X32831Y-9024D01*
X32719Y-9024D01*
X32663Y-9052D01*
X32634Y-9108D01*
X32634Y-9333D01*
X32663Y-9389D01*
X32719Y-9417D01*
X32831Y-9417D01*
X32888Y-9389D01*
X32916Y-9333D01*
X32916Y-9277D01*
X32634Y-9221D01*
X33422Y-9417D02*
X33422Y-9024D01*
X33169Y-9417D02*
X33169Y-9108D01*
X33197Y-9052D01*
X33253Y-9024D01*
X33338Y-9024D01*
X33394Y-9052D01*
X33422Y-9080D01*
X33647Y-9417D02*
X33956Y-9417D01*
X33647Y-9024D01*
X33956Y-9024D01*
X34603Y-9642D02*
X34097Y-8883D01*
X35081Y-9024D02*
X34800Y-9024D01*
X34800Y-9614D01*
X35278Y-9333D02*
X35475Y-9333D01*
X35559Y-9024D02*
X35278Y-9024D01*
X35278Y-9614D01*
X35559Y-9614D01*
X35812Y-9024D02*
X35812Y-9614D01*
X35953Y-9614D01*
X36037Y-9586D01*
X36093Y-9530D01*
X36122Y-9474D01*
X36150Y-9361D01*
X36150Y-9277D01*
X36122Y-9164D01*
X36093Y-9108D01*
X36037Y-9052D01*
X35953Y-9024D01*
X35812Y-9024D01*
X36740Y-9080D02*
X36712Y-9052D01*
X36628Y-9024D01*
X36571Y-9024D01*
X36487Y-9052D01*
X36431Y-9108D01*
X36403Y-9164D01*
X36375Y-9277D01*
X36375Y-9361D01*
X36403Y-9474D01*
X36431Y-9530D01*
X36487Y-9586D01*
X36571Y-9614D01*
X36628Y-9614D01*
X36712Y-9586D01*
X36740Y-9558D01*
X37246Y-9024D02*
X37246Y-9333D01*
X37218Y-9389D01*
X37162Y-9417D01*
X37050Y-9417D01*
X36993Y-9389D01*
X37246Y-9052D02*
X37190Y-9024D01*
X37050Y-9024D01*
X36993Y-9052D01*
X36965Y-9108D01*
X36965Y-9164D01*
X36993Y-9221D01*
X37050Y-9249D01*
X37190Y-9249D01*
X37246Y-9277D01*
X37528Y-9024D02*
X37528Y-9417D01*
X37528Y-9305D02*
X37556Y-9361D01*
X37584Y-9389D01*
X37640Y-9417D01*
X37696Y-9417D01*
X38146Y-9024D02*
X38146Y-9614D01*
X38146Y-9052D02*
X38090Y-9024D01*
X37978Y-9024D01*
X37921Y-9052D01*
X37893Y-9080D01*
X37865Y-9136D01*
X37865Y-9305D01*
X37893Y-9361D01*
X37921Y-9389D01*
X37978Y-9417D01*
X38090Y-9417D01*
X38146Y-9389D01*
G54D12*
G36*
X17176Y-41552D02*
X17190Y-41544D01*
X17223Y-41524D01*
X17269Y-41494D01*
X17323Y-41457D01*
X17378Y-41420D01*
X17422Y-41390D01*
X17454Y-41370D01*
X17467Y-41363D01*
X17474Y-41365D01*
X17500Y-41378D01*
X17538Y-41397D01*
X17559Y-41409D01*
X17594Y-41424D01*
X17611Y-41427D01*
X17614Y-41422D01*
X17627Y-41395D01*
X17647Y-41350D01*
X17673Y-41291D01*
X17702Y-41221D01*
X17734Y-41145D01*
X17766Y-41068D01*
X17797Y-40995D01*
X17824Y-40929D01*
X17845Y-40875D01*
X17860Y-40838D01*
X17865Y-40822D01*
X17863Y-40819D01*
X17846Y-40802D01*
X17816Y-40779D01*
X17751Y-40726D01*
X17686Y-40646D01*
X17647Y-40555D01*
X17634Y-40453D01*
X17645Y-40359D01*
X17682Y-40269D01*
X17745Y-40188D01*
X17821Y-40128D01*
X17911Y-40089D01*
X18011Y-40077D01*
X18107Y-40088D01*
X18199Y-40124D01*
X18280Y-40186D01*
X18315Y-40226D01*
X18362Y-40308D01*
X18389Y-40396D01*
X18392Y-40418D01*
X18388Y-40515D01*
X18359Y-40608D01*
X18308Y-40691D01*
X18237Y-40759D01*
X18228Y-40765D01*
X18195Y-40790D01*
X18173Y-40807D01*
X18156Y-40821D01*
X18279Y-41117D01*
X18299Y-41165D01*
X18333Y-41246D01*
X18363Y-41316D01*
X18386Y-41371D01*
X18403Y-41408D01*
X18410Y-41423D01*
X18411Y-41424D01*
X18422Y-41426D01*
X18444Y-41418D01*
X18486Y-41398D01*
X18513Y-41384D01*
X18545Y-41368D01*
X18559Y-41363D01*
X18571Y-41369D01*
X18601Y-41389D01*
X18645Y-41418D01*
X18698Y-41454D01*
X18749Y-41489D01*
X18795Y-41519D01*
X18829Y-41541D01*
X18845Y-41550D01*
X18848Y-41550D01*
X18863Y-41542D01*
X18889Y-41519D01*
X18930Y-41481D01*
X18987Y-41425D01*
X18996Y-41416D01*
X19043Y-41368D01*
X19081Y-41328D01*
X19106Y-41300D01*
X19116Y-41287D01*
X19116Y-41287D01*
X19107Y-41271D01*
X19086Y-41237D01*
X19055Y-41190D01*
X19017Y-41135D01*
X18919Y-40992D01*
X18973Y-40857D01*
X18990Y-40816D01*
X19011Y-40766D01*
X19026Y-40730D01*
X19034Y-40715D01*
X19049Y-40709D01*
X19086Y-40701D01*
X19139Y-40690D01*
X19203Y-40678D01*
X19264Y-40666D01*
X19319Y-40656D01*
X19358Y-40648D01*
X19376Y-40645D01*
X19380Y-40642D01*
X19384Y-40634D01*
X19386Y-40615D01*
X19388Y-40582D01*
X19388Y-40529D01*
X19388Y-40453D01*
X19388Y-40445D01*
X19388Y-40372D01*
X19386Y-40315D01*
X19384Y-40277D01*
X19382Y-40262D01*
X19382Y-40262D01*
X19365Y-40258D01*
X19326Y-40250D01*
X19271Y-40239D01*
X19206Y-40227D01*
X19202Y-40226D01*
X19136Y-40213D01*
X19082Y-40202D01*
X19044Y-40193D01*
X19027Y-40188D01*
X19024Y-40184D01*
X19011Y-40158D01*
X18992Y-40118D01*
X18971Y-40068D01*
X18949Y-40017D01*
X18931Y-39971D01*
X18919Y-39937D01*
X18915Y-39921D01*
X18915Y-39921D01*
X18925Y-39905D01*
X18947Y-39872D01*
X18979Y-39825D01*
X19017Y-39769D01*
X19020Y-39765D01*
X19057Y-39710D01*
X19088Y-39663D01*
X19108Y-39630D01*
X19116Y-39615D01*
X19115Y-39614D01*
X19103Y-39598D01*
X19075Y-39566D01*
X19035Y-39524D01*
X18986Y-39476D01*
X18971Y-39461D01*
X18918Y-39408D01*
X18880Y-39374D01*
X18857Y-39356D01*
X18846Y-39352D01*
X18846Y-39352D01*
X18829Y-39362D01*
X18794Y-39385D01*
X18747Y-39417D01*
X18691Y-39455D01*
X18687Y-39457D01*
X18632Y-39495D01*
X18586Y-39526D01*
X18554Y-39548D01*
X18540Y-39556D01*
X18537Y-39556D01*
X18515Y-39550D01*
X18476Y-39536D01*
X18427Y-39517D01*
X18376Y-39497D01*
X18330Y-39477D01*
X18295Y-39461D01*
X18279Y-39452D01*
X18278Y-39451D01*
X18273Y-39431D01*
X18263Y-39390D01*
X18251Y-39333D01*
X18239Y-39266D01*
X18237Y-39255D01*
X18224Y-39190D01*
X18214Y-39135D01*
X18206Y-39098D01*
X18202Y-39082D01*
X18193Y-39080D01*
X18161Y-39078D01*
X18112Y-39077D01*
X18052Y-39076D01*
X17990Y-39076D01*
X17929Y-39078D01*
X17877Y-39080D01*
X17840Y-39082D01*
X17825Y-39085D01*
X17824Y-39086D01*
X17818Y-39106D01*
X17809Y-39148D01*
X17798Y-39205D01*
X17785Y-39272D01*
X17783Y-39284D01*
X17770Y-39350D01*
X17759Y-39404D01*
X17751Y-39440D01*
X17747Y-39455D01*
X17741Y-39458D01*
X17714Y-39470D01*
X17670Y-39488D01*
X17616Y-39510D01*
X17490Y-39561D01*
X17335Y-39455D01*
X17321Y-39446D01*
X17265Y-39408D01*
X17220Y-39377D01*
X17188Y-39357D01*
X17175Y-39349D01*
X17174Y-39350D01*
X17158Y-39363D01*
X17127Y-39392D01*
X17086Y-39433D01*
X17037Y-39481D01*
X17001Y-39517D01*
X16958Y-39561D01*
X16931Y-39590D01*
X16917Y-39609D01*
X16911Y-39620D01*
X16913Y-39627D01*
X16923Y-39643D01*
X16945Y-39677D01*
X16977Y-39724D01*
X17015Y-39779D01*
X17046Y-39825D01*
X17079Y-39877D01*
X17101Y-39914D01*
X17109Y-39932D01*
X17107Y-39939D01*
X17096Y-39970D01*
X17078Y-40015D01*
X17054Y-40070D01*
X17001Y-40192D01*
X16920Y-40208D01*
X16872Y-40217D01*
X16804Y-40230D01*
X16739Y-40243D01*
X16637Y-40262D01*
X16633Y-40635D01*
X16649Y-40642D01*
X16664Y-40646D01*
X16702Y-40654D01*
X16756Y-40665D01*
X16819Y-40677D01*
X16873Y-40687D01*
X16927Y-40698D01*
X16966Y-40705D01*
X16984Y-40709D01*
X16988Y-40715D01*
X17002Y-40741D01*
X17021Y-40783D01*
X17043Y-40833D01*
X17065Y-40886D01*
X17084Y-40934D01*
X17097Y-40971D01*
X17102Y-40990D01*
X17095Y-41004D01*
X17074Y-41036D01*
X17044Y-41082D01*
X17007Y-41136D01*
X16970Y-41190D01*
X16939Y-41236D01*
X16917Y-41269D01*
X16908Y-41284D01*
X16913Y-41295D01*
X16934Y-41321D01*
X16975Y-41363D01*
X17036Y-41423D01*
X17046Y-41433D01*
X17094Y-41479D01*
X17135Y-41517D01*
X17163Y-41542D01*
X17176Y-41552D01*
X17176Y-41552D01*
G37*
G54D13*
X23019Y-35275D02*
X23019Y-35553D01*
X23019Y-35553D02*
X22469Y-35553D01*
X22469Y-35553D02*
X22469Y-35275D01*
X23019Y-34603D02*
X23019Y-34881D01*
X23019Y-34603D02*
X22469Y-34603D01*
X22469Y-34603D02*
X22469Y-34881D01*
X23019Y-34025D02*
X23019Y-34303D01*
X23019Y-34303D02*
X22469Y-34303D01*
X22469Y-34303D02*
X22469Y-34025D01*
X23019Y-33353D02*
X23019Y-33631D01*
X23019Y-33353D02*
X22469Y-33353D01*
X22469Y-33353D02*
X22469Y-33631D01*
X23797Y-33103D02*
X23519Y-33103D01*
X23519Y-33103D02*
X23519Y-32553D01*
X23519Y-32553D02*
X23797Y-32553D01*
X24469Y-33103D02*
X24191Y-33103D01*
X24469Y-33103D02*
X24469Y-32553D01*
X24469Y-32553D02*
X24191Y-32553D01*
G54D14*
X24594Y-33678D02*
X23394Y-33678D01*
X23394Y-33678D02*
X23394Y-33978D01*
X23394Y-33978D02*
X24594Y-33978D01*
X24594Y-33978D02*
X24594Y-33678D01*
G54D15*
X21384Y-37958D02*
X25184Y-37958D01*
X25184Y-37958D02*
X25184Y-36458D01*
X25184Y-36458D02*
X21384Y-36458D01*
X21384Y-36458D02*
X21384Y-37958D01*
X21384Y-37458D02*
X21684Y-37458D01*
X21684Y-37458D02*
X21684Y-37058D01*
X21684Y-37058D02*
X21384Y-37058D01*
G54D13*
X27341Y-34753D02*
X27619Y-34753D01*
X27619Y-34753D02*
X27619Y-35303D01*
X27619Y-35303D02*
X27341Y-35303D01*
X26669Y-34753D02*
X26947Y-34753D01*
X26669Y-34753D02*
X26669Y-35303D01*
X26669Y-35303D02*
X26947Y-35303D01*
X27919Y-38706D02*
X27919Y-38428D01*
X27919Y-38428D02*
X28469Y-38428D01*
X28469Y-38428D02*
X28469Y-38706D01*
X27919Y-39378D02*
X27919Y-39100D01*
X27919Y-39378D02*
X28469Y-39378D01*
X28469Y-39378D02*
X28469Y-39100D01*
X27894Y-40406D02*
X27894Y-40128D01*
X27894Y-40128D02*
X28444Y-40128D01*
X28444Y-40128D02*
X28444Y-40406D01*
X27894Y-41078D02*
X27894Y-40800D01*
X27894Y-41078D02*
X28444Y-41078D01*
X28444Y-41078D02*
X28444Y-40800D01*
X28444Y-42425D02*
X28444Y-42703D01*
X28444Y-42703D02*
X27894Y-42703D01*
X27894Y-42703D02*
X27894Y-42425D01*
X28444Y-41753D02*
X28444Y-42031D01*
X28444Y-41753D02*
X27894Y-41753D01*
X27894Y-41753D02*
X27894Y-42031D01*
X27919Y-43756D02*
X27919Y-43478D01*
X27919Y-43478D02*
X28469Y-43478D01*
X28469Y-43478D02*
X28469Y-43756D01*
X27919Y-44428D02*
X27919Y-44150D01*
X27919Y-44428D02*
X28469Y-44428D01*
X28469Y-44428D02*
X28469Y-44150D01*
G54D16*
X20744Y-35728D02*
G75*
G03X20744Y-35728I-50J0D01*
G74*
G01*
X20694Y-35278D02*
X20694Y-35678D01*
X20694Y-35678D02*
X21294Y-35678D01*
X21294Y-35678D02*
X21294Y-35278D01*
X21294Y-34878D02*
X21294Y-34478D01*
X21294Y-34478D02*
X20694Y-34478D01*
X20694Y-34478D02*
X20694Y-34878D01*
G54D14*
X21488Y-34881D02*
X21488Y-34606D01*
X21488Y-35275D02*
X21488Y-35550D01*
X22000Y-34881D02*
X22000Y-34606D01*
X22000Y-35550D02*
X22000Y-35275D01*
X21994Y-34606D02*
X21494Y-34606D01*
X21494Y-35550D02*
X21994Y-35550D01*
G54D10*
X25804Y-38928D02*
X26054Y-39428D01*
X26054Y-39428D02*
X25554Y-39428D01*
X25554Y-39428D02*
X25804Y-38928D01*
G54D15*
X25304Y-35678D02*
X25304Y-38678D01*
X27304Y-38678D02*
X27304Y-35678D01*
X27304Y-35678D02*
X25304Y-35678D01*
X25304Y-38678D02*
X27304Y-38678D01*
G54D10*
X21440Y-16150D02*
X21190Y-15650D01*
X21190Y-15650D02*
X21690Y-15650D01*
X21690Y-15650D02*
X21440Y-16150D01*
G54D15*
X21940Y-19400D02*
X21940Y-16400D01*
X19940Y-16400D02*
X19940Y-19400D01*
X19940Y-19400D02*
X21940Y-19400D01*
X21940Y-16400D02*
X19940Y-16400D01*
G54D14*
X25756Y-20197D02*
X25756Y-20472D01*
X25756Y-19803D02*
X25756Y-19528D01*
X25244Y-20197D02*
X25244Y-20472D01*
X25244Y-19528D02*
X25244Y-19803D01*
X25250Y-20472D02*
X25750Y-20472D01*
X25750Y-19528D02*
X25250Y-19528D01*
G54D16*
X26600Y-19350D02*
G75*
G03X26600Y-19350I-50J0D01*
G74*
G01*
X26550Y-19800D02*
X26550Y-19400D01*
X26550Y-19400D02*
X25950Y-19400D01*
X25950Y-19400D02*
X25950Y-19800D01*
X25950Y-20200D02*
X25950Y-20600D01*
X25950Y-20600D02*
X26550Y-20600D01*
X26550Y-20600D02*
X26550Y-20200D01*
G54D13*
X19325Y-11322D02*
X19325Y-11600D01*
X19325Y-11600D02*
X18775Y-11600D01*
X18775Y-11600D02*
X18775Y-11322D01*
X19325Y-10650D02*
X19325Y-10928D01*
X19325Y-10650D02*
X18775Y-10650D01*
X18775Y-10650D02*
X18775Y-10928D01*
X18800Y-12653D02*
X18800Y-12375D01*
X18800Y-12375D02*
X19350Y-12375D01*
X19350Y-12375D02*
X19350Y-12653D01*
X18800Y-13325D02*
X18800Y-13047D01*
X18800Y-13325D02*
X19350Y-13325D01*
X19350Y-13325D02*
X19350Y-13047D01*
X19350Y-14672D02*
X19350Y-14950D01*
X19350Y-14950D02*
X18800Y-14950D01*
X18800Y-14950D02*
X18800Y-14672D01*
X19350Y-14000D02*
X19350Y-14278D01*
X19350Y-14000D02*
X18800Y-14000D01*
X18800Y-14000D02*
X18800Y-14278D01*
X19325Y-16372D02*
X19325Y-16650D01*
X19325Y-16650D02*
X18775Y-16650D01*
X18775Y-16650D02*
X18775Y-16372D01*
X19325Y-15700D02*
X19325Y-15978D01*
X19325Y-15700D02*
X18775Y-15700D01*
X18775Y-15700D02*
X18775Y-15978D01*
X19903Y-20325D02*
X19625Y-20325D01*
X19625Y-20325D02*
X19625Y-19775D01*
X19625Y-19775D02*
X19903Y-19775D01*
X20575Y-20325D02*
X20297Y-20325D01*
X20575Y-20325D02*
X20575Y-19775D01*
X20575Y-19775D02*
X20297Y-19775D01*
G54D15*
X25860Y-17120D02*
X22060Y-17120D01*
X22060Y-17120D02*
X22060Y-18620D01*
X22060Y-18620D02*
X25860Y-18620D01*
X25860Y-18620D02*
X25860Y-17120D01*
X25860Y-17620D02*
X25560Y-17620D01*
X25560Y-17620D02*
X25560Y-18020D01*
X25560Y-18020D02*
X25860Y-18020D01*
G54D14*
X22650Y-21400D02*
X23850Y-21400D01*
X23850Y-21400D02*
X23850Y-21100D01*
X23850Y-21100D02*
X22650Y-21100D01*
X22650Y-21100D02*
X22650Y-21400D01*
G54D13*
X23447Y-21975D02*
X23725Y-21975D01*
X23725Y-21975D02*
X23725Y-22525D01*
X23725Y-22525D02*
X23447Y-22525D01*
X22775Y-21975D02*
X23053Y-21975D01*
X22775Y-21975D02*
X22775Y-22525D01*
X22775Y-22525D02*
X23053Y-22525D01*
X24225Y-21053D02*
X24225Y-20775D01*
X24225Y-20775D02*
X24775Y-20775D01*
X24775Y-20775D02*
X24775Y-21053D01*
X24225Y-21725D02*
X24225Y-21447D01*
X24225Y-21725D02*
X24775Y-21725D01*
X24775Y-21725D02*
X24775Y-21447D01*
X24225Y-19803D02*
X24225Y-19525D01*
X24225Y-19525D02*
X24775Y-19525D01*
X24775Y-19525D02*
X24775Y-19803D01*
X24225Y-20475D02*
X24225Y-20197D01*
X24225Y-20475D02*
X24775Y-20475D01*
X24775Y-20475D02*
X24775Y-20197D01*
G54D12*
G36*
X30067Y-13525D02*
X30053Y-13533D01*
X30020Y-13553D01*
X29974Y-13583D01*
X29920Y-13620D01*
X29865Y-13657D01*
X29821Y-13687D01*
X29789Y-13707D01*
X29776Y-13714D01*
X29769Y-13712D01*
X29743Y-13699D01*
X29705Y-13680D01*
X29684Y-13668D01*
X29649Y-13653D01*
X29632Y-13650D01*
X29629Y-13655D01*
X29616Y-13682D01*
X29596Y-13727D01*
X29570Y-13786D01*
X29541Y-13856D01*
X29509Y-13932D01*
X29477Y-14009D01*
X29446Y-14082D01*
X29419Y-14148D01*
X29398Y-14202D01*
X29383Y-14239D01*
X29378Y-14255D01*
X29380Y-14258D01*
X29397Y-14275D01*
X29427Y-14298D01*
X29492Y-14351D01*
X29557Y-14431D01*
X29596Y-14522D01*
X29609Y-14624D01*
X29598Y-14718D01*
X29561Y-14808D01*
X29498Y-14889D01*
X29422Y-14949D01*
X29332Y-14988D01*
X29232Y-15000D01*
X29136Y-14989D01*
X29044Y-14953D01*
X28963Y-14891D01*
X28928Y-14851D01*
X28881Y-14769D01*
X28854Y-14681D01*
X28851Y-14659D01*
X28855Y-14562D01*
X28884Y-14469D01*
X28935Y-14386D01*
X29006Y-14318D01*
X29015Y-14312D01*
X29048Y-14287D01*
X29070Y-14270D01*
X29087Y-14256D01*
X28964Y-13960D01*
X28944Y-13912D01*
X28910Y-13831D01*
X28880Y-13761D01*
X28857Y-13706D01*
X28840Y-13669D01*
X28833Y-13654D01*
X28832Y-13653D01*
X28821Y-13651D01*
X28799Y-13659D01*
X28757Y-13679D01*
X28730Y-13693D01*
X28698Y-13709D01*
X28684Y-13714D01*
X28672Y-13708D01*
X28642Y-13688D01*
X28598Y-13659D01*
X28545Y-13623D01*
X28494Y-13588D01*
X28448Y-13558D01*
X28414Y-13536D01*
X28398Y-13527D01*
X28395Y-13527D01*
X28380Y-13535D01*
X28354Y-13558D01*
X28313Y-13596D01*
X28256Y-13652D01*
X28247Y-13661D01*
X28200Y-13709D01*
X28162Y-13749D01*
X28137Y-13777D01*
X28127Y-13790D01*
X28127Y-13790D01*
X28136Y-13806D01*
X28157Y-13840D01*
X28188Y-13887D01*
X28226Y-13942D01*
X28324Y-14085D01*
X28270Y-14220D01*
X28253Y-14261D01*
X28232Y-14311D01*
X28217Y-14347D01*
X28209Y-14362D01*
X28194Y-14368D01*
X28157Y-14376D01*
X28104Y-14387D01*
X28040Y-14399D01*
X27979Y-14411D01*
X27924Y-14421D01*
X27885Y-14429D01*
X27867Y-14432D01*
X27863Y-14435D01*
X27859Y-14443D01*
X27857Y-14462D01*
X27855Y-14495D01*
X27855Y-14548D01*
X27855Y-14624D01*
X27855Y-14632D01*
X27855Y-14705D01*
X27857Y-14762D01*
X27859Y-14800D01*
X27861Y-14815D01*
X27861Y-14815D01*
X27878Y-14819D01*
X27917Y-14827D01*
X27972Y-14838D01*
X28037Y-14850D01*
X28041Y-14851D01*
X28107Y-14864D01*
X28161Y-14875D01*
X28199Y-14884D01*
X28216Y-14889D01*
X28219Y-14893D01*
X28232Y-14919D01*
X28251Y-14959D01*
X28272Y-15009D01*
X28294Y-15060D01*
X28312Y-15106D01*
X28324Y-15140D01*
X28328Y-15156D01*
X28328Y-15156D01*
X28318Y-15172D01*
X28296Y-15205D01*
X28264Y-15252D01*
X28226Y-15308D01*
X28223Y-15312D01*
X28186Y-15367D01*
X28155Y-15414D01*
X28135Y-15447D01*
X28127Y-15462D01*
X28128Y-15463D01*
X28140Y-15479D01*
X28168Y-15511D01*
X28208Y-15553D01*
X28257Y-15601D01*
X28272Y-15616D01*
X28325Y-15669D01*
X28363Y-15703D01*
X28386Y-15721D01*
X28397Y-15725D01*
X28397Y-15725D01*
X28414Y-15715D01*
X28449Y-15692D01*
X28496Y-15660D01*
X28552Y-15622D01*
X28556Y-15620D01*
X28611Y-15582D01*
X28657Y-15551D01*
X28689Y-15529D01*
X28703Y-15521D01*
X28706Y-15521D01*
X28728Y-15527D01*
X28767Y-15541D01*
X28816Y-15560D01*
X28867Y-15580D01*
X28913Y-15600D01*
X28948Y-15616D01*
X28964Y-15625D01*
X28965Y-15626D01*
X28970Y-15646D01*
X28980Y-15687D01*
X28992Y-15744D01*
X29004Y-15811D01*
X29006Y-15822D01*
X29019Y-15887D01*
X29029Y-15942D01*
X29037Y-15979D01*
X29041Y-15995D01*
X29050Y-15997D01*
X29082Y-15999D01*
X29131Y-16000D01*
X29191Y-16001D01*
X29253Y-16001D01*
X29314Y-15999D01*
X29366Y-15997D01*
X29403Y-15995D01*
X29418Y-15992D01*
X29419Y-15991D01*
X29425Y-15971D01*
X29434Y-15929D01*
X29445Y-15872D01*
X29458Y-15805D01*
X29460Y-15793D01*
X29473Y-15727D01*
X29484Y-15673D01*
X29492Y-15637D01*
X29496Y-15622D01*
X29502Y-15619D01*
X29529Y-15607D01*
X29573Y-15589D01*
X29627Y-15567D01*
X29753Y-15516D01*
X29908Y-15622D01*
X29922Y-15631D01*
X29978Y-15669D01*
X30023Y-15700D01*
X30055Y-15720D01*
X30068Y-15728D01*
X30069Y-15727D01*
X30085Y-15714D01*
X30116Y-15685D01*
X30157Y-15644D01*
X30206Y-15596D01*
X30242Y-15560D01*
X30285Y-15516D01*
X30312Y-15487D01*
X30326Y-15468D01*
X30332Y-15457D01*
X30330Y-15450D01*
X30320Y-15434D01*
X30298Y-15400D01*
X30266Y-15353D01*
X30228Y-15298D01*
X30197Y-15252D01*
X30164Y-15200D01*
X30142Y-15163D01*
X30134Y-15145D01*
X30136Y-15138D01*
X30147Y-15107D01*
X30165Y-15062D01*
X30189Y-15007D01*
X30242Y-14885D01*
X30323Y-14869D01*
X30371Y-14860D01*
X30439Y-14847D01*
X30504Y-14834D01*
X30606Y-14815D01*
X30610Y-14442D01*
X30594Y-14435D01*
X30579Y-14431D01*
X30541Y-14423D01*
X30487Y-14412D01*
X30424Y-14400D01*
X30370Y-14390D01*
X30316Y-14379D01*
X30277Y-14372D01*
X30259Y-14368D01*
X30255Y-14362D01*
X30241Y-14336D01*
X30222Y-14294D01*
X30200Y-14244D01*
X30178Y-14191D01*
X30159Y-14143D01*
X30146Y-14106D01*
X30141Y-14087D01*
X30148Y-14073D01*
X30169Y-14041D01*
X30199Y-13995D01*
X30236Y-13941D01*
X30273Y-13887D01*
X30304Y-13841D01*
X30326Y-13808D01*
X30335Y-13793D01*
X30330Y-13782D01*
X30309Y-13756D01*
X30268Y-13714D01*
X30207Y-13654D01*
X30197Y-13644D01*
X30149Y-13598D01*
X30108Y-13560D01*
X30080Y-13535D01*
X30067Y-13525D01*
X30067Y-13525D01*
G37*
M02*
