G04 (created by PCBNEW (2013-mar-13)-testing) date Sat 12 Oct 2013 01:57:42 PM CEST*
%MOIN*%
G04 Gerber Fmt 3.4, Leading zero omitted, Abs format*
%FSLAX34Y34*%
G01*
G70*
G90*
G04 APERTURE LIST*
%ADD10C,0.005906*%
%ADD11C,0.019685*%
%ADD12C,0.007874*%
%ADD13C,0.000100*%
G04 APERTURE END LIST*
G54D10*
G54D11*
X23877Y-43375D02*
X23202Y-43375D01*
X23540Y-42194D02*
X23540Y-43375D01*
X22584Y-43375D02*
X22359Y-43375D01*
X22246Y-43319D01*
X22134Y-43206D01*
X22077Y-42981D01*
X22077Y-42588D01*
X22134Y-42363D01*
X22246Y-42250D01*
X22359Y-42194D01*
X22584Y-42194D01*
X22696Y-42250D01*
X22808Y-42363D01*
X22865Y-42588D01*
X22865Y-42981D01*
X22808Y-43206D01*
X22696Y-43319D01*
X22584Y-43375D01*
X21571Y-42194D02*
X21571Y-43375D01*
X21177Y-42531D01*
X20784Y-43375D01*
X20784Y-42194D01*
X20278Y-42531D02*
X19715Y-42531D01*
X20390Y-42194D02*
X19996Y-43375D01*
X19603Y-42194D01*
X19265Y-42250D02*
X19096Y-42194D01*
X18815Y-42194D01*
X18703Y-42250D01*
X18647Y-42306D01*
X18590Y-42419D01*
X18590Y-42531D01*
X18647Y-42644D01*
X18703Y-42700D01*
X18815Y-42756D01*
X19040Y-42813D01*
X19153Y-42869D01*
X19209Y-42925D01*
X19265Y-43038D01*
X19265Y-43150D01*
X19209Y-43263D01*
X19153Y-43319D01*
X19040Y-43375D01*
X18759Y-43375D01*
X18590Y-43319D01*
X16791Y-42813D02*
X16622Y-42756D01*
X16566Y-42700D01*
X16509Y-42588D01*
X16509Y-42419D01*
X16566Y-42306D01*
X16622Y-42250D01*
X16734Y-42194D01*
X17184Y-42194D01*
X17184Y-43375D01*
X16791Y-43375D01*
X16678Y-43319D01*
X16622Y-43263D01*
X16566Y-43150D01*
X16566Y-43038D01*
X16622Y-42925D01*
X16678Y-42869D01*
X16791Y-42813D01*
X17184Y-42813D01*
X16003Y-42813D02*
X15609Y-42813D01*
X15441Y-42194D02*
X16003Y-42194D01*
X16003Y-43375D01*
X15441Y-43375D01*
X14934Y-42194D02*
X14934Y-43375D01*
X14260Y-42194D02*
X14766Y-42869D01*
X14260Y-43375D02*
X14934Y-42700D01*
X13753Y-42813D02*
X13360Y-42813D01*
X13191Y-42194D02*
X13753Y-42194D01*
X13753Y-43375D01*
X13191Y-43375D01*
X12010Y-42194D02*
X12404Y-42756D01*
X12685Y-42194D02*
X12685Y-43375D01*
X12235Y-43375D01*
X12122Y-43319D01*
X12066Y-43263D01*
X12010Y-43150D01*
X12010Y-42981D01*
X12066Y-42869D01*
X12122Y-42813D01*
X12235Y-42756D01*
X12685Y-42756D01*
X11504Y-42194D02*
X11504Y-43375D01*
X10997Y-42250D02*
X10829Y-42194D01*
X10548Y-42194D01*
X10435Y-42250D01*
X10379Y-42306D01*
X10323Y-42419D01*
X10323Y-42531D01*
X10379Y-42644D01*
X10435Y-42700D01*
X10548Y-42756D01*
X10773Y-42813D01*
X10885Y-42869D01*
X10941Y-42925D01*
X10997Y-43038D01*
X10997Y-43150D01*
X10941Y-43263D01*
X10885Y-43319D01*
X10773Y-43375D01*
X10491Y-43375D01*
X10323Y-43319D01*
G54D12*
X23506Y-38897D02*
X23506Y-39684D01*
X23131Y-39422D02*
X23131Y-38897D01*
X23131Y-39347D02*
X23094Y-39384D01*
X23019Y-39422D01*
X22906Y-39422D01*
X22831Y-39384D01*
X22794Y-39309D01*
X22794Y-38897D01*
X22494Y-39422D02*
X22081Y-39422D01*
X22494Y-38897D01*
X22081Y-38897D01*
X22419Y-39722D02*
X22269Y-39609D01*
X22119Y-39722D01*
X21781Y-38897D02*
X21781Y-39422D01*
X21781Y-39684D02*
X21819Y-39647D01*
X21781Y-39609D01*
X21744Y-39647D01*
X21781Y-39684D01*
X21781Y-39609D01*
X21406Y-39422D02*
X21406Y-38897D01*
X21406Y-39347D02*
X21369Y-39384D01*
X21294Y-39422D01*
X21181Y-39422D01*
X21106Y-39384D01*
X21069Y-39309D01*
X21069Y-38897D01*
X20694Y-38897D02*
X20694Y-39422D01*
X20694Y-39684D02*
X20731Y-39647D01*
X20694Y-39609D01*
X20656Y-39647D01*
X20694Y-39684D01*
X20694Y-39609D01*
X20019Y-38935D02*
X20094Y-38897D01*
X20244Y-38897D01*
X20319Y-38935D01*
X20357Y-39010D01*
X20357Y-39309D01*
X20319Y-39384D01*
X20244Y-39422D01*
X20094Y-39422D01*
X20019Y-39384D01*
X19982Y-39309D01*
X19982Y-39234D01*
X20357Y-39160D01*
X19644Y-38897D02*
X19644Y-39422D01*
X19644Y-39272D02*
X19607Y-39347D01*
X19569Y-39384D01*
X19494Y-39422D01*
X19419Y-39422D01*
X19157Y-38897D02*
X19157Y-39422D01*
X19157Y-39684D02*
X19194Y-39647D01*
X19157Y-39609D01*
X19119Y-39647D01*
X19157Y-39684D01*
X19157Y-39609D01*
X18444Y-39422D02*
X18444Y-38897D01*
X18782Y-39422D02*
X18782Y-39010D01*
X18744Y-38935D01*
X18669Y-38897D01*
X18557Y-38897D01*
X18482Y-38935D01*
X18444Y-38972D01*
X18107Y-38935D02*
X18032Y-38897D01*
X17882Y-38897D01*
X17807Y-38935D01*
X17769Y-39010D01*
X17769Y-39047D01*
X17807Y-39122D01*
X17882Y-39160D01*
X17994Y-39160D01*
X18069Y-39197D01*
X18107Y-39272D01*
X18107Y-39309D01*
X18069Y-39384D01*
X17994Y-39422D01*
X17882Y-39422D01*
X17807Y-39384D01*
X23619Y-37322D02*
X23356Y-36535D01*
X23094Y-37322D01*
X22869Y-36572D02*
X22756Y-36535D01*
X22569Y-36535D01*
X22494Y-36572D01*
X22456Y-36610D01*
X22419Y-36685D01*
X22419Y-36760D01*
X22456Y-36835D01*
X22494Y-36872D01*
X22569Y-36910D01*
X22719Y-36947D01*
X22794Y-36985D01*
X22831Y-37022D01*
X22869Y-37097D01*
X22869Y-37172D01*
X22831Y-37247D01*
X22794Y-37285D01*
X22719Y-37322D01*
X22531Y-37322D01*
X22419Y-37285D01*
X22794Y-37622D02*
X22644Y-37510D01*
X22494Y-37622D01*
X22081Y-36535D02*
X22081Y-37322D01*
X22081Y-36535D02*
X22156Y-36460D01*
X22194Y-36385D01*
X22156Y-36310D01*
X22081Y-36272D01*
X22006Y-36272D01*
X21144Y-37322D02*
X21144Y-37172D01*
X20844Y-37322D02*
X20844Y-37172D01*
X20544Y-36572D02*
X20432Y-36535D01*
X20244Y-36535D01*
X20169Y-36572D01*
X20132Y-36610D01*
X20094Y-36685D01*
X20094Y-36760D01*
X20132Y-36835D01*
X20169Y-36872D01*
X20244Y-36910D01*
X20394Y-36947D01*
X20469Y-36985D01*
X20506Y-37022D01*
X20544Y-37097D01*
X20544Y-37172D01*
X20506Y-37247D01*
X20469Y-37285D01*
X20394Y-37322D01*
X20207Y-37322D01*
X20094Y-37285D01*
X20469Y-37622D02*
X20319Y-37510D01*
X20169Y-37622D01*
X19832Y-37060D02*
X19644Y-36535D01*
X19457Y-37060D01*
X19157Y-36535D02*
X19157Y-37060D01*
X19157Y-37322D02*
X19194Y-37285D01*
X19157Y-37247D01*
X19119Y-37285D01*
X19157Y-37322D01*
X19157Y-37247D01*
X18482Y-36572D02*
X18557Y-36535D01*
X18707Y-36535D01*
X18782Y-36572D01*
X18819Y-36647D01*
X18819Y-36947D01*
X18782Y-37022D01*
X18707Y-37060D01*
X18557Y-37060D01*
X18482Y-37022D01*
X18444Y-36947D01*
X18444Y-36872D01*
X18819Y-36797D01*
X18144Y-36572D02*
X18069Y-36535D01*
X17919Y-36535D01*
X17844Y-36572D01*
X17807Y-36647D01*
X17807Y-36685D01*
X17844Y-36760D01*
X17919Y-36797D01*
X18032Y-36797D01*
X18107Y-36835D01*
X18144Y-36910D01*
X18144Y-36947D01*
X18107Y-37022D01*
X18032Y-37060D01*
X17919Y-37060D01*
X17844Y-37022D01*
X17357Y-36535D02*
X17432Y-36572D01*
X17469Y-36610D01*
X17507Y-36685D01*
X17507Y-36910D01*
X17469Y-36985D01*
X17432Y-37022D01*
X17357Y-37060D01*
X17244Y-37060D01*
X17169Y-37022D01*
X17132Y-36985D01*
X17094Y-36910D01*
X17094Y-36685D01*
X17132Y-36610D01*
X17169Y-36572D01*
X17244Y-36535D01*
X17357Y-36535D01*
X16794Y-36572D02*
X16719Y-36535D01*
X16569Y-36535D01*
X16494Y-36572D01*
X16457Y-36647D01*
X16457Y-36685D01*
X16494Y-36760D01*
X16569Y-36797D01*
X16682Y-36797D01*
X16757Y-36835D01*
X16794Y-36910D01*
X16794Y-36947D01*
X16757Y-37022D01*
X16682Y-37060D01*
X16569Y-37060D01*
X16494Y-37022D01*
X15520Y-36535D02*
X15520Y-37322D01*
X15445Y-36835D02*
X15220Y-36535D01*
X15220Y-37060D02*
X15520Y-36760D01*
X14545Y-37060D02*
X14545Y-36535D01*
X14882Y-37060D02*
X14882Y-36647D01*
X14845Y-36572D01*
X14770Y-36535D01*
X14657Y-36535D01*
X14582Y-36572D01*
X14545Y-36610D01*
X14882Y-37285D02*
X14507Y-37285D01*
X13832Y-37060D02*
X13832Y-36422D01*
X13870Y-36347D01*
X13907Y-36310D01*
X13982Y-36272D01*
X14095Y-36272D01*
X14170Y-36310D01*
X13832Y-36572D02*
X13907Y-36535D01*
X14057Y-36535D01*
X14132Y-36572D01*
X14170Y-36610D01*
X14207Y-36685D01*
X14207Y-36910D01*
X14170Y-36985D01*
X14132Y-37022D01*
X14057Y-37060D01*
X13907Y-37060D01*
X13832Y-37022D01*
X13457Y-36535D02*
X13457Y-37060D01*
X13457Y-37322D02*
X13495Y-37285D01*
X13457Y-37247D01*
X13420Y-37285D01*
X13457Y-37322D01*
X13457Y-37247D01*
X12745Y-36535D02*
X12745Y-36947D01*
X12782Y-37022D01*
X12857Y-37060D01*
X13007Y-37060D01*
X13082Y-37022D01*
X12745Y-36572D02*
X12820Y-36535D01*
X13007Y-36535D01*
X13082Y-36572D01*
X13120Y-36647D01*
X13120Y-36722D01*
X13082Y-36797D01*
X13007Y-36835D01*
X12820Y-36835D01*
X12745Y-36872D01*
X12370Y-36535D02*
X12370Y-37060D01*
X12370Y-37322D02*
X12408Y-37285D01*
X12370Y-37247D01*
X12333Y-37285D01*
X12370Y-37322D01*
X12370Y-37247D01*
X12033Y-37322D02*
X12033Y-37172D01*
X11733Y-37322D02*
X11733Y-37172D01*
X23619Y-35879D02*
X23319Y-35879D01*
X23506Y-36141D02*
X23506Y-35466D01*
X23469Y-35391D01*
X23394Y-35354D01*
X23319Y-35354D01*
X22944Y-35354D02*
X23019Y-35391D01*
X23056Y-35429D01*
X23094Y-35504D01*
X23094Y-35729D01*
X23056Y-35804D01*
X23019Y-35841D01*
X22944Y-35879D01*
X22831Y-35879D01*
X22756Y-35841D01*
X22719Y-35804D01*
X22681Y-35729D01*
X22681Y-35504D01*
X22719Y-35429D01*
X22756Y-35391D01*
X22831Y-35354D01*
X22944Y-35354D01*
X22344Y-35354D02*
X22344Y-35879D01*
X22344Y-35804D02*
X22306Y-35841D01*
X22231Y-35879D01*
X22119Y-35879D01*
X22044Y-35841D01*
X22006Y-35766D01*
X22006Y-35354D01*
X22006Y-35766D02*
X21969Y-35841D01*
X21894Y-35879D01*
X21781Y-35879D01*
X21706Y-35841D01*
X21669Y-35766D01*
X21669Y-35354D01*
X20956Y-35354D02*
X20956Y-35766D01*
X20994Y-35841D01*
X21069Y-35879D01*
X21219Y-35879D01*
X21294Y-35841D01*
X20956Y-35391D02*
X21031Y-35354D01*
X21219Y-35354D01*
X21294Y-35391D01*
X21331Y-35466D01*
X21331Y-35541D01*
X21294Y-35616D01*
X21219Y-35654D01*
X21031Y-35654D01*
X20956Y-35691D01*
X20619Y-35391D02*
X20544Y-35354D01*
X20394Y-35354D01*
X20319Y-35391D01*
X20282Y-35466D01*
X20282Y-35504D01*
X20319Y-35579D01*
X20394Y-35616D01*
X20506Y-35616D01*
X20581Y-35654D01*
X20619Y-35729D01*
X20619Y-35766D01*
X20581Y-35841D01*
X20506Y-35879D01*
X20394Y-35879D01*
X20319Y-35841D01*
X19457Y-35729D02*
X19494Y-35766D01*
X19569Y-35804D01*
X19644Y-35804D01*
X19719Y-35766D01*
X19757Y-35729D01*
X19794Y-35654D01*
X19794Y-35579D01*
X19757Y-35504D01*
X19719Y-35466D01*
X19644Y-35429D01*
X19569Y-35429D01*
X19494Y-35466D01*
X19457Y-35504D01*
X19457Y-35804D02*
X19457Y-35504D01*
X19419Y-35466D01*
X19382Y-35466D01*
X19307Y-35504D01*
X19269Y-35579D01*
X19269Y-35766D01*
X19344Y-35879D01*
X19457Y-35954D01*
X19607Y-35991D01*
X19757Y-35954D01*
X19869Y-35879D01*
X19944Y-35766D01*
X19982Y-35616D01*
X19944Y-35466D01*
X19869Y-35354D01*
X19757Y-35279D01*
X19607Y-35241D01*
X19457Y-35279D01*
X19344Y-35354D01*
X18969Y-35391D02*
X18894Y-35354D01*
X18744Y-35354D01*
X18669Y-35391D01*
X18632Y-35466D01*
X18632Y-35504D01*
X18669Y-35579D01*
X18744Y-35616D01*
X18857Y-35616D01*
X18932Y-35654D01*
X18969Y-35729D01*
X18969Y-35766D01*
X18932Y-35841D01*
X18857Y-35879D01*
X18744Y-35879D01*
X18669Y-35841D01*
X18369Y-35879D02*
X18182Y-35354D01*
X17994Y-35879D01*
X17694Y-35354D02*
X17694Y-35879D01*
X17694Y-36141D02*
X17732Y-36104D01*
X17694Y-36066D01*
X17657Y-36104D01*
X17694Y-36141D01*
X17694Y-36066D01*
X17019Y-35391D02*
X17094Y-35354D01*
X17244Y-35354D01*
X17319Y-35391D01*
X17357Y-35466D01*
X17357Y-35766D01*
X17319Y-35841D01*
X17244Y-35879D01*
X17094Y-35879D01*
X17019Y-35841D01*
X16982Y-35766D01*
X16982Y-35691D01*
X17357Y-35616D01*
X16682Y-35391D02*
X16607Y-35354D01*
X16457Y-35354D01*
X16382Y-35391D01*
X16345Y-35466D01*
X16345Y-35504D01*
X16382Y-35579D01*
X16457Y-35616D01*
X16569Y-35616D01*
X16644Y-35654D01*
X16682Y-35729D01*
X16682Y-35766D01*
X16644Y-35841D01*
X16569Y-35879D01*
X16457Y-35879D01*
X16382Y-35841D01*
X15895Y-35354D02*
X15970Y-35391D01*
X16007Y-35429D01*
X16045Y-35504D01*
X16045Y-35729D01*
X16007Y-35804D01*
X15970Y-35841D01*
X15895Y-35879D01*
X15782Y-35879D01*
X15707Y-35841D01*
X15670Y-35804D01*
X15632Y-35729D01*
X15632Y-35504D01*
X15670Y-35429D01*
X15707Y-35391D01*
X15782Y-35354D01*
X15895Y-35354D01*
X15332Y-35391D02*
X15257Y-35354D01*
X15107Y-35354D01*
X15032Y-35391D01*
X14995Y-35466D01*
X14995Y-35504D01*
X15032Y-35579D01*
X15107Y-35616D01*
X15220Y-35616D01*
X15295Y-35654D01*
X15332Y-35729D01*
X15332Y-35766D01*
X15295Y-35841D01*
X15220Y-35879D01*
X15107Y-35879D01*
X15032Y-35841D01*
X14657Y-35354D02*
X14657Y-36141D01*
X14582Y-35654D02*
X14357Y-35354D01*
X14357Y-35879D02*
X14657Y-35579D01*
X13682Y-35879D02*
X13682Y-35354D01*
X14020Y-35879D02*
X14020Y-35466D01*
X13982Y-35391D01*
X13907Y-35354D01*
X13795Y-35354D01*
X13720Y-35391D01*
X13682Y-35429D01*
X12970Y-35879D02*
X12970Y-35241D01*
X13007Y-35166D01*
X13045Y-35129D01*
X13120Y-35091D01*
X13232Y-35091D01*
X13307Y-35129D01*
X12970Y-35391D02*
X13045Y-35354D01*
X13195Y-35354D01*
X13270Y-35391D01*
X13307Y-35429D01*
X13345Y-35504D01*
X13345Y-35729D01*
X13307Y-35804D01*
X13270Y-35841D01*
X13195Y-35879D01*
X13045Y-35879D01*
X12970Y-35841D01*
X12595Y-35354D02*
X12595Y-35879D01*
X12595Y-36141D02*
X12632Y-36104D01*
X12595Y-36066D01*
X12557Y-36104D01*
X12595Y-36141D01*
X12595Y-36066D01*
X11883Y-35354D02*
X11883Y-35766D01*
X11920Y-35841D01*
X11995Y-35879D01*
X12145Y-35879D01*
X12220Y-35841D01*
X11883Y-35391D02*
X11958Y-35354D01*
X12145Y-35354D01*
X12220Y-35391D01*
X12258Y-35466D01*
X12258Y-35541D01*
X12220Y-35616D01*
X12145Y-35654D01*
X11958Y-35654D01*
X11883Y-35691D01*
X11508Y-35354D02*
X11508Y-35879D01*
X11508Y-36141D02*
X11545Y-36104D01*
X11508Y-36066D01*
X11470Y-36104D01*
X11508Y-36141D01*
X11508Y-36066D01*
X11133Y-35429D02*
X11095Y-35391D01*
X11133Y-35354D01*
X11170Y-35391D01*
X11133Y-35429D01*
X11133Y-35354D01*
X10645Y-35354D02*
X10720Y-35391D01*
X10758Y-35466D01*
X10758Y-36141D01*
X10458Y-35879D02*
X10158Y-35879D01*
X10345Y-36141D02*
X10345Y-35466D01*
X10308Y-35391D01*
X10233Y-35354D01*
X10158Y-35354D01*
X23506Y-34473D02*
X22906Y-34473D01*
X23206Y-34173D02*
X23206Y-34773D01*
X22606Y-34960D02*
X22119Y-34960D01*
X22381Y-34660D01*
X22269Y-34660D01*
X22194Y-34623D01*
X22156Y-34585D01*
X22119Y-34510D01*
X22119Y-34323D01*
X22156Y-34248D01*
X22194Y-34210D01*
X22269Y-34173D01*
X22494Y-34173D01*
X22569Y-34210D01*
X22606Y-34248D01*
X21856Y-34960D02*
X21331Y-34960D01*
X21669Y-34173D01*
X20881Y-34960D02*
X20806Y-34960D01*
X20731Y-34923D01*
X20694Y-34885D01*
X20656Y-34810D01*
X20619Y-34660D01*
X20619Y-34473D01*
X20656Y-34323D01*
X20694Y-34248D01*
X20731Y-34210D01*
X20806Y-34173D01*
X20881Y-34173D01*
X20956Y-34210D01*
X20994Y-34248D01*
X21031Y-34323D01*
X21069Y-34473D01*
X21069Y-34660D01*
X21031Y-34810D01*
X20994Y-34885D01*
X20956Y-34923D01*
X20881Y-34960D01*
X19944Y-34960D02*
X20094Y-34960D01*
X20169Y-34923D01*
X20207Y-34885D01*
X20282Y-34773D01*
X20319Y-34623D01*
X20319Y-34323D01*
X20282Y-34248D01*
X20244Y-34210D01*
X20169Y-34173D01*
X20019Y-34173D01*
X19944Y-34210D01*
X19907Y-34248D01*
X19869Y-34323D01*
X19869Y-34510D01*
X19907Y-34585D01*
X19944Y-34623D01*
X20019Y-34660D01*
X20169Y-34660D01*
X20244Y-34623D01*
X20282Y-34585D01*
X20319Y-34510D01*
X19607Y-34960D02*
X19082Y-34960D01*
X19419Y-34173D01*
X18819Y-34885D02*
X18782Y-34923D01*
X18707Y-34960D01*
X18519Y-34960D01*
X18444Y-34923D01*
X18407Y-34885D01*
X18369Y-34810D01*
X18369Y-34735D01*
X18407Y-34623D01*
X18857Y-34173D01*
X18369Y-34173D01*
X17619Y-34173D02*
X18069Y-34173D01*
X17844Y-34173D02*
X17844Y-34960D01*
X17919Y-34848D01*
X17994Y-34773D01*
X18069Y-34735D01*
X17357Y-34960D02*
X16832Y-34960D01*
X17169Y-34173D01*
X16420Y-34623D02*
X16494Y-34660D01*
X16532Y-34698D01*
X16569Y-34773D01*
X16569Y-34810D01*
X16532Y-34885D01*
X16494Y-34923D01*
X16420Y-34960D01*
X16270Y-34960D01*
X16195Y-34923D01*
X16157Y-34885D01*
X16120Y-34810D01*
X16120Y-34773D01*
X16157Y-34698D01*
X16195Y-34660D01*
X16270Y-34623D01*
X16420Y-34623D01*
X16494Y-34585D01*
X16532Y-34548D01*
X16569Y-34473D01*
X16569Y-34323D01*
X16532Y-34248D01*
X16494Y-34210D01*
X16420Y-34173D01*
X16270Y-34173D01*
X16195Y-34210D01*
X16157Y-34248D01*
X16120Y-34323D01*
X16120Y-34473D01*
X16157Y-34548D01*
X16195Y-34585D01*
X16270Y-34623D01*
X15857Y-34960D02*
X15370Y-34960D01*
X15632Y-34660D01*
X15520Y-34660D01*
X15445Y-34623D01*
X15407Y-34585D01*
X15370Y-34510D01*
X15370Y-34323D01*
X15407Y-34248D01*
X15445Y-34210D01*
X15520Y-34173D01*
X15745Y-34173D01*
X15820Y-34210D01*
X15857Y-34248D01*
X14920Y-34623D02*
X14995Y-34660D01*
X15032Y-34698D01*
X15070Y-34773D01*
X15070Y-34810D01*
X15032Y-34885D01*
X14995Y-34923D01*
X14920Y-34960D01*
X14770Y-34960D01*
X14695Y-34923D01*
X14657Y-34885D01*
X14620Y-34810D01*
X14620Y-34773D01*
X14657Y-34698D01*
X14695Y-34660D01*
X14770Y-34623D01*
X14920Y-34623D01*
X14995Y-34585D01*
X15032Y-34548D01*
X15070Y-34473D01*
X15070Y-34323D01*
X15032Y-34248D01*
X14995Y-34210D01*
X14920Y-34173D01*
X14770Y-34173D01*
X14695Y-34210D01*
X14657Y-34248D01*
X14620Y-34323D01*
X14620Y-34473D01*
X14657Y-34548D01*
X14695Y-34585D01*
X14770Y-34623D01*
X23506Y-32992D02*
X23506Y-33779D01*
X23169Y-32992D02*
X23169Y-33404D01*
X23206Y-33479D01*
X23281Y-33516D01*
X23394Y-33516D01*
X23469Y-33479D01*
X23506Y-33441D01*
X22906Y-33516D02*
X22606Y-33516D01*
X22794Y-33779D02*
X22794Y-33104D01*
X22756Y-33029D01*
X22681Y-32992D01*
X22606Y-32992D01*
X22456Y-33516D02*
X22156Y-33516D01*
X22344Y-33779D02*
X22344Y-33104D01*
X22306Y-33029D01*
X22231Y-32992D01*
X22156Y-32992D01*
X21894Y-33516D02*
X21894Y-32729D01*
X21894Y-33479D02*
X21819Y-33516D01*
X21669Y-33516D01*
X21594Y-33479D01*
X21556Y-33441D01*
X21519Y-33366D01*
X21519Y-33142D01*
X21556Y-33067D01*
X21594Y-33029D01*
X21669Y-32992D01*
X21819Y-32992D01*
X21894Y-33029D01*
X21181Y-33067D02*
X21144Y-33029D01*
X21181Y-32992D01*
X21219Y-33029D01*
X21181Y-33067D01*
X21181Y-32992D01*
X21181Y-33479D02*
X21144Y-33441D01*
X21181Y-33404D01*
X21219Y-33441D01*
X21181Y-33479D01*
X21181Y-33404D01*
X20244Y-33816D02*
X20919Y-32804D01*
X19419Y-33816D02*
X20094Y-32804D01*
X19194Y-33029D02*
X19119Y-32992D01*
X18969Y-32992D01*
X18894Y-33029D01*
X18857Y-33104D01*
X18857Y-33142D01*
X18894Y-33216D01*
X18969Y-33254D01*
X19082Y-33254D01*
X19157Y-33291D01*
X19194Y-33366D01*
X19194Y-33404D01*
X19157Y-33479D01*
X19082Y-33516D01*
X18969Y-33516D01*
X18894Y-33479D01*
X18594Y-33516D02*
X18407Y-32992D01*
X18219Y-33516D01*
X17919Y-32992D02*
X17919Y-33516D01*
X17919Y-33779D02*
X17957Y-33741D01*
X17919Y-33704D01*
X17882Y-33741D01*
X17919Y-33779D01*
X17919Y-33704D01*
X17244Y-33029D02*
X17319Y-32992D01*
X17469Y-32992D01*
X17544Y-33029D01*
X17582Y-33104D01*
X17582Y-33404D01*
X17544Y-33479D01*
X17469Y-33516D01*
X17319Y-33516D01*
X17244Y-33479D01*
X17207Y-33404D01*
X17207Y-33329D01*
X17582Y-33254D01*
X16907Y-33029D02*
X16832Y-32992D01*
X16682Y-32992D01*
X16607Y-33029D01*
X16569Y-33104D01*
X16569Y-33142D01*
X16607Y-33216D01*
X16682Y-33254D01*
X16794Y-33254D01*
X16869Y-33291D01*
X16907Y-33366D01*
X16907Y-33404D01*
X16869Y-33479D01*
X16794Y-33516D01*
X16682Y-33516D01*
X16607Y-33479D01*
X16120Y-32992D02*
X16195Y-33029D01*
X16232Y-33067D01*
X16270Y-33142D01*
X16270Y-33366D01*
X16232Y-33441D01*
X16195Y-33479D01*
X16120Y-33516D01*
X16007Y-33516D01*
X15932Y-33479D01*
X15895Y-33441D01*
X15857Y-33366D01*
X15857Y-33142D01*
X15895Y-33067D01*
X15932Y-33029D01*
X16007Y-32992D01*
X16120Y-32992D01*
X15557Y-33029D02*
X15482Y-32992D01*
X15332Y-32992D01*
X15257Y-33029D01*
X15220Y-33104D01*
X15220Y-33142D01*
X15257Y-33216D01*
X15332Y-33254D01*
X15445Y-33254D01*
X15520Y-33291D01*
X15557Y-33366D01*
X15557Y-33404D01*
X15520Y-33479D01*
X15445Y-33516D01*
X15332Y-33516D01*
X15257Y-33479D01*
X14882Y-32992D02*
X14882Y-33779D01*
X14807Y-33291D02*
X14582Y-32992D01*
X14582Y-33516D02*
X14882Y-33216D01*
X13907Y-33516D02*
X13907Y-32992D01*
X14245Y-33516D02*
X14245Y-33104D01*
X14207Y-33029D01*
X14132Y-32992D01*
X14020Y-32992D01*
X13945Y-33029D01*
X13907Y-33067D01*
X13195Y-33516D02*
X13195Y-32879D01*
X13232Y-32804D01*
X13270Y-32767D01*
X13345Y-32729D01*
X13457Y-32729D01*
X13532Y-32767D01*
X13195Y-33029D02*
X13270Y-32992D01*
X13420Y-32992D01*
X13495Y-33029D01*
X13532Y-33067D01*
X13570Y-33142D01*
X13570Y-33366D01*
X13532Y-33441D01*
X13495Y-33479D01*
X13420Y-33516D01*
X13270Y-33516D01*
X13195Y-33479D01*
X12820Y-32992D02*
X12820Y-33516D01*
X12820Y-33779D02*
X12857Y-33741D01*
X12820Y-33704D01*
X12782Y-33741D01*
X12820Y-33779D01*
X12820Y-33704D01*
X12108Y-32992D02*
X12108Y-33404D01*
X12145Y-33479D01*
X12220Y-33516D01*
X12370Y-33516D01*
X12445Y-33479D01*
X12108Y-33029D02*
X12183Y-32992D01*
X12370Y-32992D01*
X12445Y-33029D01*
X12482Y-33104D01*
X12482Y-33179D01*
X12445Y-33254D01*
X12370Y-33291D01*
X12183Y-33291D01*
X12108Y-33329D01*
X11733Y-32992D02*
X11733Y-33516D01*
X11733Y-33779D02*
X11770Y-33741D01*
X11733Y-33704D01*
X11695Y-33741D01*
X11733Y-33779D01*
X11733Y-33704D01*
X11358Y-33067D02*
X11320Y-33029D01*
X11358Y-32992D01*
X11395Y-33029D01*
X11358Y-33067D01*
X11358Y-32992D01*
X10870Y-32992D02*
X10945Y-33029D01*
X10983Y-33104D01*
X10983Y-33779D01*
X10683Y-33516D02*
X10383Y-33516D01*
X10570Y-33779D02*
X10570Y-33104D01*
X10533Y-33029D01*
X10458Y-32992D01*
X10383Y-32992D01*
X23224Y-17679D02*
X23487Y-18466D01*
X23749Y-17679D01*
X23974Y-18428D02*
X24086Y-18466D01*
X24274Y-18466D01*
X24349Y-18428D01*
X24386Y-18391D01*
X24424Y-18316D01*
X24424Y-18241D01*
X24386Y-18166D01*
X24349Y-18128D01*
X24274Y-18091D01*
X24124Y-18053D01*
X24049Y-18016D01*
X24011Y-17979D01*
X23974Y-17904D01*
X23974Y-17829D01*
X24011Y-17754D01*
X24049Y-17716D01*
X24124Y-17679D01*
X24311Y-17679D01*
X24424Y-17716D01*
X24049Y-17379D02*
X24199Y-17491D01*
X24349Y-17379D01*
X24761Y-18466D02*
X24761Y-17679D01*
X24761Y-18466D02*
X24686Y-18541D01*
X24649Y-18616D01*
X24686Y-18691D01*
X24761Y-18728D01*
X24836Y-18728D01*
X25699Y-17679D02*
X25699Y-17829D01*
X25999Y-17679D02*
X25999Y-17829D01*
X26299Y-18428D02*
X26411Y-18466D01*
X26599Y-18466D01*
X26674Y-18428D01*
X26711Y-18391D01*
X26749Y-18316D01*
X26749Y-18241D01*
X26711Y-18166D01*
X26674Y-18128D01*
X26599Y-18091D01*
X26449Y-18053D01*
X26374Y-18016D01*
X26336Y-17979D01*
X26299Y-17904D01*
X26299Y-17829D01*
X26336Y-17754D01*
X26374Y-17716D01*
X26449Y-17679D01*
X26636Y-17679D01*
X26749Y-17716D01*
X26374Y-17379D02*
X26524Y-17491D01*
X26674Y-17379D01*
X27011Y-17941D02*
X27199Y-18466D01*
X27386Y-17941D01*
X27686Y-18466D02*
X27686Y-17941D01*
X27686Y-17679D02*
X27649Y-17716D01*
X27686Y-17754D01*
X27724Y-17716D01*
X27686Y-17679D01*
X27686Y-17754D01*
X28361Y-18428D02*
X28286Y-18466D01*
X28136Y-18466D01*
X28061Y-18428D01*
X28023Y-18353D01*
X28023Y-18053D01*
X28061Y-17979D01*
X28136Y-17941D01*
X28286Y-17941D01*
X28361Y-17979D01*
X28398Y-18053D01*
X28398Y-18128D01*
X28023Y-18203D01*
X28698Y-18428D02*
X28773Y-18466D01*
X28923Y-18466D01*
X28998Y-18428D01*
X29036Y-18353D01*
X29036Y-18316D01*
X28998Y-18241D01*
X28923Y-18203D01*
X28811Y-18203D01*
X28736Y-18166D01*
X28698Y-18091D01*
X28698Y-18053D01*
X28736Y-17979D01*
X28811Y-17941D01*
X28923Y-17941D01*
X28998Y-17979D01*
X29486Y-18466D02*
X29411Y-18428D01*
X29373Y-18391D01*
X29336Y-18316D01*
X29336Y-18091D01*
X29373Y-18016D01*
X29411Y-17979D01*
X29486Y-17941D01*
X29598Y-17941D01*
X29673Y-17979D01*
X29711Y-18016D01*
X29748Y-18091D01*
X29748Y-18316D01*
X29711Y-18391D01*
X29673Y-18428D01*
X29598Y-18466D01*
X29486Y-18466D01*
X30048Y-18428D02*
X30123Y-18466D01*
X30273Y-18466D01*
X30348Y-18428D01*
X30386Y-18353D01*
X30386Y-18316D01*
X30348Y-18241D01*
X30273Y-18203D01*
X30161Y-18203D01*
X30086Y-18166D01*
X30048Y-18091D01*
X30048Y-18053D01*
X30086Y-17979D01*
X30161Y-17941D01*
X30273Y-17941D01*
X30348Y-17979D01*
X31323Y-18466D02*
X31323Y-17679D01*
X31398Y-18166D02*
X31623Y-18466D01*
X31623Y-17941D02*
X31323Y-18241D01*
X32298Y-17941D02*
X32298Y-18466D01*
X31961Y-17941D02*
X31961Y-18353D01*
X31998Y-18428D01*
X32073Y-18466D01*
X32185Y-18466D01*
X32260Y-18428D01*
X32298Y-18391D01*
X31961Y-17716D02*
X32335Y-17716D01*
X33010Y-17941D02*
X33010Y-18578D01*
X32973Y-18653D01*
X32935Y-18691D01*
X32860Y-18728D01*
X32748Y-18728D01*
X32673Y-18691D01*
X33010Y-18428D02*
X32935Y-18466D01*
X32785Y-18466D01*
X32710Y-18428D01*
X32673Y-18391D01*
X32635Y-18316D01*
X32635Y-18091D01*
X32673Y-18016D01*
X32710Y-17979D01*
X32785Y-17941D01*
X32935Y-17941D01*
X33010Y-17979D01*
X33385Y-18466D02*
X33385Y-17941D01*
X33385Y-17679D02*
X33348Y-17716D01*
X33385Y-17754D01*
X33423Y-17716D01*
X33385Y-17679D01*
X33385Y-17754D01*
X34098Y-18466D02*
X34098Y-18053D01*
X34060Y-17979D01*
X33985Y-17941D01*
X33835Y-17941D01*
X33760Y-17979D01*
X34098Y-18428D02*
X34023Y-18466D01*
X33835Y-18466D01*
X33760Y-18428D01*
X33723Y-18353D01*
X33723Y-18278D01*
X33760Y-18203D01*
X33835Y-18166D01*
X34023Y-18166D01*
X34098Y-18128D01*
X34473Y-18466D02*
X34473Y-17941D01*
X34473Y-17679D02*
X34435Y-17716D01*
X34473Y-17754D01*
X34510Y-17716D01*
X34473Y-17679D01*
X34473Y-17754D01*
X34810Y-17679D02*
X34810Y-17829D01*
X35110Y-17679D02*
X35110Y-17829D01*
X23674Y-19122D02*
X23674Y-19760D01*
X23637Y-19835D01*
X23599Y-19872D01*
X23524Y-19910D01*
X23412Y-19910D01*
X23337Y-19872D01*
X23674Y-19610D02*
X23599Y-19647D01*
X23449Y-19647D01*
X23374Y-19610D01*
X23337Y-19572D01*
X23299Y-19497D01*
X23299Y-19272D01*
X23337Y-19197D01*
X23374Y-19160D01*
X23449Y-19122D01*
X23599Y-19122D01*
X23674Y-19160D01*
X24049Y-19647D02*
X24049Y-19122D01*
X24049Y-18860D02*
X24011Y-18897D01*
X24049Y-18935D01*
X24086Y-18897D01*
X24049Y-18860D01*
X24049Y-18935D01*
X24724Y-19610D02*
X24649Y-19647D01*
X24499Y-19647D01*
X24424Y-19610D01*
X24386Y-19535D01*
X24386Y-19235D01*
X24424Y-19160D01*
X24499Y-19122D01*
X24649Y-19122D01*
X24724Y-19160D01*
X24761Y-19235D01*
X24761Y-19310D01*
X24386Y-19385D01*
X25436Y-19647D02*
X25436Y-18860D01*
X25436Y-19610D02*
X25361Y-19647D01*
X25211Y-19647D01*
X25136Y-19610D01*
X25099Y-19572D01*
X25061Y-19497D01*
X25061Y-19272D01*
X25099Y-19197D01*
X25136Y-19160D01*
X25211Y-19122D01*
X25361Y-19122D01*
X25436Y-19160D01*
X25811Y-19647D02*
X25811Y-19122D01*
X25811Y-19272D02*
X25849Y-19197D01*
X25886Y-19160D01*
X25961Y-19122D01*
X26036Y-19122D01*
X26299Y-19647D02*
X26299Y-19122D01*
X26299Y-18860D02*
X26261Y-18897D01*
X26299Y-18935D01*
X26336Y-18897D01*
X26299Y-18860D01*
X26299Y-18935D01*
X27011Y-19122D02*
X27011Y-19647D01*
X26674Y-19122D02*
X26674Y-19535D01*
X26711Y-19610D01*
X26786Y-19647D01*
X26899Y-19647D01*
X26974Y-19610D01*
X27011Y-19572D01*
X27349Y-19610D02*
X27424Y-19647D01*
X27574Y-19647D01*
X27649Y-19610D01*
X27686Y-19535D01*
X27686Y-19497D01*
X27649Y-19422D01*
X27574Y-19385D01*
X27461Y-19385D01*
X27386Y-19347D01*
X27349Y-19272D01*
X27349Y-19235D01*
X27386Y-19160D01*
X27461Y-19122D01*
X27574Y-19122D01*
X27649Y-19160D01*
X28511Y-19272D02*
X28473Y-19235D01*
X28398Y-19197D01*
X28323Y-19197D01*
X28248Y-19235D01*
X28211Y-19272D01*
X28173Y-19347D01*
X28173Y-19422D01*
X28211Y-19497D01*
X28248Y-19535D01*
X28323Y-19572D01*
X28398Y-19572D01*
X28473Y-19535D01*
X28511Y-19497D01*
X28511Y-19197D02*
X28511Y-19497D01*
X28548Y-19535D01*
X28586Y-19535D01*
X28661Y-19497D01*
X28698Y-19422D01*
X28698Y-19235D01*
X28623Y-19122D01*
X28511Y-19047D01*
X28361Y-19010D01*
X28211Y-19047D01*
X28098Y-19122D01*
X28023Y-19235D01*
X27986Y-19385D01*
X28023Y-19535D01*
X28098Y-19647D01*
X28211Y-19722D01*
X28361Y-19760D01*
X28511Y-19722D01*
X28623Y-19647D01*
X28998Y-19610D02*
X29073Y-19647D01*
X29223Y-19647D01*
X29298Y-19610D01*
X29336Y-19535D01*
X29336Y-19497D01*
X29298Y-19422D01*
X29223Y-19385D01*
X29111Y-19385D01*
X29036Y-19347D01*
X28998Y-19272D01*
X28998Y-19235D01*
X29036Y-19160D01*
X29111Y-19122D01*
X29223Y-19122D01*
X29298Y-19160D01*
X29598Y-19122D02*
X29786Y-19647D01*
X29973Y-19122D01*
X30273Y-19647D02*
X30273Y-19122D01*
X30273Y-18860D02*
X30236Y-18897D01*
X30273Y-18935D01*
X30311Y-18897D01*
X30273Y-18860D01*
X30273Y-18935D01*
X30948Y-19610D02*
X30873Y-19647D01*
X30723Y-19647D01*
X30648Y-19610D01*
X30611Y-19535D01*
X30611Y-19235D01*
X30648Y-19160D01*
X30723Y-19122D01*
X30873Y-19122D01*
X30948Y-19160D01*
X30986Y-19235D01*
X30986Y-19310D01*
X30611Y-19385D01*
X31286Y-19610D02*
X31361Y-19647D01*
X31511Y-19647D01*
X31586Y-19610D01*
X31623Y-19535D01*
X31623Y-19497D01*
X31586Y-19422D01*
X31511Y-19385D01*
X31398Y-19385D01*
X31323Y-19347D01*
X31286Y-19272D01*
X31286Y-19235D01*
X31323Y-19160D01*
X31398Y-19122D01*
X31511Y-19122D01*
X31586Y-19160D01*
X32073Y-19647D02*
X31998Y-19610D01*
X31961Y-19572D01*
X31923Y-19497D01*
X31923Y-19272D01*
X31961Y-19197D01*
X31998Y-19160D01*
X32073Y-19122D01*
X32185Y-19122D01*
X32260Y-19160D01*
X32298Y-19197D01*
X32335Y-19272D01*
X32335Y-19497D01*
X32298Y-19572D01*
X32260Y-19610D01*
X32185Y-19647D01*
X32073Y-19647D01*
X32635Y-19610D02*
X32710Y-19647D01*
X32860Y-19647D01*
X32935Y-19610D01*
X32973Y-19535D01*
X32973Y-19497D01*
X32935Y-19422D01*
X32860Y-19385D01*
X32748Y-19385D01*
X32673Y-19347D01*
X32635Y-19272D01*
X32635Y-19235D01*
X32673Y-19160D01*
X32748Y-19122D01*
X32860Y-19122D01*
X32935Y-19160D01*
X33310Y-19647D02*
X33310Y-18860D01*
X33385Y-19347D02*
X33610Y-19647D01*
X33610Y-19122D02*
X33310Y-19422D01*
X34285Y-19122D02*
X34285Y-19647D01*
X33948Y-19122D02*
X33948Y-19535D01*
X33985Y-19610D01*
X34060Y-19647D01*
X34173Y-19647D01*
X34248Y-19610D01*
X34285Y-19572D01*
X34998Y-19122D02*
X34998Y-19760D01*
X34960Y-19835D01*
X34923Y-19872D01*
X34848Y-19910D01*
X34735Y-19910D01*
X34660Y-19872D01*
X34998Y-19610D02*
X34923Y-19647D01*
X34773Y-19647D01*
X34698Y-19610D01*
X34660Y-19572D01*
X34623Y-19497D01*
X34623Y-19272D01*
X34660Y-19197D01*
X34698Y-19160D01*
X34773Y-19122D01*
X34923Y-19122D01*
X34998Y-19160D01*
X35373Y-19647D02*
X35373Y-19122D01*
X35373Y-18860D02*
X35335Y-18897D01*
X35373Y-18935D01*
X35410Y-18897D01*
X35373Y-18860D01*
X35373Y-18935D01*
X36085Y-19647D02*
X36085Y-19235D01*
X36047Y-19160D01*
X35973Y-19122D01*
X35823Y-19122D01*
X35748Y-19160D01*
X36085Y-19610D02*
X36010Y-19647D01*
X35823Y-19647D01*
X35748Y-19610D01*
X35710Y-19535D01*
X35710Y-19460D01*
X35748Y-19385D01*
X35823Y-19347D01*
X36010Y-19347D01*
X36085Y-19310D01*
X36460Y-19647D02*
X36460Y-19122D01*
X36460Y-18860D02*
X36422Y-18897D01*
X36460Y-18935D01*
X36497Y-18897D01*
X36460Y-18860D01*
X36460Y-18935D01*
X36835Y-19572D02*
X36872Y-19610D01*
X36835Y-19647D01*
X36797Y-19610D01*
X36835Y-19572D01*
X36835Y-19647D01*
X37322Y-19647D02*
X37247Y-19610D01*
X37210Y-19535D01*
X37210Y-18860D01*
X37510Y-19122D02*
X37810Y-19122D01*
X37622Y-18860D02*
X37622Y-19535D01*
X37660Y-19610D01*
X37735Y-19647D01*
X37810Y-19647D01*
X23337Y-20528D02*
X23937Y-20528D01*
X23637Y-20828D02*
X23637Y-20228D01*
X24236Y-20041D02*
X24724Y-20041D01*
X24461Y-20341D01*
X24574Y-20341D01*
X24649Y-20378D01*
X24686Y-20416D01*
X24724Y-20491D01*
X24724Y-20678D01*
X24686Y-20753D01*
X24649Y-20791D01*
X24574Y-20828D01*
X24349Y-20828D01*
X24274Y-20791D01*
X24236Y-20753D01*
X24986Y-20041D02*
X25511Y-20041D01*
X25174Y-20828D01*
X25961Y-20041D02*
X26036Y-20041D01*
X26111Y-20078D01*
X26149Y-20116D01*
X26186Y-20191D01*
X26224Y-20341D01*
X26224Y-20528D01*
X26186Y-20678D01*
X26149Y-20753D01*
X26111Y-20791D01*
X26036Y-20828D01*
X25961Y-20828D01*
X25886Y-20791D01*
X25849Y-20753D01*
X25811Y-20678D01*
X25774Y-20528D01*
X25774Y-20341D01*
X25811Y-20191D01*
X25849Y-20116D01*
X25886Y-20078D01*
X25961Y-20041D01*
X26899Y-20041D02*
X26749Y-20041D01*
X26674Y-20078D01*
X26636Y-20116D01*
X26561Y-20228D01*
X26524Y-20378D01*
X26524Y-20678D01*
X26561Y-20753D01*
X26599Y-20791D01*
X26674Y-20828D01*
X26824Y-20828D01*
X26899Y-20791D01*
X26936Y-20753D01*
X26974Y-20678D01*
X26974Y-20491D01*
X26936Y-20416D01*
X26899Y-20378D01*
X26824Y-20341D01*
X26674Y-20341D01*
X26599Y-20378D01*
X26561Y-20416D01*
X26524Y-20491D01*
X27686Y-20041D02*
X27311Y-20041D01*
X27274Y-20416D01*
X27311Y-20378D01*
X27386Y-20341D01*
X27574Y-20341D01*
X27649Y-20378D01*
X27686Y-20416D01*
X27724Y-20491D01*
X27724Y-20678D01*
X27686Y-20753D01*
X27649Y-20791D01*
X27574Y-20828D01*
X27386Y-20828D01*
X27311Y-20791D01*
X27274Y-20753D01*
X27986Y-20041D02*
X28473Y-20041D01*
X28211Y-20341D01*
X28323Y-20341D01*
X28398Y-20378D01*
X28436Y-20416D01*
X28473Y-20491D01*
X28473Y-20678D01*
X28436Y-20753D01*
X28398Y-20791D01*
X28323Y-20828D01*
X28098Y-20828D01*
X28023Y-20791D01*
X27986Y-20753D01*
X29148Y-20041D02*
X28998Y-20041D01*
X28923Y-20078D01*
X28886Y-20116D01*
X28811Y-20228D01*
X28773Y-20378D01*
X28773Y-20678D01*
X28811Y-20753D01*
X28848Y-20791D01*
X28923Y-20828D01*
X29073Y-20828D01*
X29148Y-20791D01*
X29186Y-20753D01*
X29223Y-20678D01*
X29223Y-20491D01*
X29186Y-20416D01*
X29148Y-20378D01*
X29073Y-20341D01*
X28923Y-20341D01*
X28848Y-20378D01*
X28811Y-20416D01*
X28773Y-20491D01*
X29898Y-20041D02*
X29748Y-20041D01*
X29673Y-20078D01*
X29636Y-20116D01*
X29561Y-20228D01*
X29523Y-20378D01*
X29523Y-20678D01*
X29561Y-20753D01*
X29598Y-20791D01*
X29673Y-20828D01*
X29823Y-20828D01*
X29898Y-20791D01*
X29936Y-20753D01*
X29973Y-20678D01*
X29973Y-20491D01*
X29936Y-20416D01*
X29898Y-20378D01*
X29823Y-20341D01*
X29673Y-20341D01*
X29598Y-20378D01*
X29561Y-20416D01*
X29523Y-20491D01*
X30648Y-20041D02*
X30498Y-20041D01*
X30423Y-20078D01*
X30386Y-20116D01*
X30311Y-20228D01*
X30273Y-20378D01*
X30273Y-20678D01*
X30311Y-20753D01*
X30348Y-20791D01*
X30423Y-20828D01*
X30573Y-20828D01*
X30648Y-20791D01*
X30686Y-20753D01*
X30723Y-20678D01*
X30723Y-20491D01*
X30686Y-20416D01*
X30648Y-20378D01*
X30573Y-20341D01*
X30423Y-20341D01*
X30348Y-20378D01*
X30311Y-20416D01*
X30273Y-20491D01*
X31098Y-20828D02*
X31248Y-20828D01*
X31323Y-20791D01*
X31361Y-20753D01*
X31436Y-20641D01*
X31473Y-20491D01*
X31473Y-20191D01*
X31436Y-20116D01*
X31398Y-20078D01*
X31323Y-20041D01*
X31173Y-20041D01*
X31098Y-20078D01*
X31061Y-20116D01*
X31023Y-20191D01*
X31023Y-20378D01*
X31061Y-20453D01*
X31098Y-20491D01*
X31173Y-20528D01*
X31323Y-20528D01*
X31398Y-20491D01*
X31436Y-20453D01*
X31473Y-20378D01*
X31848Y-20828D02*
X31998Y-20828D01*
X32073Y-20791D01*
X32110Y-20753D01*
X32185Y-20641D01*
X32223Y-20491D01*
X32223Y-20191D01*
X32185Y-20116D01*
X32148Y-20078D01*
X32073Y-20041D01*
X31923Y-20041D01*
X31848Y-20078D01*
X31811Y-20116D01*
X31773Y-20191D01*
X31773Y-20378D01*
X31811Y-20453D01*
X31848Y-20491D01*
X31923Y-20528D01*
X32073Y-20528D01*
X32148Y-20491D01*
X32185Y-20453D01*
X32223Y-20378D01*
X23337Y-22009D02*
X23337Y-21222D01*
X23674Y-22009D02*
X23674Y-21597D01*
X23637Y-21522D01*
X23562Y-21484D01*
X23449Y-21484D01*
X23374Y-21522D01*
X23337Y-21559D01*
X23937Y-21484D02*
X24236Y-21484D01*
X24049Y-21222D02*
X24049Y-21897D01*
X24086Y-21972D01*
X24161Y-22009D01*
X24236Y-22009D01*
X24386Y-21484D02*
X24686Y-21484D01*
X24499Y-21222D02*
X24499Y-21897D01*
X24536Y-21972D01*
X24611Y-22009D01*
X24686Y-22009D01*
X24949Y-21484D02*
X24949Y-22272D01*
X24949Y-21522D02*
X25024Y-21484D01*
X25174Y-21484D01*
X25249Y-21522D01*
X25286Y-21559D01*
X25324Y-21634D01*
X25324Y-21859D01*
X25286Y-21934D01*
X25249Y-21972D01*
X25174Y-22009D01*
X25024Y-22009D01*
X24949Y-21972D01*
X25661Y-21934D02*
X25699Y-21972D01*
X25661Y-22009D01*
X25624Y-21972D01*
X25661Y-21934D01*
X25661Y-22009D01*
X25661Y-21522D02*
X25699Y-21559D01*
X25661Y-21597D01*
X25624Y-21559D01*
X25661Y-21522D01*
X25661Y-21597D01*
X26599Y-21184D02*
X25924Y-22197D01*
X27424Y-21184D02*
X26749Y-22197D01*
X27649Y-21972D02*
X27724Y-22009D01*
X27874Y-22009D01*
X27949Y-21972D01*
X27986Y-21897D01*
X27986Y-21859D01*
X27949Y-21784D01*
X27874Y-21747D01*
X27761Y-21747D01*
X27686Y-21709D01*
X27649Y-21634D01*
X27649Y-21597D01*
X27686Y-21522D01*
X27761Y-21484D01*
X27874Y-21484D01*
X27949Y-21522D01*
X28248Y-21484D02*
X28436Y-22009D01*
X28623Y-21484D01*
X28923Y-22009D02*
X28923Y-21484D01*
X28923Y-21222D02*
X28886Y-21259D01*
X28923Y-21297D01*
X28961Y-21259D01*
X28923Y-21222D01*
X28923Y-21297D01*
X29598Y-21972D02*
X29523Y-22009D01*
X29373Y-22009D01*
X29298Y-21972D01*
X29261Y-21897D01*
X29261Y-21597D01*
X29298Y-21522D01*
X29373Y-21484D01*
X29523Y-21484D01*
X29598Y-21522D01*
X29636Y-21597D01*
X29636Y-21672D01*
X29261Y-21747D01*
X29936Y-21972D02*
X30011Y-22009D01*
X30161Y-22009D01*
X30236Y-21972D01*
X30273Y-21897D01*
X30273Y-21859D01*
X30236Y-21784D01*
X30161Y-21747D01*
X30048Y-21747D01*
X29973Y-21709D01*
X29936Y-21634D01*
X29936Y-21597D01*
X29973Y-21522D01*
X30048Y-21484D01*
X30161Y-21484D01*
X30236Y-21522D01*
X30723Y-22009D02*
X30648Y-21972D01*
X30611Y-21934D01*
X30573Y-21859D01*
X30573Y-21634D01*
X30611Y-21559D01*
X30648Y-21522D01*
X30723Y-21484D01*
X30836Y-21484D01*
X30911Y-21522D01*
X30948Y-21559D01*
X30986Y-21634D01*
X30986Y-21859D01*
X30948Y-21934D01*
X30911Y-21972D01*
X30836Y-22009D01*
X30723Y-22009D01*
X31286Y-21972D02*
X31361Y-22009D01*
X31511Y-22009D01*
X31586Y-21972D01*
X31623Y-21897D01*
X31623Y-21859D01*
X31586Y-21784D01*
X31511Y-21747D01*
X31398Y-21747D01*
X31323Y-21709D01*
X31286Y-21634D01*
X31286Y-21597D01*
X31323Y-21522D01*
X31398Y-21484D01*
X31511Y-21484D01*
X31586Y-21522D01*
X31961Y-22009D02*
X31961Y-21222D01*
X32035Y-21709D02*
X32260Y-22009D01*
X32260Y-21484D02*
X31961Y-21784D01*
X32935Y-21484D02*
X32935Y-22009D01*
X32598Y-21484D02*
X32598Y-21897D01*
X32635Y-21972D01*
X32710Y-22009D01*
X32823Y-22009D01*
X32898Y-21972D01*
X32935Y-21934D01*
X33648Y-21484D02*
X33648Y-22122D01*
X33610Y-22197D01*
X33573Y-22234D01*
X33498Y-22272D01*
X33385Y-22272D01*
X33310Y-22234D01*
X33648Y-21972D02*
X33573Y-22009D01*
X33423Y-22009D01*
X33348Y-21972D01*
X33310Y-21934D01*
X33273Y-21859D01*
X33273Y-21634D01*
X33310Y-21559D01*
X33348Y-21522D01*
X33423Y-21484D01*
X33573Y-21484D01*
X33648Y-21522D01*
X34023Y-22009D02*
X34023Y-21484D01*
X34023Y-21222D02*
X33985Y-21259D01*
X34023Y-21297D01*
X34060Y-21259D01*
X34023Y-21222D01*
X34023Y-21297D01*
X34735Y-22009D02*
X34735Y-21597D01*
X34698Y-21522D01*
X34623Y-21484D01*
X34473Y-21484D01*
X34398Y-21522D01*
X34735Y-21972D02*
X34660Y-22009D01*
X34473Y-22009D01*
X34398Y-21972D01*
X34360Y-21897D01*
X34360Y-21822D01*
X34398Y-21747D01*
X34473Y-21709D01*
X34660Y-21709D01*
X34735Y-21672D01*
X35110Y-22009D02*
X35110Y-21484D01*
X35110Y-21222D02*
X35073Y-21259D01*
X35110Y-21297D01*
X35148Y-21259D01*
X35110Y-21222D01*
X35110Y-21297D01*
X35485Y-21934D02*
X35523Y-21972D01*
X35485Y-22009D01*
X35448Y-21972D01*
X35485Y-21934D01*
X35485Y-22009D01*
X35973Y-22009D02*
X35898Y-21972D01*
X35860Y-21897D01*
X35860Y-21222D01*
X36160Y-21484D02*
X36460Y-21484D01*
X36272Y-21222D02*
X36272Y-21897D01*
X36310Y-21972D01*
X36385Y-22009D01*
X36460Y-22009D01*
G54D11*
X23852Y-11732D02*
X23740Y-11676D01*
X23571Y-11676D01*
X23402Y-11732D01*
X23290Y-11844D01*
X23233Y-11957D01*
X23177Y-12182D01*
X23177Y-12350D01*
X23233Y-12575D01*
X23290Y-12688D01*
X23402Y-12800D01*
X23571Y-12857D01*
X23683Y-12857D01*
X23852Y-12800D01*
X23908Y-12744D01*
X23908Y-12350D01*
X23683Y-12350D01*
X24415Y-12857D02*
X24415Y-11676D01*
X24977Y-12238D02*
X25371Y-12238D01*
X25539Y-12857D02*
X24977Y-12857D01*
X24977Y-11676D01*
X25539Y-11676D01*
X26046Y-12857D02*
X26046Y-11676D01*
X26327Y-11676D01*
X26496Y-11732D01*
X26608Y-11844D01*
X26664Y-11957D01*
X26721Y-12182D01*
X26721Y-12350D01*
X26664Y-12575D01*
X26608Y-12688D01*
X26496Y-12800D01*
X26327Y-12857D01*
X26046Y-12857D01*
X27902Y-12857D02*
X27508Y-12294D01*
X27227Y-12857D02*
X27227Y-11676D01*
X27677Y-11676D01*
X27789Y-11732D01*
X27845Y-11788D01*
X27902Y-11901D01*
X27902Y-12069D01*
X27845Y-12182D01*
X27789Y-12238D01*
X27677Y-12294D01*
X27227Y-12294D01*
X28408Y-12857D02*
X28408Y-11676D01*
X28970Y-11676D02*
X28970Y-12632D01*
X29026Y-12744D01*
X29083Y-12800D01*
X29195Y-12857D01*
X29420Y-12857D01*
X29533Y-12800D01*
X29589Y-12744D01*
X29645Y-12632D01*
X29645Y-11676D01*
X30151Y-12800D02*
X30320Y-12857D01*
X30601Y-12857D01*
X30714Y-12800D01*
X30770Y-12744D01*
X30826Y-12632D01*
X30826Y-12519D01*
X30770Y-12407D01*
X30714Y-12350D01*
X30601Y-12294D01*
X30376Y-12238D01*
X30264Y-12182D01*
X30208Y-12125D01*
X30151Y-12013D01*
X30151Y-11901D01*
X30208Y-11788D01*
X30264Y-11732D01*
X30376Y-11676D01*
X30658Y-11676D01*
X30826Y-11732D01*
X23233Y-14707D02*
X23233Y-13526D01*
X23908Y-14707D02*
X23402Y-14032D01*
X23908Y-13526D02*
X23233Y-14201D01*
X24358Y-14370D02*
X24921Y-14370D01*
X24246Y-14707D02*
X24640Y-13526D01*
X25033Y-14707D01*
X25258Y-13526D02*
X25652Y-14707D01*
X26046Y-13526D01*
X26383Y-14370D02*
X26946Y-14370D01*
X26271Y-14707D02*
X26664Y-13526D01*
X27058Y-14707D01*
X28014Y-14707D02*
X27452Y-14707D01*
X27452Y-13526D01*
X28408Y-14707D02*
X28408Y-13526D01*
X28914Y-14370D02*
X29476Y-14370D01*
X28802Y-14707D02*
X29195Y-13526D01*
X29589Y-14707D01*
X29983Y-13526D02*
X29983Y-14482D01*
X30039Y-14595D01*
X30095Y-14651D01*
X30208Y-14707D01*
X30433Y-14707D01*
X30545Y-14651D01*
X30601Y-14595D01*
X30658Y-14482D01*
X30658Y-13526D01*
X31164Y-14651D02*
X31332Y-14707D01*
X31614Y-14707D01*
X31726Y-14651D01*
X31782Y-14595D01*
X31839Y-14482D01*
X31839Y-14370D01*
X31782Y-14257D01*
X31726Y-14201D01*
X31614Y-14145D01*
X31389Y-14088D01*
X31276Y-14032D01*
X31220Y-13976D01*
X31164Y-13863D01*
X31164Y-13751D01*
X31220Y-13638D01*
X31276Y-13582D01*
X31389Y-13526D01*
X31670Y-13526D01*
X31839Y-13582D01*
X32345Y-14707D02*
X32345Y-13526D01*
X33020Y-14707D02*
X32514Y-14032D01*
X33020Y-13526D02*
X32345Y-14201D01*
X33470Y-14370D02*
X34032Y-14370D01*
X33357Y-14707D02*
X33751Y-13526D01*
X34145Y-14707D01*
X34482Y-14651D02*
X34651Y-14707D01*
X34932Y-14707D01*
X35044Y-14651D01*
X35101Y-14595D01*
X35157Y-14482D01*
X35157Y-14370D01*
X35101Y-14257D01*
X35044Y-14201D01*
X34932Y-14145D01*
X34707Y-14088D01*
X34595Y-14032D01*
X34538Y-13976D01*
X34482Y-13863D01*
X34482Y-13751D01*
X34538Y-13638D01*
X34595Y-13582D01*
X34707Y-13526D01*
X34988Y-13526D01*
X35157Y-13582D01*
G54D13*
G36*
X27751Y-33102D02*
X27776Y-33062D01*
X27843Y-32989D01*
X27940Y-32898D01*
X27940Y-33023D01*
X27973Y-33068D01*
X27976Y-33072D01*
X28052Y-33144D01*
X28137Y-33193D01*
X28184Y-33207D01*
X28184Y-33312D01*
X28201Y-33329D01*
X28217Y-33312D01*
X28201Y-33296D01*
X28184Y-33312D01*
X28184Y-33207D01*
X28234Y-33221D01*
X28234Y-33322D01*
X28351Y-33449D01*
X28415Y-33518D01*
X28514Y-33623D01*
X28636Y-33752D01*
X28771Y-33893D01*
X28835Y-33961D01*
X29085Y-34223D01*
X29302Y-34452D01*
X29499Y-34662D01*
X29691Y-34869D01*
X29892Y-35087D01*
X30114Y-35331D01*
X30187Y-35412D01*
X30310Y-35548D01*
X30453Y-35706D01*
X30610Y-35881D01*
X30774Y-36063D01*
X30940Y-36248D01*
X31100Y-36426D01*
X31250Y-36593D01*
X31381Y-36739D01*
X31488Y-36859D01*
X31564Y-36945D01*
X31604Y-36990D01*
X31607Y-36993D01*
X31617Y-36988D01*
X31608Y-36926D01*
X31583Y-36816D01*
X31544Y-36665D01*
X31493Y-36481D01*
X31433Y-36271D01*
X31365Y-36043D01*
X31292Y-35804D01*
X31217Y-35561D01*
X31141Y-35322D01*
X31066Y-35095D01*
X30996Y-34887D01*
X30932Y-34706D01*
X30877Y-34558D01*
X30852Y-34496D01*
X30777Y-34318D01*
X30726Y-34192D01*
X30699Y-34109D01*
X30694Y-34059D01*
X30710Y-34034D01*
X30746Y-34024D01*
X30799Y-34019D01*
X30851Y-34022D01*
X30890Y-34049D01*
X30928Y-34113D01*
X30971Y-34212D01*
X31044Y-34401D01*
X31130Y-34644D01*
X31224Y-34929D01*
X31325Y-35247D01*
X31427Y-35585D01*
X31529Y-35934D01*
X31627Y-36282D01*
X31717Y-36618D01*
X31745Y-36729D01*
X31768Y-36819D01*
X31787Y-36882D01*
X31803Y-36912D01*
X31818Y-36904D01*
X31832Y-36854D01*
X31848Y-36756D01*
X31868Y-36607D01*
X31891Y-36400D01*
X31917Y-36162D01*
X31949Y-35882D01*
X31987Y-35571D01*
X32029Y-35244D01*
X32074Y-34914D01*
X32118Y-34595D01*
X32161Y-34301D01*
X32201Y-34044D01*
X32235Y-33840D01*
X32237Y-33829D01*
X32293Y-33517D01*
X32341Y-33257D01*
X32383Y-33038D01*
X32421Y-32847D01*
X32459Y-32670D01*
X32498Y-32496D01*
X32536Y-32334D01*
X32577Y-32164D01*
X32611Y-32019D01*
X32636Y-31910D01*
X32649Y-31848D01*
X32651Y-31839D01*
X32628Y-31851D01*
X32570Y-31898D01*
X32488Y-31970D01*
X32375Y-32064D01*
X32236Y-32170D01*
X32099Y-32267D01*
X32096Y-32269D01*
X31628Y-32548D01*
X31120Y-32787D01*
X30566Y-32989D01*
X30373Y-33048D01*
X30024Y-33141D01*
X29676Y-33220D01*
X29340Y-33282D01*
X29028Y-33326D01*
X28750Y-33349D01*
X28519Y-33351D01*
X28435Y-33345D01*
X28234Y-33322D01*
X28234Y-33221D01*
X28245Y-33224D01*
X28389Y-33239D01*
X28583Y-33243D01*
X28617Y-33243D01*
X28987Y-33219D01*
X29394Y-33155D01*
X29824Y-33054D01*
X30265Y-32922D01*
X30704Y-32763D01*
X31128Y-32580D01*
X31525Y-32379D01*
X31881Y-32163D01*
X31934Y-32127D01*
X32062Y-32034D01*
X32195Y-31931D01*
X32320Y-31827D01*
X32428Y-31732D01*
X32508Y-31655D01*
X32548Y-31604D01*
X32551Y-31595D01*
X32530Y-31567D01*
X32462Y-31541D01*
X32341Y-31517D01*
X32210Y-31498D01*
X32060Y-31480D01*
X31940Y-31470D01*
X31828Y-31469D01*
X31701Y-31476D01*
X31536Y-31492D01*
X31491Y-31497D01*
X31172Y-31543D01*
X30820Y-31616D01*
X30461Y-31709D01*
X30167Y-31800D01*
X29867Y-31914D01*
X29531Y-32063D01*
X29178Y-32236D01*
X28823Y-32427D01*
X28483Y-32626D01*
X28175Y-32824D01*
X28009Y-32941D01*
X27950Y-32989D01*
X27940Y-33023D01*
X27940Y-32898D01*
X27943Y-32895D01*
X28065Y-32788D01*
X28200Y-32677D01*
X28267Y-32625D01*
X28763Y-32281D01*
X29297Y-31974D01*
X29855Y-31712D01*
X30421Y-31502D01*
X30851Y-31381D01*
X30983Y-31350D01*
X31101Y-31328D01*
X31217Y-31313D01*
X31349Y-31304D01*
X31509Y-31299D01*
X31715Y-31298D01*
X31834Y-31298D01*
X32068Y-31299D01*
X32247Y-31303D01*
X32384Y-31311D01*
X32493Y-31323D01*
X32584Y-31340D01*
X32671Y-31364D01*
X32684Y-31368D01*
X32794Y-31403D01*
X32874Y-31430D01*
X32909Y-31443D01*
X32906Y-31476D01*
X32888Y-31549D01*
X32884Y-31565D01*
X32849Y-31695D01*
X32805Y-31876D01*
X32755Y-32095D01*
X32701Y-32336D01*
X32646Y-32588D01*
X32594Y-32834D01*
X32548Y-33061D01*
X32511Y-33256D01*
X32504Y-33296D01*
X32439Y-33679D01*
X32370Y-34118D01*
X32298Y-34601D01*
X32226Y-35117D01*
X32154Y-35654D01*
X32084Y-36202D01*
X32033Y-36622D01*
X31945Y-37366D01*
X32073Y-37507D01*
X32678Y-38169D01*
X33254Y-38789D01*
X33799Y-39364D01*
X34311Y-39892D01*
X34788Y-40371D01*
X35229Y-40801D01*
X35632Y-41179D01*
X35634Y-41181D01*
X35781Y-41318D01*
X35910Y-41443D01*
X36013Y-41547D01*
X36083Y-41624D01*
X36111Y-41664D01*
X36091Y-41716D01*
X36025Y-41799D01*
X35919Y-41903D01*
X35913Y-41909D01*
X35685Y-42083D01*
X35400Y-42249D01*
X35070Y-42403D01*
X34703Y-42544D01*
X34311Y-42669D01*
X33904Y-42775D01*
X33491Y-42859D01*
X33083Y-42920D01*
X32689Y-42955D01*
X32321Y-42961D01*
X31988Y-42935D01*
X31834Y-42909D01*
X31637Y-42863D01*
X31487Y-42816D01*
X31389Y-42770D01*
X31351Y-42729D01*
X31351Y-42725D01*
X31375Y-42703D01*
X31399Y-42707D01*
X31599Y-42763D01*
X31851Y-42798D01*
X32141Y-42813D01*
X32458Y-42807D01*
X32788Y-42781D01*
X33117Y-42734D01*
X33461Y-42666D01*
X33813Y-42581D01*
X34164Y-42483D01*
X34503Y-42376D01*
X34821Y-42263D01*
X35107Y-42147D01*
X35351Y-42033D01*
X35543Y-41922D01*
X35605Y-41879D01*
X35648Y-41843D01*
X35636Y-41832D01*
X35601Y-41831D01*
X35537Y-41835D01*
X35417Y-41847D01*
X35250Y-41867D01*
X35046Y-41892D01*
X34815Y-41921D01*
X34566Y-41954D01*
X34310Y-41989D01*
X34055Y-42024D01*
X33812Y-42058D01*
X33590Y-42090D01*
X33399Y-42119D01*
X33248Y-42144D01*
X33234Y-42146D01*
X32789Y-42227D01*
X32404Y-42307D01*
X32074Y-42388D01*
X31792Y-42471D01*
X31553Y-42557D01*
X31349Y-42650D01*
X31295Y-42679D01*
X31180Y-42737D01*
X31108Y-42762D01*
X31085Y-42754D01*
X31114Y-42715D01*
X31175Y-42663D01*
X31254Y-42563D01*
X31273Y-42485D01*
X31279Y-42415D01*
X31294Y-42294D01*
X31313Y-42136D01*
X31324Y-42054D01*
X31324Y-42521D01*
X31337Y-42533D01*
X31381Y-42521D01*
X31466Y-42481D01*
X31539Y-42444D01*
X31827Y-42318D01*
X32180Y-42198D01*
X32598Y-42084D01*
X33080Y-41975D01*
X33628Y-41872D01*
X34242Y-41775D01*
X34922Y-41683D01*
X35257Y-41643D01*
X35747Y-41586D01*
X35491Y-41352D01*
X35350Y-41221D01*
X35171Y-41048D01*
X34959Y-40841D01*
X34723Y-40606D01*
X34468Y-40351D01*
X34202Y-40083D01*
X33932Y-39807D01*
X33664Y-39533D01*
X33406Y-39266D01*
X33164Y-39014D01*
X32945Y-38783D01*
X32756Y-38581D01*
X32686Y-38504D01*
X32521Y-38324D01*
X32370Y-38161D01*
X32240Y-38022D01*
X32136Y-37913D01*
X32064Y-37839D01*
X32030Y-37808D01*
X32028Y-37808D01*
X32034Y-37841D01*
X32060Y-37928D01*
X32101Y-38058D01*
X32155Y-38221D01*
X32218Y-38407D01*
X32221Y-38416D01*
X32455Y-39038D01*
X32709Y-39596D01*
X32983Y-40091D01*
X33276Y-40523D01*
X33375Y-40649D01*
X33468Y-40761D01*
X33532Y-40828D01*
X33577Y-40858D01*
X33615Y-40862D01*
X33645Y-40851D01*
X33713Y-40834D01*
X33750Y-40861D01*
X33774Y-40926D01*
X33795Y-41019D01*
X33806Y-41114D01*
X33805Y-41183D01*
X33801Y-41195D01*
X33764Y-41199D01*
X33685Y-41184D01*
X33583Y-41157D01*
X33478Y-41124D01*
X33389Y-41089D01*
X33337Y-41060D01*
X33342Y-41029D01*
X33395Y-40992D01*
X33396Y-40992D01*
X33459Y-40956D01*
X33484Y-40929D01*
X33464Y-40895D01*
X33409Y-40825D01*
X33332Y-40733D01*
X33315Y-40713D01*
X33168Y-40539D01*
X33036Y-40368D01*
X32907Y-40183D01*
X32769Y-39967D01*
X32670Y-39805D01*
X32548Y-39595D01*
X32441Y-39391D01*
X32341Y-39179D01*
X32243Y-38944D01*
X32138Y-38671D01*
X32052Y-38433D01*
X31986Y-38248D01*
X31937Y-38126D01*
X31903Y-38068D01*
X31879Y-38074D01*
X31861Y-38143D01*
X31847Y-38277D01*
X31834Y-38446D01*
X31818Y-38633D01*
X31796Y-38866D01*
X31768Y-39137D01*
X31734Y-39439D01*
X31697Y-39762D01*
X31658Y-40100D01*
X31616Y-40444D01*
X31573Y-40786D01*
X31531Y-41119D01*
X31489Y-41434D01*
X31450Y-41724D01*
X31413Y-41981D01*
X31381Y-42197D01*
X31354Y-42363D01*
X31332Y-42473D01*
X31329Y-42486D01*
X31324Y-42521D01*
X31324Y-42054D01*
X31337Y-41956D01*
X31347Y-41879D01*
X31394Y-41515D01*
X31441Y-41126D01*
X31486Y-40730D01*
X31526Y-40345D01*
X31559Y-39990D01*
X31585Y-39682D01*
X31585Y-39679D01*
X31602Y-39461D01*
X31623Y-39207D01*
X31645Y-38949D01*
X31667Y-38716D01*
X31668Y-38706D01*
X31687Y-38491D01*
X31707Y-38261D01*
X31724Y-38044D01*
X31737Y-37863D01*
X31738Y-37839D01*
X31760Y-37477D01*
X30717Y-36295D01*
X30491Y-36040D01*
X30267Y-35786D01*
X30050Y-35542D01*
X29847Y-35313D01*
X29664Y-35109D01*
X29508Y-34934D01*
X29385Y-34798D01*
X29322Y-34729D01*
X29047Y-34429D01*
X28790Y-34152D01*
X28555Y-33900D01*
X28345Y-33677D01*
X28163Y-33487D01*
X28013Y-33332D01*
X27897Y-33217D01*
X27818Y-33144D01*
X27781Y-33116D01*
X27778Y-33116D01*
X27752Y-33110D01*
X27751Y-33102D01*
X27751Y-33102D01*
X27751Y-33102D01*
G37*
G36*
X36084Y-41812D02*
X36101Y-41796D01*
X36117Y-41812D01*
X36101Y-41829D01*
X36084Y-41812D01*
X36084Y-41812D01*
X36084Y-41812D01*
G37*
G36*
X33251Y-42946D02*
X33267Y-42929D01*
X33284Y-42946D01*
X33267Y-42962D01*
X33251Y-42946D01*
X33251Y-42946D01*
X33251Y-42946D01*
G37*
G36*
X31717Y-42946D02*
X31734Y-42929D01*
X31751Y-42946D01*
X31734Y-42962D01*
X31717Y-42946D01*
X31717Y-42946D01*
X31717Y-42946D01*
G37*
G36*
X19492Y-21975D02*
X19467Y-22015D01*
X19400Y-22088D01*
X19303Y-22179D01*
X19303Y-22054D01*
X19270Y-22009D01*
X19267Y-22005D01*
X19191Y-21933D01*
X19106Y-21884D01*
X19059Y-21870D01*
X19059Y-21765D01*
X19042Y-21748D01*
X19026Y-21765D01*
X19042Y-21781D01*
X19059Y-21765D01*
X19059Y-21870D01*
X19009Y-21856D01*
X19009Y-21755D01*
X18892Y-21628D01*
X18828Y-21559D01*
X18729Y-21454D01*
X18607Y-21325D01*
X18472Y-21184D01*
X18408Y-21116D01*
X18158Y-20854D01*
X17941Y-20625D01*
X17744Y-20415D01*
X17552Y-20208D01*
X17351Y-19990D01*
X17129Y-19746D01*
X17056Y-19665D01*
X16933Y-19529D01*
X16790Y-19371D01*
X16633Y-19196D01*
X16469Y-19014D01*
X16303Y-18829D01*
X16143Y-18651D01*
X15993Y-18484D01*
X15862Y-18338D01*
X15755Y-18218D01*
X15679Y-18132D01*
X15639Y-18087D01*
X15636Y-18084D01*
X15626Y-18089D01*
X15635Y-18151D01*
X15660Y-18261D01*
X15699Y-18412D01*
X15750Y-18596D01*
X15810Y-18806D01*
X15878Y-19034D01*
X15951Y-19273D01*
X16026Y-19516D01*
X16102Y-19755D01*
X16177Y-19982D01*
X16247Y-20190D01*
X16311Y-20371D01*
X16366Y-20519D01*
X16391Y-20581D01*
X16466Y-20759D01*
X16517Y-20885D01*
X16544Y-20968D01*
X16549Y-21018D01*
X16533Y-21043D01*
X16497Y-21053D01*
X16444Y-21058D01*
X16392Y-21055D01*
X16353Y-21028D01*
X16315Y-20964D01*
X16272Y-20865D01*
X16199Y-20676D01*
X16113Y-20433D01*
X16019Y-20148D01*
X15918Y-19830D01*
X15816Y-19492D01*
X15714Y-19143D01*
X15616Y-18795D01*
X15526Y-18459D01*
X15498Y-18348D01*
X15475Y-18258D01*
X15456Y-18195D01*
X15440Y-18165D01*
X15425Y-18173D01*
X15411Y-18223D01*
X15395Y-18321D01*
X15375Y-18470D01*
X15352Y-18677D01*
X15326Y-18915D01*
X15294Y-19195D01*
X15256Y-19506D01*
X15214Y-19833D01*
X15169Y-20163D01*
X15125Y-20482D01*
X15082Y-20776D01*
X15042Y-21033D01*
X15008Y-21237D01*
X15006Y-21248D01*
X14950Y-21560D01*
X14902Y-21820D01*
X14860Y-22039D01*
X14822Y-22230D01*
X14784Y-22407D01*
X14745Y-22581D01*
X14707Y-22743D01*
X14666Y-22913D01*
X14632Y-23058D01*
X14607Y-23167D01*
X14594Y-23229D01*
X14592Y-23238D01*
X14615Y-23226D01*
X14673Y-23179D01*
X14755Y-23107D01*
X14868Y-23013D01*
X15007Y-22907D01*
X15144Y-22810D01*
X15147Y-22808D01*
X15615Y-22529D01*
X16123Y-22290D01*
X16677Y-22088D01*
X16870Y-22029D01*
X17219Y-21936D01*
X17567Y-21857D01*
X17903Y-21795D01*
X18215Y-21751D01*
X18493Y-21728D01*
X18724Y-21726D01*
X18808Y-21732D01*
X19009Y-21755D01*
X19009Y-21856D01*
X18998Y-21853D01*
X18854Y-21838D01*
X18660Y-21834D01*
X18626Y-21834D01*
X18256Y-21858D01*
X17849Y-21922D01*
X17419Y-22023D01*
X16978Y-22155D01*
X16539Y-22314D01*
X16115Y-22497D01*
X15718Y-22698D01*
X15362Y-22914D01*
X15309Y-22950D01*
X15181Y-23043D01*
X15048Y-23146D01*
X14923Y-23250D01*
X14815Y-23345D01*
X14735Y-23422D01*
X14695Y-23473D01*
X14692Y-23482D01*
X14713Y-23510D01*
X14781Y-23536D01*
X14902Y-23560D01*
X15033Y-23579D01*
X15183Y-23597D01*
X15303Y-23607D01*
X15415Y-23608D01*
X15542Y-23601D01*
X15707Y-23585D01*
X15752Y-23580D01*
X16071Y-23534D01*
X16423Y-23461D01*
X16782Y-23368D01*
X17076Y-23277D01*
X17376Y-23163D01*
X17712Y-23014D01*
X18065Y-22841D01*
X18420Y-22650D01*
X18760Y-22451D01*
X19068Y-22253D01*
X19234Y-22136D01*
X19293Y-22088D01*
X19303Y-22054D01*
X19303Y-22179D01*
X19300Y-22182D01*
X19178Y-22289D01*
X19043Y-22400D01*
X18976Y-22452D01*
X18480Y-22796D01*
X17946Y-23103D01*
X17388Y-23365D01*
X16822Y-23575D01*
X16392Y-23696D01*
X16260Y-23727D01*
X16142Y-23749D01*
X16026Y-23764D01*
X15894Y-23773D01*
X15734Y-23778D01*
X15528Y-23779D01*
X15409Y-23779D01*
X15175Y-23778D01*
X14996Y-23774D01*
X14859Y-23766D01*
X14750Y-23754D01*
X14659Y-23737D01*
X14572Y-23713D01*
X14559Y-23709D01*
X14449Y-23674D01*
X14369Y-23647D01*
X14334Y-23634D01*
X14337Y-23601D01*
X14355Y-23528D01*
X14359Y-23512D01*
X14394Y-23382D01*
X14438Y-23201D01*
X14488Y-22982D01*
X14542Y-22741D01*
X14597Y-22489D01*
X14649Y-22243D01*
X14695Y-22016D01*
X14732Y-21821D01*
X14739Y-21781D01*
X14804Y-21398D01*
X14873Y-20959D01*
X14945Y-20476D01*
X15017Y-19960D01*
X15089Y-19423D01*
X15159Y-18875D01*
X15210Y-18455D01*
X15298Y-17711D01*
X15170Y-17570D01*
X14565Y-16908D01*
X13989Y-16288D01*
X13444Y-15713D01*
X12932Y-15185D01*
X12455Y-14706D01*
X12014Y-14276D01*
X11611Y-13898D01*
X11609Y-13896D01*
X11462Y-13759D01*
X11333Y-13634D01*
X11230Y-13530D01*
X11160Y-13453D01*
X11132Y-13413D01*
X11152Y-13361D01*
X11218Y-13278D01*
X11324Y-13174D01*
X11330Y-13168D01*
X11558Y-12994D01*
X11843Y-12828D01*
X12173Y-12674D01*
X12540Y-12533D01*
X12932Y-12408D01*
X13339Y-12302D01*
X13752Y-12218D01*
X14160Y-12157D01*
X14554Y-12122D01*
X14922Y-12116D01*
X15255Y-12142D01*
X15409Y-12168D01*
X15606Y-12214D01*
X15756Y-12261D01*
X15854Y-12307D01*
X15892Y-12348D01*
X15892Y-12352D01*
X15868Y-12374D01*
X15844Y-12370D01*
X15644Y-12314D01*
X15392Y-12279D01*
X15102Y-12264D01*
X14785Y-12270D01*
X14455Y-12296D01*
X14126Y-12343D01*
X13782Y-12411D01*
X13430Y-12496D01*
X13079Y-12594D01*
X12740Y-12701D01*
X12422Y-12814D01*
X12136Y-12930D01*
X11892Y-13044D01*
X11700Y-13155D01*
X11638Y-13198D01*
X11595Y-13234D01*
X11607Y-13245D01*
X11642Y-13246D01*
X11706Y-13242D01*
X11826Y-13230D01*
X11993Y-13210D01*
X12197Y-13185D01*
X12428Y-13156D01*
X12677Y-13123D01*
X12933Y-13088D01*
X13188Y-13053D01*
X13431Y-13019D01*
X13653Y-12987D01*
X13844Y-12958D01*
X13995Y-12933D01*
X14009Y-12931D01*
X14454Y-12850D01*
X14839Y-12770D01*
X15169Y-12689D01*
X15451Y-12606D01*
X15690Y-12520D01*
X15894Y-12427D01*
X15948Y-12398D01*
X16063Y-12340D01*
X16135Y-12315D01*
X16158Y-12323D01*
X16129Y-12362D01*
X16068Y-12414D01*
X15989Y-12514D01*
X15970Y-12592D01*
X15964Y-12662D01*
X15949Y-12783D01*
X15930Y-12941D01*
X15919Y-13023D01*
X15919Y-12556D01*
X15906Y-12544D01*
X15862Y-12556D01*
X15777Y-12596D01*
X15704Y-12633D01*
X15416Y-12759D01*
X15063Y-12879D01*
X14645Y-12993D01*
X14163Y-13102D01*
X13615Y-13205D01*
X13001Y-13302D01*
X12321Y-13394D01*
X11986Y-13434D01*
X11496Y-13491D01*
X11752Y-13725D01*
X11893Y-13856D01*
X12072Y-14029D01*
X12284Y-14236D01*
X12520Y-14471D01*
X12775Y-14726D01*
X13041Y-14994D01*
X13311Y-15270D01*
X13579Y-15544D01*
X13837Y-15811D01*
X14079Y-16063D01*
X14298Y-16294D01*
X14487Y-16496D01*
X14557Y-16573D01*
X14722Y-16753D01*
X14873Y-16916D01*
X15003Y-17055D01*
X15107Y-17164D01*
X15179Y-17238D01*
X15213Y-17269D01*
X15215Y-17269D01*
X15209Y-17236D01*
X15183Y-17149D01*
X15142Y-17019D01*
X15088Y-16856D01*
X15025Y-16670D01*
X15022Y-16661D01*
X14788Y-16039D01*
X14534Y-15481D01*
X14260Y-14986D01*
X13967Y-14554D01*
X13868Y-14428D01*
X13775Y-14316D01*
X13711Y-14249D01*
X13666Y-14219D01*
X13628Y-14215D01*
X13598Y-14226D01*
X13530Y-14243D01*
X13493Y-14216D01*
X13469Y-14151D01*
X13448Y-14058D01*
X13437Y-13963D01*
X13438Y-13894D01*
X13442Y-13882D01*
X13479Y-13878D01*
X13558Y-13893D01*
X13660Y-13920D01*
X13765Y-13953D01*
X13854Y-13988D01*
X13906Y-14017D01*
X13901Y-14048D01*
X13848Y-14085D01*
X13847Y-14085D01*
X13784Y-14121D01*
X13759Y-14148D01*
X13779Y-14182D01*
X13834Y-14252D01*
X13911Y-14344D01*
X13928Y-14364D01*
X14075Y-14538D01*
X14207Y-14709D01*
X14336Y-14894D01*
X14474Y-15110D01*
X14573Y-15272D01*
X14695Y-15482D01*
X14802Y-15686D01*
X14902Y-15898D01*
X15000Y-16133D01*
X15105Y-16406D01*
X15191Y-16644D01*
X15257Y-16829D01*
X15306Y-16951D01*
X15340Y-17009D01*
X15364Y-17003D01*
X15382Y-16934D01*
X15396Y-16800D01*
X15409Y-16631D01*
X15425Y-16444D01*
X15447Y-16211D01*
X15475Y-15940D01*
X15509Y-15638D01*
X15546Y-15315D01*
X15585Y-14977D01*
X15627Y-14633D01*
X15670Y-14291D01*
X15712Y-13958D01*
X15754Y-13643D01*
X15793Y-13353D01*
X15830Y-13096D01*
X15862Y-12880D01*
X15889Y-12714D01*
X15911Y-12604D01*
X15914Y-12591D01*
X15919Y-12556D01*
X15919Y-13023D01*
X15906Y-13121D01*
X15896Y-13198D01*
X15849Y-13562D01*
X15802Y-13951D01*
X15757Y-14347D01*
X15717Y-14732D01*
X15684Y-15087D01*
X15658Y-15395D01*
X15658Y-15398D01*
X15641Y-15616D01*
X15620Y-15870D01*
X15598Y-16128D01*
X15576Y-16361D01*
X15575Y-16371D01*
X15556Y-16586D01*
X15536Y-16816D01*
X15519Y-17033D01*
X15506Y-17214D01*
X15505Y-17238D01*
X15483Y-17600D01*
X16526Y-18782D01*
X16752Y-19037D01*
X16976Y-19291D01*
X17193Y-19535D01*
X17396Y-19764D01*
X17579Y-19968D01*
X17735Y-20143D01*
X17858Y-20279D01*
X17921Y-20348D01*
X18196Y-20648D01*
X18453Y-20925D01*
X18688Y-21177D01*
X18898Y-21400D01*
X19080Y-21590D01*
X19230Y-21745D01*
X19346Y-21860D01*
X19425Y-21933D01*
X19462Y-21961D01*
X19465Y-21961D01*
X19491Y-21967D01*
X19492Y-21975D01*
X19492Y-21975D01*
X19492Y-21975D01*
G37*
G36*
X11159Y-13265D02*
X11142Y-13281D01*
X11126Y-13265D01*
X11142Y-13248D01*
X11159Y-13265D01*
X11159Y-13265D01*
X11159Y-13265D01*
G37*
G36*
X13992Y-12131D02*
X13976Y-12148D01*
X13959Y-12131D01*
X13976Y-12115D01*
X13992Y-12131D01*
X13992Y-12131D01*
X13992Y-12131D01*
G37*
G36*
X15526Y-12131D02*
X15509Y-12148D01*
X15492Y-12131D01*
X15509Y-12115D01*
X15526Y-12131D01*
X15526Y-12131D01*
X15526Y-12131D01*
G37*
M02*
